<svg width="150" height="150" viewBox="0 0 150 150" fill="none" xmlns="http://www.w3.org/2000/svg">
<rect width="150" height="150" rx="75" fill="#3C3ACF"/>
<path d="M102.596 32.887C106.309 31.1538 110.71 31.929 113.608 34.8268V34.8268C116.506 37.7245 117.281 42.1256 115.548 45.8391L79.4604 123.158C77.8095 126.695 73.1456 127.517 70.3853 124.756V124.756C68.7127 123.084 68.2651 120.543 69.2655 118.4L76.2541 103.424L81.2949 92.4865V92.4865C88.7976 76.3492 72.0767 59.6178 55.9484 67.14V67.14L45.0109 72.1808L30.1055 79.1928C27.9495 80.2071 25.3891 79.76 23.7043 78.0753V78.0753C20.9315 75.3025 21.7568 70.6176 25.3101 68.9591L102.596 32.887Z" fill="#FEFEFE"/>
</svg>
