<svg width="56" height="56" viewBox="0 0 56 56" fill="none" xmlns="http://www.w3.org/2000/svg">
<path fill-rule="evenodd" clip-rule="evenodd" d="M11.6665 9.33335C10.3778 9.33335 9.33317 10.378 9.33317 11.6667V44.3333C9.33317 45.622 10.3778 46.6667 11.6665 46.6667H18.6665H44.3332C45.6218 46.6667 46.6665 45.622 46.6665 44.3333V11.6667C46.6665 10.378 45.6218 9.33335 44.3332 9.33335H18.6665H11.6665ZM4.6665 11.6667C4.6665 7.80069 7.80051 4.66669 11.6665 4.66669H44.3332C48.1992 4.66669 51.3332 7.80069 51.3332 11.6667V44.3333C51.3332 48.1993 48.1992 51.3333 44.3332 51.3333H11.6665C7.80051 51.3333 4.6665 48.1993 4.6665 44.3333V11.6667Z" fill="#BBBBBB"/>
<path fill-rule="evenodd" clip-rule="evenodd" d="M20.9998 4.66669C22.2885 4.66669 23.3332 5.71136 23.3332 7.00002V49C23.3332 50.2887 22.2885 51.3333 20.9998 51.3333C19.7112 51.3333 18.6665 50.2887 18.6665 49V46.6667V9.33335V7.00002C18.6665 5.71136 19.7112 4.66669 20.9998 4.66669ZM38.9831 19.3501C39.8943 20.2613 39.8943 21.7387 38.9831 22.6499L33.633 28L38.9831 33.3501C39.8943 34.2613 39.8943 35.7387 38.9831 36.6499C38.0719 37.5612 36.5945 37.5612 35.6832 36.6499L28.6832 29.6499C27.772 28.7387 27.772 27.2613 28.6832 26.3501L35.6832 19.3501C36.5945 18.4389 38.0719 18.4389 38.9831 19.3501Z" fill="#BBBBBB"/>
<path d="M11.6665 9.33335C10.3778 9.33335 9.33317 10.378 9.33317 11.6667V44.3333C9.33317 45.622 10.3778 46.6667 11.6665 46.6667H18.6665V9.33335H11.6665Z" fill="#BBBBBB"/>
</svg>
