<svg xmlns="http://www.w3.org/2000/svg" width="644" height="657" fill="none" viewBox="0 0 644 657"><path fill="#fff" d="M561.716 382.433L547.578 437.337L629.048 458.315L643.186 403.411L561.716 382.433Z"/><path fill="#E0E0E0" d="M629.045 458.323C629.045 458.323 629.045 457.96 629.266 457.297L629.992 454.363L632.752 443.321C635.182 433.761 638.636 420.053 642.864 403.379L643.101 403.773L561.623 382.887L562.112 382.587V382.792V383.029L561.986 383.487L561.749 384.401L561.292 386.216L560.345 389.86C559.735 392.278 559.12 394.676 558.5 397.053C557.269 401.807 556.06 406.486 554.871 411.093C552.505 420.274 550.139 429.108 548.057 437.468L547.788 437.011L606.361 452.281L623.019 456.635L627.483 457.834L628.635 458.149L629.045 458.275L628.667 458.197L627.547 457.928L623.13 456.84L606.392 452.644L547.489 437.705L547.126 437.61L547.221 437.247C549.366 428.887 551.622 420.053 553.988 410.856C555.176 406.26 556.381 401.58 557.601 396.816C558.2 394.434 558.831 392.084 559.446 389.623C559.762 388.408 560.061 387.194 560.377 385.979L560.85 384.165L561.087 383.25L561.197 382.792V382.556V382.445V382.351L561.702 382.051L643.132 403.111L643.463 403.189L643.369 403.505C638.999 420.242 635.402 433.966 632.878 443.573L629.976 454.616C629.645 455.846 629.376 456.793 629.203 457.471L629.045 458.323Z"/><path fill="#E0E0E0" d="M643.179 403.41C642.91 403.636 642.613 403.827 642.296 403.978L639.661 405.477L629.865 410.888L597.148 428.54L596.848 428.697L596.627 428.429L595.05 426.331L571.387 395.412C568.422 391.5 566.008 388.298 564.289 385.947C563.5 384.875 562.869 384.007 562.38 383.36C562.147 383.064 561.941 382.747 561.765 382.414C562.037 382.674 562.29 382.953 562.522 383.25C563.027 383.897 563.705 384.717 564.541 385.742L571.845 395.018L595.712 425.779L597.29 427.877L596.769 427.767L629.597 410.414L639.503 405.256L642.217 403.883C642.523 403.698 642.845 403.54 643.179 403.41Z"/><path fill="#E0E0E0" d="M80.3613 512.51C81.1485 512.239 81.8504 511.766 82.3963 511.137C83.0347 510.365 83.3858 509.395 83.3901 508.392C83.364 507.755 83.2526 507.123 83.0588 506.515C82.9011 505.837 82.7118 505.111 82.5225 504.354C80.945 498.233 78.8311 489.431 76.1336 478.578C75.4711 475.864 74.7612 473.009 74.0356 470.028L72.9313 465.485C72.7724 464.723 72.5561 463.974 72.2845 463.245C71.9381 462.592 71.4199 462.046 70.7859 461.667C70.1328 461.267 69.3738 461.075 68.609 461.115C67.7948 461.26 66.9891 461.45 66.1954 461.683L61.179 462.976L50.6887 465.705L3.99488 477.773C3.06054 478.036 2.25733 478.637 1.74131 479.459C1.2253 480.281 1.03333 481.266 1.20271 482.222C1.69174 484.257 2.16499 486.292 2.65401 488.311C3.63206 492.36 4.59958 496.346 5.5566 500.268C7.44959 508.156 9.2637 515.68 11.0147 522.89L11.6615 525.571C11.8167 526.4 12.2244 527.16 12.8288 527.748C13.4125 528.327 14.1734 528.694 14.99 528.789C15.8321 528.821 16.6726 528.693 17.4667 528.411L27.3733 525.887L45.1359 521.312L70.8963 514.813L77.9004 513.093L79.7303 512.667L80.3613 512.541L79.7461 512.746L77.9477 513.251L70.9752 515.128L45.2936 521.88L27.5468 526.502L17.656 529.042C16.7774 529.36 15.8443 529.499 14.9111 529.452C13.9314 529.34 13.0162 528.908 12.3083 528.221C11.5991 527.535 11.115 526.649 10.9201 525.682C10.715 524.798 10.4941 523.899 10.2733 523C8.52228 515.791 6.67662 508.235 4.76785 500.394C3.82135 496.482 2.84331 492.507 1.86526 488.437C1.37624 486.402 0.887214 484.351 0.382417 482.285C0.179392 481.125 0.416028 479.931 1.0461 478.936C1.67618 477.942 2.65444 477.218 3.7898 476.906L50.4994 464.901L60.9897 462.219L66.0219 460.926C66.8537 460.679 67.7026 460.495 68.5616 460.373C69.4653 460.314 70.3648 460.541 71.133 461.02C71.8831 461.483 72.4851 462.151 72.8682 462.945C73.1678 463.711 73.3949 464.503 73.5465 465.311C73.9251 466.889 74.288 468.387 74.635 469.87C75.3449 472.851 76.039 475.707 76.6857 478.436C79.2728 489.305 81.4182 498.123 82.8222 504.275L83.327 506.436C83.5153 507.066 83.6161 507.719 83.6267 508.377C83.593 509.429 83.1975 510.437 82.5067 511.232C82.0742 511.714 81.5336 512.087 80.9292 512.32C80.7489 512.408 80.558 512.472 80.3613 512.51Z"/><path fill="#E0E0E0" d="M43.7005 489.841L53.7176 492.854L46.2087 500.331L38.6999 507.793L36.1917 497.303L33.6992 486.812L43.7005 489.841Z"/><g clip-path="url(#clip0_863_2648)"><path fill="#171717" d="M172.796 14.0219C171.908 13.8297 171.097 13.3784 170.466 12.7252C169.834 12.072 169.411 11.2462 169.249 10.3522C169.086 9.45825 169.193 8.53627 169.555 7.70286C169.917 6.86946 170.517 6.16206 171.281 5.67012C172.045 5.17818 172.938 4.9238 173.846 4.93915C174.755 4.95449 175.638 5.23888 176.385 5.75633C177.132 6.27378 177.708 7.00107 178.042 7.84622C178.375 8.69137 178.45 9.61643 178.258 10.5044C177.999 11.6945 177.279 12.7332 176.255 13.3927C175.231 14.0521 173.987 14.2784 172.796 14.0219Z"/><path fill="#171717" d="M186.893 17.1415L186.855 17.1433L186.819 17.1464C186.734 17.1515 186.648 17.1582 186.563 17.1657C184.976 17.2804 177.293 17.7536 172.191 16.649C167.451 15.6225 161.246 12.4326 159.269 11.3775C159.077 11.251 158.878 11.1355 158.673 11.0317C157.236 10.301 155.859 11.6227 155.553 13.0369C155.249 14.4376 156.364 15.3772 157.531 16.131L157.526 16.1534L164.644 20.1908C165.359 20.6587 165.501 21.0093 165.546 21.296C165.693 22.2167 165.064 23.8406 164.844 24.4072L163.597 27.9143L157.958 41.4812C157.942 41.518 157.926 41.5557 157.911 41.5944L157.87 41.6922C157.404 42.9467 158.083 44.4089 159.883 44.7988C161.455 45.1391 162.383 44.2045 163.003 42.7936C163.624 41.3827 167.984 30.6468 169.106 30.8898C170.229 31.1329 169.805 44.2665 169.805 44.2665C169.786 45.8075 170.245 47.0425 171.816 47.3827C173.622 47.7737 174.846 46.7176 174.936 45.3775C174.944 45.2648 174.947 45.1518 174.946 45.0388L175.363 30.4637L175.68 26.7554C175.799 24.5813 176.22 23.9455 176.347 23.8025C176.35 23.7992 176.353 23.7957 176.356 23.7919C176.477 23.6503 176.949 23.3765 177.944 23.2303L185.644 22.278C185.69 22.2758 185.737 22.2712 185.783 22.2644C187.17 22.0611 188.597 21.6734 188.903 20.26C189.209 18.8465 188.503 17.0713 186.893 17.1415Z"/></g><path fill="#455A64" d="M423.229 110.075V210.404C423.229 213.636 425.85 216.257 429.082 216.257H578.139C581.372 216.257 583.992 213.636 583.992 210.404V110.075C583.992 106.843 581.372 104.223 578.139 104.223L429.082 104.223C425.85 104.223 423.229 106.843 423.229 110.075Z"/><path fill="#fff" d="M434.225 107.757V212.723H568.485V107.757L434.225 107.757Z"/><path fill="#263238" d="M579.861 161.824C580.762 159.632 579.715 157.125 577.522 156.225C575.33 155.325 572.824 156.372 571.923 158.564C571.023 160.756 572.07 163.263 574.262 164.163C576.454 165.063 578.961 164.016 579.861 161.824Z"/><path fill="#263238" d="M429.65 144.291V176.251C429.646 176.487 429.549 176.712 429.381 176.877C429.213 177.042 428.986 177.135 428.751 177.135C428.516 177.135 428.292 177.042 428.126 176.876C427.96 176.71 427.867 176.486 427.867 176.251V144.291C427.865 144.174 427.887 144.057 427.93 143.948C427.973 143.839 428.038 143.74 428.12 143.656C428.203 143.573 428.301 143.506 428.409 143.461C428.517 143.415 428.633 143.392 428.751 143.392C428.989 143.392 429.218 143.487 429.387 143.655C429.555 143.824 429.65 144.053 429.65 144.291Z"/><path fill="#E0E0E0" d="M570.583 53.5854H488.27V166.234H570.583V53.5854Z"/><path fill="#407BFF" d="M549.713 67.7671H467.399V180.416H549.713V67.7671Z"/><path fill="#fff" d="M535.61 85.0722H453.297V197.721H535.61V85.0722Z"/><path fill="#263238" d="M535.658 197.689C535.658 197.689 535.658 197.5 535.658 197.137C535.658 196.774 535.658 196.222 535.658 195.56V189.392C535.658 184.013 535.658 176.172 535.547 166.266C535.547 146.437 535.405 118.326 535.295 85.0564L535.674 85.435L453.36 85.5297L453.77 85.1195V197.768L453.439 197.421L513.21 197.563H529.853H534.222C535.232 197.563 535.8 197.563 535.8 197.563H534.348H530.026L513.462 197.658L453.518 197.879H453.044V197.547C453.044 165.998 452.934 126.97 452.887 84.8987V84.4885H453.297H535.61H535.989V84.8671C535.989 118.231 535.894 146.389 535.863 166.313C535.863 176.188 535.863 183.997 535.768 189.36C535.768 192.01 535.768 194.093 535.768 195.449C535.768 196.112 535.768 196.632 535.768 197.027C535.755 197.251 535.718 197.473 535.658 197.689Z"/><path fill="#263238" d="M503.618 107.709C503.618 107.93 494.658 108.119 483.616 108.135C472.573 108.151 463.613 107.962 463.613 107.741C463.613 107.52 472.573 107.315 483.616 107.315C494.658 107.315 503.618 107.473 503.618 107.709Z"/><path fill="#263238" d="M525.262 117.474C525.262 117.711 511.458 117.9 494.437 117.916C477.416 117.931 463.629 117.742 463.629 117.521C463.629 117.3 477.416 117.095 494.437 117.095C511.458 117.095 525.262 117.253 525.262 117.474Z"/><path fill="#263238" d="M525.262 127.696C525.262 127.917 511.474 128.106 494.453 128.122C477.432 128.138 463.629 127.964 463.629 127.728C463.629 127.491 477.432 127.317 494.453 127.302C511.474 127.286 525.262 127.459 525.262 127.696Z"/><path fill="#263238" d="M525.277 137.981C525.277 138.202 511.474 138.407 494.453 138.407C477.432 138.407 463.645 138.249 463.645 138.029C463.645 137.808 477.432 137.603 494.453 137.587C511.474 137.571 525.277 137.682 525.277 137.981Z"/><path fill="#263238" d="M525.277 148.109C525.277 148.345 511.49 148.535 494.469 148.551C477.448 148.566 463.645 148.377 463.645 148.156C463.645 147.935 477.448 147.73 494.469 147.73C511.49 147.73 525.277 147.888 525.277 148.109Z"/><path fill="#263238" d="M525.293 158.331C525.293 158.552 511.49 158.741 494.469 158.757C477.447 158.773 463.66 158.599 463.66 158.363C463.66 158.126 477.447 157.952 494.469 157.937C511.49 157.921 525.293 158.094 525.293 158.331Z"/><path fill="#263238" d="M525.293 168.537C525.293 168.758 511.505 168.963 494.484 168.963C477.463 168.963 463.66 168.805 463.66 168.585C463.66 168.364 477.463 168.159 494.484 168.143C511.505 168.127 525.293 168.316 525.293 168.537Z"/><path fill="#263238" d="M496.803 178.775C496.803 178.996 489.389 179.185 480.24 179.185C471.09 179.185 463.66 179.012 463.66 178.791C463.66 178.57 471.09 178.381 480.24 178.365C485.764 178.223 491.292 178.36 496.803 178.775Z"/><path fill="#263238" d="M437.932 488.327H209.212C203.104 488.327 198.153 493.278 198.153 499.385V643.142C198.153 649.249 203.104 654.2 209.212 654.2H437.932C444.04 654.2 448.99 649.249 448.99 643.142V499.385C448.99 493.278 444.04 488.327 437.932 488.327Z"/><path fill="#263238" d="M444.92 656.44H202.223C200.316 656.442 198.428 656.068 196.667 655.34C194.905 654.611 193.304 653.542 191.956 652.194C190.608 650.846 189.539 649.245 188.81 647.483C188.082 645.722 187.708 643.834 187.71 641.927H459.433C459.433 645.776 457.904 649.468 455.182 652.189C452.461 654.911 448.769 656.44 444.92 656.44Z"/><path fill="#455A64" d="M441.56 494.905H204.889V634.986H441.56V494.905Z"/><path fill="#455A64" d="M298.845 641.927L302.221 647.291H349.687L352.811 641.927H298.845Z"/><path fill="#fff" d="M430.691 504.244H212.792V634.939H430.691V504.244Z"/><path fill="#EBEBEB" d="M323.532 520.965L325.615 559.172C325.647 559.828 325.931 560.446 326.406 560.898C326.882 561.35 327.514 561.602 328.17 561.601L396.791 562.106C397.137 562.115 397.482 562.053 397.803 561.924C398.125 561.796 398.417 561.603 398.662 561.358C398.907 561.113 399.1 560.821 399.228 560.5C399.357 560.178 399.418 559.834 399.41 559.487L399.631 529.799C399.633 529.46 399.568 529.124 399.439 528.81C399.311 528.496 399.122 528.211 398.883 527.971C398.644 527.73 398.36 527.539 398.047 527.409C397.734 527.279 397.398 527.212 397.059 527.212H354.861C354.178 527.201 353.523 526.93 353.032 526.455L345.775 519.135C345.29 518.661 344.639 518.395 343.961 518.394L326.167 518.252C325.812 518.245 325.46 518.311 325.132 518.446C324.804 518.581 324.507 518.782 324.26 519.036C324.013 519.291 323.821 519.593 323.696 519.925C323.571 520.257 323.515 520.611 323.532 520.965Z"/><path fill="#F5F5F5" d="M399.662 522.72L324.67 522.171L324.341 566.986L399.333 567.536L399.662 522.72Z"/><path fill="#EBEBEB" d="M318.674 526.155L324.053 572.928C324.085 573.324 324.265 573.693 324.557 573.962C324.85 574.231 325.233 574.38 325.631 574.379L398.7 574.915C398.915 574.928 399.13 574.897 399.333 574.823C399.535 574.75 399.72 574.636 399.877 574.488C400.034 574.34 400.159 574.162 400.244 573.964C400.329 573.766 400.372 573.553 400.372 573.338L404.395 526.644C404.412 526.422 404.384 526.198 404.314 525.987C404.244 525.775 404.132 525.58 403.985 525.413C403.838 525.245 403.659 525.109 403.458 525.011C403.258 524.914 403.04 524.858 402.817 524.846L320.33 524.246C320.085 524.228 319.84 524.268 319.613 524.361C319.386 524.455 319.185 524.6 319.024 524.786C318.863 524.971 318.748 525.191 318.687 525.429C318.626 525.667 318.622 525.915 318.674 526.155Z"/><path fill="#407BFF" d="M270.576 541.457L273.447 594.098C273.495 595 273.886 595.851 274.539 596.475C275.193 597.099 276.06 597.451 276.964 597.458L371.693 598.152C372.159 598.156 372.621 598.068 373.053 597.894C373.486 597.719 373.879 597.461 374.212 597.135C374.544 596.808 374.809 596.419 374.991 595.99C375.174 595.561 375.27 595.1 375.274 594.634L375.573 553.619C375.578 553.15 375.489 552.685 375.312 552.251C375.136 551.817 374.875 551.422 374.545 551.089C374.215 550.756 373.822 550.492 373.39 550.311C372.957 550.131 372.493 550.038 372.024 550.038H313.767C312.826 550.037 311.924 549.663 311.259 548.997L301.195 538.948C300.872 538.619 300.486 538.357 300.061 538.179C299.636 538 299.179 537.908 298.718 537.907L274.156 537.718C273.672 537.715 273.192 537.811 272.746 538C272.3 538.189 271.897 538.467 271.562 538.817C271.227 539.167 270.966 539.581 270.797 540.035C270.627 540.489 270.552 540.973 270.576 541.457Z"/><path fill="#F5F5F5" d="M375.657 543.871L272.145 543.112L271.691 604.964L375.203 605.723L375.657 543.871Z"/><path fill="#407BFF" d="M263.871 548.603L271.301 613.169C271.363 613.724 271.628 614.237 272.044 614.61C272.46 614.982 272.999 615.188 273.557 615.189L374.422 615.93C374.999 615.932 375.556 615.718 375.982 615.33C376.409 614.941 376.674 614.407 376.725 613.832L382.278 549.376C382.304 549.061 382.265 548.744 382.163 548.446C382.06 548.147 381.898 547.873 381.684 547.64C381.471 547.408 381.212 547.222 380.923 547.094C380.634 546.966 380.322 546.9 380.006 546.899L266.159 546.063C265.836 546.061 265.516 546.127 265.221 546.258C264.926 546.388 264.661 546.58 264.445 546.819C264.229 547.059 264.066 547.342 263.967 547.65C263.868 547.957 263.836 548.282 263.871 548.603Z"/><path fill="#263238" d="M341.357 569.694C341.357 569.694 341.72 569.867 342.272 570.356C343.094 571.076 343.82 571.898 344.434 572.801C346.735 576.175 347.764 580.256 347.336 584.317C346.983 587.316 346.012 590.209 344.483 592.813C342.954 595.417 340.902 597.676 338.455 599.445C335.567 601.598 332.17 602.963 328.595 603.405C324.723 603.804 320.821 603.029 317.395 601.181C313.956 599.378 311.125 596.601 309.255 593.198C307.575 589.999 306.826 586.391 307.094 582.787C307.296 579.549 308.258 576.403 309.902 573.606C311.33 571.187 313.229 569.079 315.487 567.406C318.725 564.973 322.521 563.389 326.529 562.8C327.599 562.633 328.68 562.554 329.763 562.563C330.504 562.563 330.883 562.564 330.883 562.69C330.883 562.816 329.305 562.847 326.639 563.431C322.85 564.243 319.298 565.916 316.26 568.321C314.184 569.957 312.447 571.983 311.148 574.284C309.673 576.917 308.82 579.852 308.656 582.866C308.54 585.453 308.979 588.036 309.943 590.44C310.907 592.844 312.375 595.014 314.247 596.804C316.119 598.594 318.353 599.963 320.798 600.818C323.243 601.674 325.842 601.996 328.422 601.764C331.725 601.382 334.873 600.148 337.556 598.183C339.872 596.552 341.832 594.466 343.316 592.052C344.799 589.638 345.775 586.947 346.185 584.144C346.681 580.31 345.876 576.422 343.897 573.101C342.462 570.798 341.247 569.804 341.357 569.694Z"/><path fill="#263238" d="M322.554 556.679C322.885 556.08 326.703 558.746 331.041 562.422L331.767 563.021L331.057 563.652L330.521 564.125C325.962 568.085 322.034 571.019 321.734 570.688C321.434 570.356 324.889 566.854 329.432 562.879L329.968 562.422V563.668C327.807 561.806 325.914 560.087 324.573 558.825C323.819 558.191 323.141 557.471 322.554 556.679Z"/><path fill="#263238" d="M80.093 331.666L17.1984 324.362C15.3984 324.162 13.6556 323.609 12.0697 322.734C10.4838 321.86 9.08597 320.681 7.95624 319.266C6.8265 317.85 5.98704 316.226 5.48593 314.485C4.98481 312.745 4.83189 310.923 5.0359 309.123L23.2559 151.879C23.4634 150.081 24.0237 148.341 24.9048 146.76C25.7859 145.179 26.9705 143.787 28.3905 142.664C29.8106 141.542 31.4383 140.71 33.1803 140.218C34.9223 139.726 36.7443 139.582 38.5418 139.795L101.436 147.099C105.064 147.519 108.378 149.361 110.649 152.221C112.921 155.08 113.964 158.725 113.552 162.354L95.3316 319.598C94.9084 323.218 93.0659 326.522 90.2088 328.784C87.3517 331.047 83.7135 332.083 80.093 331.666Z"/><path fill="#fff" d="M100.79 152.526L88.5957 151.106C88.1977 151.067 87.7958 151.107 87.4133 151.224C87.0308 151.341 86.6753 151.533 86.3674 151.788C86.0594 152.043 85.805 152.357 85.6188 152.711C85.4327 153.065 85.3186 153.453 85.283 153.851L85.0148 156.059C84.9792 156.458 84.8651 156.845 84.679 157.199C84.4929 157.553 84.2385 157.867 83.9305 158.122C83.6225 158.377 83.267 158.569 82.8845 158.686C82.502 158.803 82.1002 158.843 81.7021 158.804L57.9293 156.044C57.1399 155.908 56.4318 155.477 55.9485 154.838C55.4651 154.2 55.2427 153.401 55.3264 152.605L55.5788 150.396C55.6343 150 55.6109 149.597 55.5099 149.211C55.4089 148.824 55.2323 148.461 54.9903 148.143C54.7483 147.824 54.4458 147.557 54.1 147.356C53.7543 147.156 53.3723 147.025 52.9759 146.973L48.7009 146.468L38.0213 145.238C36.7582 145.091 35.4784 145.195 34.2556 145.544C33.0327 145.893 31.8909 146.48 30.8956 147.271C29.9003 148.063 29.0712 149.043 28.4559 150.156C27.8406 151.269 27.4512 152.492 27.3101 153.756L9.53179 307.167C9.25223 309.704 9.98802 312.247 11.5783 314.243C13.1686 316.238 15.4841 317.522 18.0187 317.816L80.7556 325.135C83.297 325.433 85.8527 324.71 87.8611 323.124C89.8695 321.539 91.1664 319.221 91.4668 316.68L109.277 163.221C109.422 161.962 109.317 160.686 108.969 159.467C108.621 158.248 108.036 157.109 107.248 156.116C106.46 155.123 105.484 154.294 104.376 153.678C103.268 153.062 102.049 152.671 100.79 152.526Z"/><path fill="#F5F5F5" d="M61.0977 168.846L9.10352 171.407L10.8296 206.448L62.8238 203.887L61.0977 168.846Z"/><path fill="#E0E0E0" d="M61.1 168.837C60.5475 169.511 59.9465 170.144 59.3017 170.73L54.1748 175.636C49.8209 179.753 43.7791 185.401 37.0275 191.632L36.7908 191.868L36.5858 191.616L36.1914 191.348C28.6668 185.921 21.8835 180.968 16.9933 177.356L11.2197 173.033C10.4931 172.531 9.80737 171.972 9.16895 171.361C9.95337 171.766 10.7027 172.236 11.409 172.765L17.3246 176.882C22.3095 180.369 29.14 185.243 36.6804 190.685L37.059 190.953H36.5384C43.2743 184.722 49.395 179.138 53.8909 175.179L59.1912 170.446C59.7855 169.862 60.4237 169.324 61.1 168.837Z"/><path fill="#E0E0E0" d="M10.8408 206.445C13.2976 202.531 15.9895 198.769 18.9018 195.181C21.5907 191.427 24.4983 187.835 27.6096 184.423C25.1484 188.334 22.4566 192.095 19.5486 195.686C16.8548 199.436 13.9474 203.028 10.8408 206.445Z"/><path fill="#E0E0E0" d="M44.8838 183.129C48.1736 186.296 51.271 189.657 54.1594 193.194C57.2604 196.563 60.1526 200.119 62.8199 203.842C59.5332 200.655 56.436 197.279 53.5442 193.73C50.4492 190.372 47.5573 186.832 44.8838 183.129Z"/><path fill="#407BFF" d="M41.7466 210.886L29.5254 270.635L118.175 288.768L130.396 229.019L41.7466 210.886Z"/><path fill="#263238" d="M130.399 229.018C130.085 229.25 129.753 229.456 129.405 229.634L126.503 231.306L115.712 237.269L79.8876 256.735L79.6037 256.893L79.3828 256.64L78.8622 256.009L52.4866 224.207L44.5991 214.505L42.4695 211.855C42.2066 211.553 41.9741 211.225 41.7754 210.877C42.0751 211.14 42.3497 211.431 42.5957 211.745L44.8357 214.3C46.8234 216.619 49.5682 219.869 52.9598 223.844L79.5248 255.489L80.0454 256.12L79.5406 256.009L115.46 236.764L126.345 231.053L129.326 229.476C129.668 229.289 130.027 229.136 130.399 229.018Z"/><path fill="#263238" d="M29.534 270.633C29.392 270.459 37.7212 263.629 48.1484 255.394C58.5757 247.16 67.0783 240.613 67.2992 240.787C67.52 240.96 59.0962 247.791 48.669 256.041C38.2418 264.291 29.6602 270.822 29.534 270.633Z"/><path fill="#263238" d="M96.909 246.071C97.1141 245.961 102.052 255.441 107.951 267.225C113.851 279.009 118.41 288.663 118.205 288.774C118 288.884 113.078 279.309 107.163 267.604C101.247 255.899 96.7197 246.166 96.909 246.071Z"/><path fill="#EBEBEB" d="M433.53 421.236C447.728 421.394 452.097 401.785 439.052 396.154L438.736 396.028C433.421 393.851 427.664 392.977 421.943 393.476C416.222 393.975 410.703 395.835 405.845 398.899C404.347 392.554 401.372 386.652 397.162 381.675C392.952 376.697 387.626 372.784 381.618 370.253C375.61 367.723 369.089 366.646 362.587 367.112C356.084 367.578 349.783 369.572 344.197 372.933C341.626 346.21 328.075 320.355 306.337 304.533C284.599 288.711 254.974 283.773 229.939 293.491C204.904 303.208 185.769 327.785 184.523 354.587C177.482 353.864 170.367 354.565 163.603 356.649C156.838 358.733 150.562 362.158 145.149 366.718C144.802 367.002 144.471 367.301 144.124 367.633C124.957 385.679 138.224 418.113 164.631 418.333L433.53 421.236Z"/><path fill="#E0E0E0" d="M247.859 351.542C247.171 351.597 246.478 351.538 245.809 351.369C247.168 351.158 248.551 351.158 249.91 351.369C249.241 351.538 248.548 351.597 247.859 351.542Z"/><path fill="#407BFF" d="M453.928 411.929L454.196 399.419L430.786 398.741L430.187 417.04L431.622 417.166C438.074 417.718 464.465 419.485 468.835 418.302C473.694 416.977 453.928 411.929 453.928 411.929Z"/><g opacity=".4"><path fill="#fff" d="M463.566 414.737C463.566 414.737 470.491 416.945 469.576 418.065C468.661 419.185 441.938 418.412 430.139 417.04V416.519L461.31 417.687C461.31 417.687 462.209 414.752 463.566 414.737Z"/></g><path fill="#263238" d="M429.871 416.488H430.265L431.417 416.582L435.676 416.898C439.257 417.119 444.226 417.387 449.716 417.545C455.206 417.702 460.175 417.75 463.787 417.734C460.191 417.734 455.221 417.639 449.732 417.466C444.242 417.292 439.273 417.087 435.676 416.898L431.433 416.677H430.265L429.871 416.488Z"/><path fill="#263238" d="M461.389 418.049C461.607 417.353 461.898 416.682 462.257 416.046C462.714 415.456 463.244 414.926 463.834 414.469C463.095 414.702 462.474 415.21 462.099 415.888C461.602 416.495 461.349 417.266 461.389 418.049Z"/><path fill="#263238" d="M454.622 414.342C454.622 414.342 455.032 413.995 455.379 413.475C455.726 412.954 455.978 412.481 455.915 412.434C455.852 412.386 455.505 412.781 455.142 413.317C454.779 413.853 454.527 414.311 454.622 414.342Z"/><path fill="#263238" d="M452.728 413.285C452.728 413.285 453.154 413.112 453.565 412.765C453.975 412.418 454.274 412.086 454.227 412.023C454.18 411.96 453.801 412.197 453.375 412.544C452.949 412.891 452.665 413.238 452.728 413.285Z"/><path fill="#263238" d="M451.593 411.045C451.978 411.199 452.394 411.264 452.807 411.235C453.219 411.3 453.641 411.268 454.038 411.14C453.651 410.991 453.237 410.926 452.823 410.951C452.411 410.885 451.99 410.917 451.593 411.045Z"/><path fill="#263238" d="M451.214 409.468C451.609 409.752 452.083 409.906 452.571 409.91C453.048 409.995 453.539 409.946 453.99 409.768C453.533 409.676 453.068 409.628 452.602 409.626C452.145 409.529 451.681 409.476 451.214 409.468Z"/><path fill="#263238" d="M455.441 412.323C455.963 412.422 456.498 412.422 457.019 412.323C457.553 412.265 458.081 412.159 458.596 412.008C458.918 411.926 459.23 411.81 459.527 411.661C459.704 411.558 459.838 411.396 459.906 411.203C459.93 411.092 459.924 410.975 459.888 410.867C459.852 410.759 459.787 410.662 459.701 410.588C459.134 410.289 458.481 410.196 457.854 410.326C457.226 410.455 456.664 410.799 456.262 411.298C456.015 411.585 455.837 411.925 455.741 412.292C455.71 412.426 455.71 412.567 455.741 412.702C455.895 412.239 456.136 411.811 456.451 411.44C456.806 411.057 457.259 410.779 457.76 410.635C458.359 410.455 459.005 410.517 459.559 410.809C459.795 410.998 459.685 411.266 459.417 411.424C459.146 411.567 458.861 411.678 458.565 411.755C458.051 411.923 457.523 412.044 456.987 412.118C456.009 412.292 455.441 412.276 455.441 412.323Z"/><path fill="#263238" d="M455.836 412.465C456.023 412.152 456.095 411.784 456.041 411.424C455.999 411.027 455.87 410.645 455.663 410.304C455.538 410.08 455.361 409.89 455.147 409.75C454.933 409.609 454.687 409.524 454.432 409.499C454.277 409.53 454.14 409.619 454.049 409.749C453.958 409.878 453.92 410.037 453.943 410.193C453.969 410.435 454.05 410.667 454.18 410.872C454.366 411.209 454.594 411.522 454.858 411.803C455.083 412.082 455.377 412.3 455.71 412.434C455.71 412.434 455.41 412.15 455.016 411.661C454.777 411.38 454.57 411.073 454.401 410.746C454.211 410.414 454.085 409.846 454.401 409.783C454.716 409.72 455.158 410.146 455.379 410.462C455.578 410.756 455.712 411.089 455.773 411.44C455.814 411.78 455.835 412.122 455.836 412.465Z"/><path fill="#263238" d="M430.533 410.099C430.533 410.099 431.196 410.099 432.253 410.209C433.631 410.394 434.927 410.968 435.99 411.866C437.052 412.763 437.835 413.945 438.247 415.273C438.407 415.829 438.539 416.392 438.641 416.961C438.668 416.804 438.668 416.644 438.641 416.488C438.61 416.056 438.536 415.628 438.421 415.21C438.037 413.825 437.246 412.588 436.149 411.661C435.048 410.736 433.697 410.16 432.268 410.004C431.838 409.964 431.405 409.964 430.975 410.004C430.823 410.009 430.674 410.041 430.533 410.099Z"/><path fill="#263238" d="M433.247 400.413C433.036 402.008 432.92 403.615 432.9 405.224C432.809 406.801 432.809 408.381 432.9 409.957C433.11 408.388 433.226 406.807 433.247 405.224C433.339 403.622 433.339 402.015 433.247 400.413Z"/><path fill="#263238" d="M441.686 414.894C442.796 415.196 443.942 415.345 445.093 415.336C446.242 415.431 447.398 415.373 448.532 415.163C448.532 415.163 446.954 415.163 445.109 415.052C443.263 414.942 441.701 414.816 441.686 414.894Z"/><path fill="#263238" d="M437.096 414.753C437.096 414.753 437.222 415.084 437.364 415.447C437.506 415.809 437.585 416.109 437.664 416.109C437.742 416.109 437.79 415.746 437.664 415.336C437.537 414.926 437.159 414.705 437.096 414.753Z"/><path fill="#263238" d="M435.439 412.56C435.439 412.56 435.518 412.86 435.755 413.112C435.992 413.364 436.228 413.522 436.291 413.475C436.354 413.427 436.197 413.175 435.96 412.907C435.723 412.639 435.487 412.465 435.439 412.56Z"/><path fill="#263238" d="M432.994 411.503C432.994 411.582 433.31 411.582 433.657 411.708C434.004 411.834 434.24 412.039 434.303 411.992C434.366 411.945 434.177 411.597 433.751 411.456C433.325 411.314 432.963 411.424 432.994 411.503Z"/><path fill="#263238" d="M431.243 410.982C431.243 411.061 431.338 411.172 431.527 411.266C431.716 411.361 431.906 411.345 431.937 411.266C431.969 411.187 431.827 411.061 431.638 410.982C431.448 410.903 431.275 410.888 431.243 410.982Z"/><path fill="#000" d="M430.58 409.468L453.99 409.768L454.038 406.944L430.438 407.985L430.58 409.468Z" opacity=".3"/><path fill="#407BFF" d="M429.129 411.676L429.413 399.183L405.987 398.504L405.388 416.787L406.839 416.929C413.291 417.466 439.682 419.233 444.036 418.049C448.895 416.724 429.129 411.676 429.129 411.676Z"/><g opacity=".4"><path fill="#fff" d="M438.847 414.5C438.847 414.5 445.756 416.709 444.857 417.829C443.958 418.949 417.22 418.176 405.42 416.787V416.267L436.607 417.45C436.607 417.45 437.411 414.516 438.847 414.5Z"/></g><path fill="#263238" d="M405.072 416.251H405.482L406.634 416.362L410.877 416.661C414.474 416.898 419.443 417.15 424.933 417.324C430.423 417.497 435.392 417.529 438.988 417.513H443.248H444.415C444.545 417.538 444.679 417.538 444.809 417.513H444.415H443.248H438.988C435.392 417.513 430.423 417.403 424.933 417.245C419.443 417.087 414.49 416.851 410.893 416.677L406.634 416.456H405.482L405.072 416.251Z"/><path fill="#263238" d="M436.606 417.813C436.815 417.115 437.1 416.443 437.458 415.809C437.9 415.232 438.402 414.703 438.957 414.232C438.225 414.487 437.609 414.996 437.222 415.667C436.762 416.284 436.543 417.047 436.606 417.813Z"/><path fill="#263238" d="M429.791 414.043C429.87 414.043 430.202 413.696 430.564 413.159C430.927 412.623 431.164 412.181 431.101 412.134C431.038 412.087 430.691 412.481 430.328 413.001C429.965 413.522 429.728 414.043 429.791 414.043Z"/><path fill="#263238" d="M427.931 413.049C427.931 413.049 428.357 412.875 428.767 412.528C429.177 412.181 429.477 411.834 429.429 411.771C429.382 411.708 429.003 411.96 428.593 412.307C428.183 412.654 427.883 412.986 427.931 413.049Z"/><path fill="#263238" d="M426.795 410.888C427.182 411.037 427.596 411.101 428.01 411.077C428.422 411.133 428.841 411.101 429.24 410.982C428.857 410.819 428.44 410.754 428.025 410.793C427.614 410.727 427.192 410.76 426.795 410.888Z"/><path fill="#263238" d="M426.432 409.31C426.829 409.591 427.302 409.745 427.788 409.752C428.261 409.848 428.752 409.792 429.192 409.594C428.739 409.512 428.28 409.47 427.82 409.468C427.363 409.371 426.898 409.319 426.432 409.31Z"/><path fill="#263238" d="M430.659 412.087C431.154 412.18 431.663 412.18 432.158 412.087C432.693 412.042 433.221 411.942 433.735 411.787C434.059 411.705 434.372 411.583 434.666 411.424C434.847 411.33 434.987 411.173 435.06 410.982C435.087 410.869 435.08 410.751 435.041 410.642C435.002 410.533 434.932 410.437 434.84 410.367C434.272 410.071 433.62 409.98 432.994 410.109C432.367 410.239 431.804 410.58 431.401 411.077C431.164 411.371 430.987 411.709 430.88 412.071C430.849 412.2 430.849 412.336 430.88 412.465C431.06 412.012 431.304 411.587 431.606 411.203C431.955 410.817 432.41 410.542 432.915 410.414C433.211 410.322 433.523 410.289 433.832 410.319C434.141 410.349 434.44 410.44 434.713 410.588C434.934 410.761 434.84 411.045 434.571 411.203C434.293 411.339 434.002 411.45 433.704 411.534C433.186 411.687 432.659 411.809 432.126 411.897C431.227 412.055 430.659 412.039 430.659 412.087Z"/><path fill="#263238" d="M431.038 412.165C431.038 412.165 431.291 411.818 431.243 411.14C431.206 410.742 431.077 410.359 430.865 410.02C430.74 409.796 430.563 409.606 430.349 409.466C430.134 409.325 429.889 409.24 429.634 409.215C429.48 409.243 429.343 409.329 429.252 409.455C429.161 409.582 429.122 409.739 429.145 409.894C429.18 410.133 429.261 410.363 429.382 410.572C429.569 410.913 429.803 411.226 430.076 411.503C430.3 411.781 430.587 412.002 430.912 412.15C430.912 412.15 430.628 411.866 430.218 411.377C429.989 411.091 429.789 410.785 429.618 410.462C429.429 410.13 429.303 409.562 429.618 409.499C429.934 409.436 430.36 409.862 430.581 410.162C430.785 410.461 430.924 410.8 430.991 411.156C431.043 411.49 431.058 411.828 431.038 412.165Z"/><path fill="#263238" d="M405.719 409.846C405.719 409.846 406.397 409.846 407.454 409.957C408.83 410.153 410.123 410.734 411.183 411.633C412.244 412.532 413.029 413.711 413.448 415.036C413.764 416.046 413.78 416.724 413.843 416.724C413.868 416.568 413.868 416.408 413.843 416.251C413.814 415.819 413.74 415.39 413.622 414.973C413.229 413.589 412.44 412.349 411.35 411.408C410.242 410.51 408.891 409.961 407.47 409.831C407.04 409.784 406.606 409.784 406.176 409.831L405.719 409.846Z"/><path fill="#263238" d="M408.448 400.176C408.247 401.773 408.136 403.379 408.117 404.988C408.014 406.59 408.014 408.197 408.117 409.799C408.32 408.203 408.436 406.597 408.464 404.988C408.557 403.385 408.552 401.778 408.448 400.176Z"/><path fill="#263238" d="M416.903 414.658C418.017 414.944 419.161 415.092 420.311 415.1C421.46 415.185 422.615 415.127 423.75 414.926C423.75 414.831 422.172 414.926 420.327 414.816C418.481 414.705 416.919 414.579 416.903 414.658Z"/><path fill="#263238" d="M412.313 414.516C412.313 414.516 412.424 414.847 412.566 415.194C412.708 415.541 412.803 415.872 412.881 415.857C412.96 415.841 413.008 415.494 412.881 415.084C412.755 414.674 412.361 414.453 412.313 414.516Z"/><path fill="#263238" d="M410.641 412.307C410.641 412.307 410.735 412.607 410.972 412.859C411.209 413.112 411.445 413.285 411.492 413.222C411.54 413.159 411.414 412.923 411.177 412.67C410.94 412.418 410.704 412.26 410.641 412.307Z"/><path fill="#263238" d="M408.196 411.25C408.196 411.25 408.527 411.345 408.858 411.471C409.19 411.597 409.442 411.787 409.505 411.739C409.568 411.692 409.379 411.361 408.969 411.203C408.559 411.045 408.18 411.187 408.196 411.25Z"/><path fill="#263238" d="M406.445 410.746C406.445 410.746 406.556 410.935 406.745 411.014C406.934 411.093 407.108 411.108 407.139 411.014C407.171 410.919 407.045 410.825 406.855 410.746C406.666 410.667 406.477 410.667 406.445 410.746Z"/><path fill="#000" d="M405.798 409.231L429.193 409.515L429.24 406.707L405.641 407.733L405.798 409.231Z" opacity=".3"/><path fill="#263238" d="M311.069 365.14L443.579 287.323C446.447 285.639 449.64 284.583 452.947 284.224C456.253 283.865 459.598 284.211 462.761 285.24C466.947 286.533 470.764 288.806 473.894 291.871C477.025 294.936 479.379 298.704 480.76 302.861C482.684 308.794 482.75 315.173 480.95 321.144L458.439 408.159L418.276 409.074L440.361 335.594L374.642 380.363C369.611 383.999 363.854 386.506 357.765 387.711C351.676 388.916 345.398 388.792 339.361 387.346C333.324 385.901 327.671 383.168 322.788 379.336C317.905 375.503 313.908 370.661 311.069 365.14Z"/><path fill="#455A64" d="M289.489 364.147L421.92 286.392C424.788 284.707 427.981 283.652 431.289 283.295C434.596 282.939 437.941 283.29 441.102 284.325C445.287 285.614 449.104 287.884 452.235 290.947C455.366 294.009 457.72 297.774 459.101 301.93C461.025 307.863 461.091 314.242 459.291 320.213L436.59 407.938L396.633 408.159L418.717 334.663L353.078 379.432C348.044 383.069 342.283 385.574 336.19 386.776C330.098 387.978 323.817 387.849 317.779 386.397C311.741 384.945 306.088 382.205 301.208 378.365C296.328 374.524 292.336 369.674 289.505 364.147H289.489Z"/><path fill="#407BFF" d="M358.016 284.956C358.016 284.956 361.392 321.034 358.016 324.488L350.049 328.59L332.208 316.506L358.016 284.956Z"/><path fill="#000" d="M358.016 284.956C358.016 284.956 361.392 321.034 358.016 324.488L350.049 328.59L332.208 316.506L358.016 284.956Z" opacity=".4"/><path fill="#407BFF" d="M299.207 239.13C304.255 238.373 260.779 234.035 259.312 270.349C257.845 306.663 289.49 365.14 289.49 365.14L350.05 328.542C350.05 328.542 335.521 318.336 333.155 311.506C330.962 304.912 335.048 243.153 299.207 239.13Z"/><path fill="#407BFF" d="M270.97 246.292C269.124 246.749 255.195 259.259 255.085 284.231C254.943 304.076 256.473 348.135 270.023 354.682C276.16 357.647 283.574 356.606 291.667 351.369C314.461 336.635 356.754 290.146 356.754 290.146L338.676 270.901C338.676 270.901 291.745 318.636 289.774 316.885C286.761 314.25 287.218 289.452 284.663 266.91C282.801 250.898 282.438 243.437 270.97 246.292Z"/><path fill="#263238" d="M338.013 309.928C338.013 309.928 338.013 310.054 337.792 310.259L337.082 311.143C336.451 311.931 335.505 313.067 334.243 314.503C331.734 317.39 328.027 321.491 323.2 326.318C317.545 331.974 311.55 337.279 305.248 342.204C301.52 345.116 297.627 347.813 293.591 350.28C289.288 353.051 284.585 355.142 279.646 356.48C278.35 356.79 277.017 356.912 275.686 356.843C275.01 356.815 274.341 356.693 273.698 356.48C273.077 356.263 272.476 355.994 271.9 355.675C269.654 354.455 267.683 352.785 266.111 350.769C263.248 346.942 261.163 342.59 259.974 337.96C258.852 333.82 258.04 329.601 257.545 325.34C257.009 321.365 256.567 317.658 256.22 314.298C255.51 307.499 255.21 301.977 255.116 298.16C255.116 296.251 255.116 294.768 255.116 293.775C255.116 293.317 255.116 292.938 255.116 292.623C255.071 292.611 255.032 292.584 255.006 292.546C254.98 292.508 254.969 292.462 254.975 292.416C254.981 292.37 255.003 292.328 255.038 292.298C255.072 292.267 255.117 292.25 255.163 292.25C255.209 292.25 255.253 292.267 255.288 292.298C255.323 292.328 255.345 292.37 255.351 292.416C255.357 292.462 255.345 292.508 255.32 292.546C255.294 292.584 255.255 292.611 255.21 292.623V293.775C255.21 294.831 255.321 296.299 255.415 298.16C255.605 301.962 255.983 307.467 256.756 314.235C257.151 317.61 257.624 321.318 258.192 325.277C258.714 329.496 259.541 333.672 260.668 337.771C261.848 342.296 263.895 346.55 266.694 350.296C269.66 353.956 274.314 357.332 279.441 355.707C284.29 354.384 288.911 352.336 293.149 349.634C297.161 347.188 301.033 344.518 304.744 341.636C311.05 336.732 317.065 331.465 322.758 325.861C327.633 321.128 331.403 317.074 333.974 314.25L336.924 311.001L337.697 310.165L338.013 309.928Z"/><path fill="#263238" d="M338.676 270.901C338.418 271.259 338.133 271.596 337.824 271.911C337.24 272.557 336.404 273.488 335.268 274.718C333.013 277.132 329.684 280.571 325.472 284.767C321.26 288.963 316.165 293.917 310.407 299.359L301.305 307.877C298.071 310.796 294.837 313.856 291.177 316.806L290.578 317.295V316.49C290.468 314.739 290.357 312.878 290.247 310.985C289.695 301.126 289.142 291.724 288.669 283.174C288.385 278.899 288.338 274.829 287.912 271.074C287.597 267.584 286.667 264.177 285.167 261.01C283.926 258.408 282.042 256.166 279.693 254.495C277.891 253.276 275.816 252.523 273.651 252.302C272.28 252.154 270.893 252.272 269.566 252.649C268.651 252.902 268.209 253.138 268.193 253.091C268.605 252.83 269.051 252.628 269.518 252.492C270.853 252.046 272.263 251.869 273.667 251.971C275.917 252.144 278.088 252.882 279.977 254.116C282.431 255.793 284.409 258.075 285.719 260.742C287.292 263.959 288.275 267.432 288.622 270.996C289.079 274.797 289.158 278.883 289.458 283.142C289.979 291.692 290.531 301.078 291.035 310.953C291.146 312.831 291.256 314.708 291.367 316.459L290.72 316.143C294.254 313.288 297.566 310.181 300.784 307.294L309.918 298.823C315.707 293.412 320.834 288.506 325.094 284.373C329.353 280.24 332.744 276.848 335.063 274.498L337.729 271.8C338.015 271.471 338.332 271.17 338.676 270.901Z"/><path fill="#263238" d="M349.781 297.655C348.723 296.889 347.755 296.005 346.895 295.021C345.191 293.317 342.888 290.935 340.364 288.269C337.84 285.603 335.631 283.142 334.054 281.344C333.137 280.435 332.308 279.442 331.577 278.378C332.631 279.15 333.599 280.033 334.464 281.013C336.152 282.701 338.471 285.098 340.979 287.764C343.487 290.43 345.711 292.875 347.289 294.69C348.219 295.59 349.055 296.584 349.781 297.655Z"/><path fill="#263238" d="M286.634 327.675C286.816 325.607 287.35 323.585 288.211 321.696C288.802 319.716 289.743 317.856 290.988 316.206C290.489 318.191 289.819 320.128 288.984 321.996C288.376 323.957 287.589 325.858 286.634 327.675Z"/><path fill="#263238" d="M282.58 324.488C285.221 321.339 288.278 318.564 291.666 316.238C290.438 317.884 289.007 319.368 287.407 320.655C285.975 322.14 284.351 323.429 282.58 324.488Z"/><path fill="#263238" d="M337.698 276.438C337.777 276.533 337.43 276.88 337.509 277.495C337.522 277.651 337.576 277.802 337.664 277.932C337.753 278.061 337.873 278.166 338.014 278.236C338.173 278.332 338.356 278.383 338.542 278.383C338.728 278.383 338.911 278.332 339.071 278.236C339.207 278.11 339.308 277.951 339.364 277.774C339.419 277.596 339.427 277.408 339.386 277.227C339.351 277.072 339.276 276.929 339.168 276.812C339.06 276.696 338.923 276.61 338.771 276.564C338.203 276.343 337.777 276.564 337.714 276.485C337.651 276.406 337.998 275.87 338.913 275.996C339.183 276.045 339.436 276.164 339.646 276.342C339.857 276.519 340.017 276.748 340.112 277.006C340.221 277.336 340.228 277.692 340.133 278.027C340.037 278.362 339.843 278.66 339.575 278.883C339.298 279.09 338.964 279.208 338.617 279.223C338.271 279.237 337.929 279.146 337.635 278.962C337.404 278.81 337.217 278.601 337.093 278.355C336.968 278.108 336.91 277.834 336.925 277.558C337.036 276.564 337.667 276.343 337.698 276.438Z"/><g opacity=".4"><path fill="#000" d="M286.066 355.076C296.73 352.818 306.665 347.942 314.973 340.886C323.282 333.831 329.704 324.818 333.659 314.661C319.288 329.694 304.523 345.027 285.972 354.429"/></g><g opacity=".4"><path fill="#000" d="M288.07 267.525C290.626 278.242 293.187 288.947 295.753 299.643C296.706 302.701 297.033 305.92 296.715 309.108C296.531 310.698 295.884 312.198 294.855 313.424C293.826 314.649 292.46 315.546 290.925 316.001L287.771 267.841"/></g><path fill="#263238" d="M268.477 210.136C266.373 209.029 264.013 208.499 261.637 208.6C259.262 208.702 256.956 209.431 254.954 210.713C252.951 211.996 251.325 213.786 250.239 215.901C249.154 218.016 248.648 220.382 248.774 222.756C248.963 226.305 250.509 230.075 248.932 233.278C246.897 237.411 240.35 238.862 240.177 243.468C240.066 246.623 243.221 249.021 243.442 252.129C243.631 254.763 241.723 257.003 240.508 259.338C239.005 262.572 238.643 266.219 239.479 269.686C240.316 273.152 242.302 276.233 245.114 278.426C248.036 280.479 251.521 281.581 255.092 281.581C258.663 281.581 262.148 280.479 265.07 278.426C267.927 276.26 270.125 273.343 271.421 270C272.716 266.658 273.057 263.021 272.405 259.496C271.679 255.583 269.786 251.782 270.307 247.838C270.839 245.821 271.234 243.771 271.49 241.702C271.49 235.644 263.997 232.031 262.877 226.069C262.715 224.827 262.833 223.565 263.222 222.374C263.611 221.184 264.261 220.096 265.124 219.189C265.987 218.281 267.042 217.579 268.212 217.131C269.381 216.684 270.636 216.504 271.884 216.604"/><path fill="#CC8B75" d="M306.874 241.638C307.063 236.906 307.315 232.726 307.315 232.726C307.315 232.726 317.774 231.4 318.232 220.721C318.689 210.041 317.617 185.464 317.617 185.464L298.45 176.22L280.183 193.194L280.892 241.922C281.12 245.319 282.669 248.491 285.208 250.759C287.747 253.027 291.074 254.209 294.475 254.053C297.717 253.903 300.787 252.546 303.081 250.25C305.375 247.953 306.728 244.881 306.874 241.638Z"/><path fill="#263238" d="M300.027 202.737C300.027 203.002 299.949 203.261 299.803 203.481C299.656 203.701 299.447 203.873 299.203 203.975C298.959 204.077 298.69 204.104 298.431 204.054C298.171 204.003 297.932 203.877 297.744 203.691C297.556 203.505 297.427 203.268 297.373 203.009C297.32 202.75 297.344 202.48 297.443 202.235C297.542 201.99 297.712 201.779 297.93 201.63C298.149 201.481 298.406 201.4 298.671 201.397C299.028 201.397 299.371 201.537 299.625 201.788C299.879 202.039 300.023 202.38 300.027 202.737Z"/><path fill="#263238" d="M301.227 202.185C301.069 202.375 300.059 201.539 298.639 201.475C297.22 201.412 296.131 202.154 295.989 201.949C295.847 201.744 296.084 201.539 296.541 201.207C297.16 200.765 297.912 200.548 298.671 200.592C299.431 200.62 300.159 200.903 300.738 201.397C301.163 201.775 301.321 202.106 301.227 202.185Z"/><path fill="#263238" d="M306.622 214.521C307.378 214.289 308.165 214.167 308.956 214.158C309.319 214.158 309.666 214.064 309.729 213.811C309.772 213.404 309.695 212.993 309.508 212.628L308.467 209.6C307.495 207.035 306.725 204.397 306.164 201.712C307.313 204.204 308.277 206.777 309.051 209.41L310.045 212.455C310.272 212.948 310.328 213.504 310.202 214.032C310.158 214.168 310.079 214.29 309.975 214.386C309.87 214.483 309.742 214.551 309.603 214.584C309.397 214.639 309.185 214.665 308.972 214.663C308.186 214.714 307.396 214.666 306.622 214.521Z"/><path fill="#B26752" d="M307.315 232.726C302.354 232.596 297.539 231.017 293.465 228.182C293.465 228.182 296.73 235.975 307.142 235.344L307.315 232.726Z"/><path fill="#263238" d="M266.411 203.432C266.411 212.676 263.729 224.807 280.608 228.182L282.186 206.098C282.186 206.098 297.251 201.744 299.223 183.066L299.317 183.161C300.374 185.574 302.236 190.764 301.1 194.992L316.37 198.762L318.137 200.34C319.628 196.474 319.943 192.253 319.042 188.208C318.141 184.163 316.064 180.475 313.073 177.608C302.583 166.786 293.623 174.627 287.991 173.948C284.568 173.538 274.109 173.238 268.32 190.401C267.352 193.331 266.779 196.376 266.616 199.456L266.411 203.432Z"/><path fill="#CC8B75" d="M282.217 206.161C280.277 204.031 277.248 205.861 276.112 207.091C275.213 208.069 274.656 209.313 274.524 210.635C274.393 211.957 274.693 213.286 275.382 214.423C276.07 215.559 277.108 216.441 278.341 216.937C279.574 217.433 280.934 217.515 282.217 217.171"/><path fill="#B26752" d="M280.276 213.969C280.276 214.08 279.803 214.19 279.03 213.969C278.51 213.848 278.028 213.6 277.626 213.248C277.224 212.896 276.915 212.45 276.727 211.95C276.515 211.358 276.543 210.707 276.806 210.136C277.009 209.693 277.338 209.32 277.753 209.063C278.447 208.621 278.967 208.685 278.983 208.779C278.999 208.874 278.589 209.063 278.115 209.521C277.812 209.781 277.592 210.124 277.482 210.509C277.373 210.893 277.379 211.301 277.5 211.682C277.659 212.072 277.894 212.427 278.192 212.725C278.49 213.023 278.845 213.258 279.235 213.417C279.851 213.701 280.292 213.859 280.276 213.969Z"/><path fill="#407BFF" d="M278.889 216.083C278.597 216.14 278.336 216.304 278.157 216.543C277.979 216.781 277.896 217.078 277.924 217.375C277.953 217.671 278.091 217.947 278.312 218.147C278.532 218.348 278.82 218.459 279.118 218.459C279.416 218.459 279.703 218.348 279.924 218.147C280.145 217.947 280.283 217.671 280.311 217.375C280.34 217.078 280.257 216.781 280.078 216.543C279.9 216.304 279.639 216.14 279.347 216.083"/><path fill="#407BFF" d="M267.752 218.733C266.847 217.308 266.306 215.683 266.174 214.001C265.814 212.351 265.874 210.637 266.348 209.016C266.685 210.622 266.901 212.252 266.995 213.89C267.38 215.481 267.634 217.101 267.752 218.733Z"/><path fill="#263238" d="M340.821 273.598L369.358 239.13L371.772 241.433L343.566 276.17L340.821 273.598Z"/><path fill="#CC8B75" d="M343.109 271.832C343.109 271.832 347.589 259.07 348.599 256.356C349.608 253.643 351.328 248.895 352.022 248.784C352.716 248.674 355.177 249.005 352.164 257.114C349.151 265.222 356.171 260.127 356.171 260.127L362.37 253.028C362.37 253.028 368.585 269.592 365.525 274.624C362.339 279.469 358.84 284.101 355.051 288.49L341.405 273.867L343.109 271.832Z"/><path fill="#B26752" d="M304.618 215.799C304.184 215.834 303.765 215.978 303.401 216.218C303.037 216.458 302.739 216.786 302.536 217.171C302.347 217.563 302.262 217.997 302.289 218.431C302.317 218.864 302.456 219.284 302.694 219.648C302.935 220.011 303.268 220.303 303.658 220.497C304.049 220.691 304.483 220.779 304.918 220.752C305.434 220.731 305.924 220.517 306.29 220.153C306.558 219.809 306.74 219.407 306.822 218.979C306.904 218.552 306.884 218.11 306.764 217.692C306.684 217.17 306.454 216.682 306.101 216.288C305.923 216.099 305.693 215.968 305.44 215.912C305.186 215.856 304.922 215.877 304.681 215.973"/><path fill="#263238" d="M307.316 218.623C307.316 218.844 305.738 219.159 303.971 218.244C302.205 217.329 301.51 215.815 301.715 215.72C301.921 215.626 302.804 216.746 304.35 217.519C305.896 218.292 307.316 218.434 307.316 218.623Z"/><path fill="#263238" d="M315.202 202.659C315.208 202.836 315.179 203.013 315.117 203.179C315.054 203.345 314.959 203.497 314.838 203.626C314.716 203.755 314.57 203.859 314.407 203.931C314.245 204.003 314.07 204.043 313.893 204.047C313.536 204.047 313.193 203.906 312.939 203.655C312.685 203.404 312.54 203.063 312.536 202.706C312.516 202.519 312.535 202.329 312.593 202.15C312.65 201.971 312.745 201.806 312.871 201.665C312.997 201.525 313.151 201.413 313.323 201.336C313.495 201.259 313.681 201.22 313.869 201.22C314.058 201.22 314.244 201.259 314.416 201.336C314.588 201.413 314.742 201.525 314.867 201.665C314.993 201.806 315.088 201.971 315.146 202.15C315.203 202.329 315.223 202.519 315.202 202.706V202.659Z"/><path fill="#263238" d="M316.496 202.043C316.323 202.233 315.329 201.397 313.893 201.334C312.458 201.27 311.401 202.012 311.243 201.807C311.085 201.602 311.338 201.397 311.811 201.065C312.425 200.625 313.171 200.408 313.925 200.45C314.685 200.478 315.413 200.761 315.991 201.255C316.433 201.633 316.575 201.964 316.496 202.043Z"/><path fill="#263238" d="M300.169 197.532C300.169 197.768 298.813 197.689 297.267 197.989C295.721 198.289 294.522 198.841 294.396 198.652C294.269 198.462 295.374 197.516 297.109 197.185C298.844 196.853 300.216 197.327 300.169 197.532Z"/><path fill="#EBEBEB" d="M383.965 386.31C376.33 381.808 367.391 380.034 358.615 381.278C349.839 382.522 341.746 386.71 335.662 393.157C333.48 389.688 330.563 386.74 327.118 384.52C323.673 382.3 319.783 380.863 315.722 380.31C311.661 379.756 307.528 380.1 303.614 381.316C299.701 382.533 296.101 384.593 293.07 387.351C291.493 375.71 285.987 364.273 276.506 357.379C267.026 350.485 253.428 348.798 243.379 354.871L229.182 390.522L280.024 411.14L347.32 416.062L383.965 386.31Z"/><path fill="#E0E0E0" d="M243.316 354.823C243.206 354.666 244.642 353.246 247.938 351.905C252.726 350.032 257.931 349.487 263.004 350.328C266.566 350.855 270.022 351.947 273.241 353.562C276.973 355.476 280.337 358.034 283.18 361.118C289.669 368.393 293.79 377.472 294.995 387.146L291.635 385.932C295.808 382.132 300.961 379.575 306.511 378.549C312.635 377.392 318.969 378.221 324.589 380.915C329.786 383.4 334.165 387.319 337.209 392.21L334.227 391.91C339.41 386.57 345.957 382.751 353.157 380.868C358.753 379.426 364.598 379.243 370.273 380.332C373.919 381.013 377.433 382.269 380.685 384.054C382.925 385.301 383.966 386.231 383.839 386.389C383.713 386.547 382.483 386.026 380.148 385.159C376.837 383.907 373.39 383.049 369.879 382.603C364.544 381.949 359.131 382.4 353.978 383.928C347.455 385.899 341.567 389.555 336.909 394.529L335.332 396.296L333.991 394.229C331.244 390.024 327.368 386.678 322.806 384.575C317.944 382.289 312.483 381.599 307.205 382.603C302.41 383.494 297.949 385.676 294.301 388.913L291.43 391.5L290.941 387.683C289.902 378.77 286.265 370.361 280.482 363.5C277.994 360.624 275.026 358.201 271.711 356.338C268.826 354.741 265.714 353.592 262.483 352.931C257.787 351.923 252.918 352.058 248.286 353.325C245.146 354.177 243.474 355.092 243.316 354.823Z"/><path fill="#407BFF" d="M224.497 147.557C225.515 148.136 226.368 148.967 226.973 149.97C228.831 152.639 229.67 155.885 229.34 159.12C229.065 161.51 228.297 163.817 227.083 165.895C225.869 167.972 224.236 169.775 222.288 171.188C219.983 172.915 217.262 174.003 214.401 174.342C211.31 174.666 208.193 174.05 205.456 172.576C202.705 171.137 200.443 168.914 198.957 166.187C197.617 163.631 197.021 160.751 197.238 157.873C197.403 155.295 198.176 152.792 199.494 150.57C200.628 148.64 202.141 146.961 203.942 145.632C206.507 143.718 209.513 142.482 212.681 142.035C213.821 141.801 214.996 141.801 216.136 142.035C216.136 142.177 214.921 142.209 212.808 142.682C209.834 143.355 207.051 144.693 204.668 146.594C203.035 147.89 201.678 149.499 200.677 151.327C199.519 153.386 198.86 155.687 198.752 158.047C198.588 160.631 199.133 163.212 200.33 165.509C201.699 167.927 203.733 169.902 206.191 171.199C208.648 172.497 211.427 173.062 214.196 172.828C216.777 172.522 219.237 171.561 221.342 170.036C223.162 168.752 224.703 167.111 225.869 165.212C227.035 163.314 227.803 161.198 228.125 158.993C228.523 155.987 227.907 152.934 226.374 150.317C225.333 148.472 224.386 147.667 224.497 147.557Z"/><path fill="#407BFF" d="M209.652 137.287C209.952 136.735 213.028 138.786 216.467 141.688L217.193 142.288L216.467 142.919L216.041 143.297C212.444 146.452 209.289 148.677 208.99 148.345C208.69 148.014 211.372 145.19 214.968 142.035L215.394 141.673V142.903C213.261 141.27 211.333 139.384 209.652 137.287Z"/><path fill="#263238" d="M255.494 193.588C255.494 193.588 255.053 193.509 254.106 193.288L249.831 192.294C246.077 191.427 240.366 190.149 233.299 188.398H233.662C227.919 192.094 221.261 194.12 214.432 194.25C210.388 194.284 206.362 193.704 202.491 192.531C198.26 191.203 194.305 189.118 190.817 186.379C186.929 183.364 183.674 179.612 181.238 175.338C178.802 171.064 177.233 166.352 176.62 161.47C175.976 156.173 176.449 150.799 178.008 145.695C179.674 140.418 182.48 135.571 186.227 131.498C191.308 125.939 197.952 122.047 205.286 120.333C212.62 118.618 220.301 119.162 227.32 121.892C234.339 124.622 240.369 129.41 244.617 135.629C248.866 141.848 251.134 149.206 251.125 156.738C251.142 163.545 249.269 170.224 245.714 176.03V175.573C248.948 181.41 251.393 186.016 253.018 189.076C253.822 190.559 254.437 191.711 254.863 192.515C255.078 192.883 255.273 193.262 255.447 193.651C255.447 193.651 255.147 193.194 254.674 192.389C254.201 191.585 253.475 190.401 252.576 188.903C250.762 185.858 248.143 181.552 244.941 176.015L244.815 175.794L244.941 175.573C248.085 170.261 249.814 164.232 249.965 158.062C250.115 151.891 248.681 145.785 245.8 140.327C242.919 134.868 238.687 130.239 233.507 126.882C228.328 123.524 222.374 121.551 216.215 121.149C210.861 120.792 205.496 121.643 200.515 123.639C195.535 125.635 191.066 128.725 187.441 132.681C184.09 136.326 181.528 140.623 179.916 145.305C178.304 149.986 177.677 154.95 178.074 159.885C178.471 164.821 179.883 169.621 182.223 173.984C184.562 178.348 187.778 182.181 191.669 185.243C195.008 187.898 198.796 189.934 202.853 191.253C206.583 192.411 210.464 193.006 214.369 193.02C220.998 192.964 227.485 191.092 233.126 187.609L233.299 187.499H233.488C240.303 189.297 245.698 190.843 249.5 191.9L253.87 193.115C254.911 193.399 255.463 193.556 255.494 193.588Z"/><path fill="#263238" d="M182.836 523.3C182.024 523.186 181.226 522.991 180.453 522.716C179.665 522.479 178.702 522.227 177.582 521.864L173.733 520.508C165.604 517.46 157.764 513.69 150.308 509.244C145.575 506.452 140.527 503.155 135.29 499.385C130.053 495.615 124.642 491.277 119.231 486.418C113.567 481.343 108.165 475.983 103.046 470.359C97.5854 464.295 92.4513 457.944 87.6654 451.335C82.9215 444.682 78.5402 437.778 74.5406 430.654C70.866 423.997 67.5434 417.151 64.5867 410.146C56.231 390.246 51.1592 369.123 49.5689 347.599C49.4427 344.554 49.3481 342.188 49.285 340.531C49.2227 339.712 49.2227 338.89 49.285 338.07C49.475 338.873 49.586 339.692 49.6163 340.516C49.7425 342.172 49.9475 344.522 50.1999 347.535C51.0933 356.123 52.4625 364.655 54.3014 373.091C57.048 385.587 60.9616 397.798 65.9906 409.562C68.9863 416.481 72.335 423.242 76.0235 429.817C83.9702 443.969 93.4616 457.195 104.324 469.255C109.593 475.092 114.988 480.408 120.319 485.266C125.651 490.125 131.046 494.384 136.173 498.249C141.3 502.114 146.317 505.379 150.986 508.203C158.338 512.715 166.046 516.619 174.033 519.877L177.819 521.375L180.627 522.369C181.387 522.618 182.126 522.93 182.836 523.3Z"/><path fill="#263238" d="M169.206 526.896C169.206 526.455 176.163 524.972 184.981 523.584L184.476 524.909L184.192 524.562C178.434 517.463 174.033 511.468 174.396 511.184C174.759 510.901 179.696 516.422 185.438 523.536L185.707 523.868L186.622 524.988L185.202 525.193C176.415 526.581 169.269 527.322 169.206 526.896Z"/><path fill="#263238" d="M550.502 250.677C550.502 250.677 550.628 250.898 550.786 251.356C550.943 251.813 551.149 252.523 551.433 253.391C551.716 254.258 552.048 255.41 552.411 256.735C552.773 258.06 553.12 259.622 553.531 261.357C555.708 271.213 557.007 281.243 557.411 291.329C557.711 297.734 557.679 304.754 557.411 312.278C557.143 319.803 556.275 327.817 554.982 336.193C553.688 344.57 551.937 353.278 549.618 362.206C547.164 371.397 544.231 380.454 540.832 389.339C537.364 398.198 533.426 406.866 529.032 415.304C526.808 419.343 524.694 423.35 522.344 427.12C519.993 430.89 517.69 434.55 515.355 438.083C506.962 450.551 497.379 462.173 486.74 472.788C479.572 479.912 471.959 486.572 463.945 492.728L457.256 497.46L455.489 498.675C455.079 498.943 454.874 499.069 454.858 499.038C455.013 498.845 455.193 498.675 455.395 498.533L457.051 497.192L463.55 492.16C471.379 485.831 478.847 479.069 485.919 471.905C496.372 461.236 505.809 449.618 514.109 437.2C516.412 433.667 518.841 430.086 521.003 426.252C523.164 422.419 525.404 418.523 527.597 414.516C531.93 406.157 535.817 397.574 539.239 388.803C542.613 379.976 545.535 370.983 547.994 361.859C550.328 352.994 552.064 344.333 553.42 336.02C554.777 327.706 555.487 319.74 555.991 312.263C556.496 304.785 556.481 297.813 556.244 291.44C555.952 281.375 554.839 271.351 552.915 261.467C552.553 259.716 552.221 258.17 551.937 256.83C551.653 255.489 551.338 254.384 551.117 253.454C550.896 252.523 550.738 251.876 550.628 251.371C550.56 251.146 550.518 250.913 550.502 250.677Z"/><path fill="#263238" d="M562.696 261.704C562.364 262.004 556.496 256.041 549.492 248.295L550.88 247.996L550.722 248.469C547.473 258.628 544.412 266.752 544.034 266.61C543.655 266.468 545.895 258.139 549.161 247.98L549.318 247.491L549.76 246.134L550.707 247.191C557.695 254.952 563.027 261.404 562.696 261.704Z"/><path fill="#263238" d="M438.689 84.8829C438.405 84.7411 438.136 84.5721 437.885 84.3781L435.692 82.7691L432.111 80.0873C430.691 79.0304 428.956 78.005 427.016 76.7273C416.06 69.817 404.432 64.0349 392.311 59.4695C384.644 56.5669 376.11 53.6801 366.803 51.1088C362.149 49.8468 357.338 48.5848 352.29 47.4963C349.782 46.9284 347.226 46.3921 344.639 45.9188C343.345 45.6664 342.036 45.4298 340.727 45.2247L336.704 44.7199C313.395 41.3418 289.72 41.3418 266.411 44.7199C243.058 48.0592 220.253 54.4886 198.595 63.8391C180.907 71.4682 164.132 81.0617 148.588 92.4391L143.856 96.0516C142.278 97.2189 140.701 98.3231 139.36 99.5694L131.472 106.353L129.642 107.93L127.986 109.508L124.831 112.552L119.357 117.9L112.274 125.787L110.397 127.822C110.193 128.06 109.966 128.277 109.719 128.469C109.874 128.197 110.059 127.943 110.271 127.712L112.022 125.582L118.884 117.49L124.279 112.032L127.434 108.877L129.011 107.299L130.826 105.722L138.713 98.8122C140.085 97.5344 141.631 96.4144 143.177 95.2313C144.723 94.0481 146.332 92.8177 147.91 91.5557C163.426 80.0103 180.215 70.282 197.948 62.5614C219.671 53.08 242.572 46.5644 266.032 43.1898C289.491 39.7532 313.325 39.7532 336.783 43.1898L340.821 43.7103C342.146 43.9312 343.472 44.1678 344.781 44.436C347.384 44.9408 349.955 45.4929 352.463 46.0135C357.511 47.1493 362.354 48.427 367.024 49.7364C376.362 52.3708 384.912 55.3365 392.595 58.3179C404.769 62.9912 416.404 68.9623 427.3 76.1278C429.193 77.4529 430.944 78.5256 432.332 79.6299L435.834 82.4378L437.963 84.1888C438.228 84.3956 438.471 84.6281 438.689 84.8829Z"/><path fill="#263238" d="M110.224 112.032C110.665 112.032 109.924 120.44 108.536 130.788L107.416 129.92L107.873 129.731C117.733 125.645 125.872 122.68 126.046 123.09C126.22 123.5 118.364 127.16 108.504 131.245L108.047 131.435L106.722 131.987L106.911 130.567C108.315 120.219 109.782 111.984 110.224 112.032Z"/><defs><clipPath id="clip0_863_2648"><rect width="42" height="42" fill="#fff" transform="translate(154.217 0.598389) rotate(12.2178)"/></clipPath></defs></svg>