<svg width="1220" height="884" viewBox="0 0 1220 884" fill="none" xmlns="http://www.w3.org/2000/svg">
<path d="M1219.51 773.148H0V773.758H1219.51V773.148Z" fill="#EBEBEB"/>
<path d="M1097.32 812.393H1016.54V813.002H1097.32V812.393Z" fill="#EBEBEB"/>
<path d="M807.854 819.026H786.659V819.636H807.854V819.026Z" fill="#EBEBEB"/>
<path d="M1014.1 789.758H967.292V790.368H1014.1V789.758Z" fill="#EBEBEB"/>
<path d="M233.293 793.855H127.951V794.465H233.293V793.855Z" fill="#EBEBEB"/>
<path d="M270.463 793.855H255.024V794.465H270.463V793.855Z" fill="#EBEBEB"/>
<path d="M549.146 804.148H320.659V804.758H549.146V804.148Z" fill="#EBEBEB"/>
<path d="M1075.24 82.2918C1082.53 51.4174 1063.41 20.4814 1032.53 13.1944C1001.66 5.9074 970.722 25.0287 963.435 55.9031C956.148 86.7775 975.269 117.713 1006.14 125C1037.02 132.287 1067.95 113.166 1075.24 82.2918Z" fill="#E0E0E0"/>
<path d="M1067.65 76.9493C1071.97 50.3168 1053.88 25.2223 1027.25 20.8992C1000.62 16.5762 975.524 34.6616 971.201 61.2941C966.878 87.9267 984.963 113.021 1011.6 117.344C1038.23 121.667 1063.32 103.582 1067.65 76.9493Z" fill="#F0F0F0"/>
<path d="M1017.07 35.5874V69.7337L994.439 56.9289" fill="#F0F0F0"/>
<path d="M1017.07 35.5874V69.7337L994.439 56.9289" stroke="#E0E0E0" stroke-width="2" stroke-linecap="round" stroke-linejoin="round"/>
<path d="M1034.78 500.782C1034.78 500.782 1038.61 475.417 1020.15 459.173C1001.68 442.929 1003.27 433.221 1008.56 431.978C1013.85 430.734 1018.73 446.978 1026.85 451.49C1026.85 451.49 1027.12 428.319 1018.85 419.782C1010.59 411.246 1006.27 389.246 1014.12 388.88C1021.98 388.514 1022.78 401.929 1024.41 411.465C1026.05 421.002 1034.8 434.417 1034.8 434.417C1034.8 434.417 1036.51 413.685 1041.85 405.148C1047.19 396.612 1032.95 377.1 1038.44 368.563C1043.93 360.026 1053.68 376.295 1052.88 394.587C1052.07 412.88 1039.85 432.392 1042.71 451.49C1042.71 451.49 1048.1 438.075 1052.93 436.856C1057.76 435.636 1062.68 426.758 1065.88 423.465C1069.07 420.173 1073.19 431.563 1065.88 442.148C1058.56 452.734 1039.85 480.978 1042.71 503.831L1034.78 500.782Z" fill="#E6E6E6"/>
<path d="M1023.71 489.246L1017.66 527.246C1017.22 530.006 1017.38 532.828 1018.14 535.518C1018.89 538.209 1020.22 540.703 1022.04 542.829C1023.85 544.956 1026.1 546.663 1028.64 547.834C1031.18 549.005 1033.94 549.612 1036.73 549.612H1043.2C1045.99 549.615 1048.76 549.011 1051.3 547.842C1053.84 546.672 1056.09 544.965 1057.91 542.839C1059.72 540.712 1061.06 538.216 1061.81 535.524C1062.57 532.832 1062.73 530.008 1062.29 527.246L1056.24 489.246H1023.71Z" fill="#E6E6E6"/>
<path d="M1048.88 553.978H1034.78V775.392H1048.88V553.978Z" fill="#E0E0E0"/>
<path d="M998.829 553.978H984.731V775.392H998.829V553.978Z" fill="#E6E6E6"/>
<path d="M1098.9 553.978H1084.8V775.392H1098.9V553.978Z" fill="#E6E6E6"/>
<path d="M1107.27 539.831H976.366V563.392H1107.27V539.831Z" fill="#E6E6E6"/>
<path d="M609.756 883.295C870.933 883.295 1082.66 870.933 1082.66 855.685C1082.66 840.436 870.933 828.075 609.756 828.075C348.579 828.075 136.854 840.436 136.854 855.685C136.854 870.933 348.579 883.295 609.756 883.295Z" fill="#F5F5F5"/>
<path d="M853.658 761.245V491.685H826.829V761.245L809.756 766.489V774.611H870.731V766.489L853.658 761.245Z" fill="#2E353A"/>
<path d="M512.195 491.685H485.366V761.245L468.292 766.489V774.611H529.268V766.489L512.195 761.245V491.685Z" fill="#2E353A"/>
<g opacity="0.2">
<path d="M853.658 523.392H826.829V761.246L809.756 766.49V774.612H870.731V766.49L853.658 761.246V523.392Z" fill="white"/>
<path d="M512.195 523.392H485.366V761.246L468.292 766.49V774.612H529.268V766.49L512.195 761.246V523.392Z" fill="white"/>
</g>
<path d="M936.585 501.441V67.2944L402.439 67.2944V501.441L936.585 501.441Z" fill="#2E353A"/>
<path opacity="0.2" d="M936.585 501.441V67.2944L402.439 67.2944V501.441L936.585 501.441Z" fill="white"/>
<path d="M924.707 79.3433H414.317V489.148H924.707V79.3433Z" fill="#407BFF"/>
<path opacity="0.3" d="M924.707 79.3433H414.317V489.148H924.707V79.3433Z" fill="white"/>
<path d="M471.951 116.075V227.05H648.805L471.951 116.075Z" stroke="#263238" stroke-miterlimit="10"/>
<path d="M480.829 227.343V218.27H471.756" stroke="#263238" stroke-width="0.793303" stroke-miterlimit="10"/>
<path d="M561.387 142.098C561.06 142.098 560.743 142.02 560.435 141.864C560.131 141.706 559.918 141.473 559.797 141.165L560.007 141.012L559.845 142.002H559.083V134.863H559.94V138.252L559.759 138.118C559.918 137.861 560.145 137.652 560.44 137.49C560.735 137.325 561.051 137.243 561.387 137.243C561.822 137.243 562.196 137.357 562.51 137.585C562.825 137.811 563.066 138.109 563.234 138.48C563.405 138.848 563.491 139.245 563.491 139.67C563.491 140.124 563.397 140.535 563.21 140.903C563.023 141.268 562.771 141.558 562.453 141.774C562.136 141.99 561.781 142.098 561.387 142.098ZM561.282 141.336C561.555 141.336 561.792 141.261 561.992 141.112C562.192 140.96 562.345 140.759 562.453 140.508C562.561 140.254 562.615 139.975 562.615 139.67C562.615 139.353 562.561 139.069 562.453 138.818C562.345 138.567 562.192 138.369 561.992 138.223C561.792 138.077 561.555 138.004 561.282 138.004C561.038 138.004 560.81 138.066 560.597 138.19C560.388 138.31 560.218 138.494 560.088 138.742C559.958 138.986 559.893 139.296 559.893 139.67C559.893 140.06 559.958 140.378 560.088 140.622C560.218 140.866 560.388 141.047 560.597 141.165C560.81 141.279 561.038 141.336 561.282 141.336Z" fill="#263238"/>
<path d="M475.606 309.683C475.28 309.683 474.962 309.605 474.654 309.45C474.35 309.291 474.137 309.058 474.017 308.75L474.226 308.598L474.064 309.588H473.303V302.448H474.159V305.837L473.979 305.704C474.137 305.447 474.364 305.237 474.659 305.076C474.954 304.911 475.27 304.828 475.606 304.828C476.041 304.828 476.416 304.942 476.73 305.171C477.044 305.396 477.285 305.694 477.453 306.066C477.625 306.434 477.71 306.83 477.71 307.256C477.71 307.709 477.617 308.12 477.429 308.488C477.242 308.853 476.99 309.144 476.673 309.359C476.355 309.575 476 309.683 475.606 309.683ZM475.502 308.922C475.775 308.922 476.011 308.847 476.211 308.698C476.411 308.545 476.565 308.344 476.673 308.093C476.78 307.839 476.834 307.56 476.834 307.256C476.834 306.938 476.78 306.654 476.673 306.404C476.565 306.153 476.411 305.955 476.211 305.809C476.011 305.663 475.775 305.59 475.502 305.59C475.257 305.59 475.029 305.652 474.816 305.775C474.607 305.896 474.437 306.08 474.307 306.327C474.177 306.572 474.112 306.881 474.112 307.256C474.112 307.646 474.177 307.963 474.307 308.208C474.437 308.452 474.607 308.633 474.816 308.75C475.029 308.864 475.257 308.922 475.502 308.922Z" fill="#263238"/>
<path d="M536.894 235.585C536.367 235.585 535.924 235.479 535.566 235.267C535.21 235.051 534.94 234.762 534.756 234.4C534.575 234.035 534.485 233.631 534.485 233.186C534.485 232.723 534.572 232.306 534.747 231.935C534.925 231.563 535.196 231.27 535.561 231.054C535.926 230.838 536.392 230.73 536.96 230.73C537.204 230.73 537.435 230.756 537.65 230.807C537.869 230.854 538.064 230.921 538.236 231.006L538.103 231.759C537.928 231.676 537.742 231.611 537.546 231.563C537.352 231.516 537.151 231.492 536.941 231.492C536.427 231.492 536.035 231.638 535.765 231.93C535.496 232.222 535.361 232.628 535.361 233.148C535.361 233.656 535.489 234.064 535.746 234.372C536.003 234.679 536.395 234.833 536.922 234.833C537.138 234.833 537.344 234.808 537.541 234.757C537.741 234.706 537.931 234.637 538.112 234.548L538.226 235.233C538.099 235.322 537.914 235.403 537.669 235.476C537.425 235.549 537.166 235.585 536.894 235.585Z" fill="#263238"/>
<path d="M475.454 343.756C474.927 343.756 474.485 343.65 474.126 343.437C473.771 343.222 473.501 342.933 473.317 342.571C473.136 342.206 473.046 341.802 473.046 341.357C473.046 340.894 473.133 340.477 473.307 340.106C473.485 339.734 473.756 339.441 474.121 339.225C474.486 339.009 474.953 338.901 475.521 338.901C475.765 338.901 475.995 338.927 476.211 338.977C476.43 339.025 476.625 339.092 476.796 339.177L476.663 339.929C476.489 339.847 476.303 339.782 476.106 339.734C475.913 339.687 475.711 339.663 475.502 339.663C474.988 339.663 474.596 339.809 474.326 340.101C474.056 340.393 473.921 340.799 473.921 341.319C473.921 341.827 474.05 342.235 474.307 342.543C474.564 342.85 474.956 343.004 475.483 343.004C475.698 343.004 475.905 342.979 476.101 342.928C476.301 342.877 476.492 342.808 476.673 342.719L476.787 343.404C476.66 343.493 476.474 343.574 476.23 343.647C475.986 343.72 475.727 343.756 475.454 343.756Z" fill="#263238"/>
<path d="M453.958 168.537C453.67 168.537 453.417 168.478 453.202 168.361C452.986 168.244 452.818 168.083 452.697 167.88C452.58 167.677 452.521 167.446 452.521 167.185C452.521 166.922 452.578 166.697 452.692 166.509C452.81 166.319 452.965 166.162 453.159 166.038C453.356 165.911 453.574 165.811 453.816 165.738C454.057 165.662 454.306 165.608 454.563 165.576C454.823 165.542 455.072 165.523 455.31 165.519C455.31 165.075 455.223 164.785 455.048 164.648C454.874 164.512 454.622 164.444 454.292 164.444C454.117 164.444 453.93 164.471 453.73 164.525C453.533 164.579 453.311 164.691 453.064 164.863L452.94 164.168C453.127 164.025 453.36 163.909 453.64 163.82C453.919 163.728 454.212 163.682 454.52 163.682C454.914 163.682 455.231 163.752 455.472 163.892C455.713 164.028 455.889 164.26 456 164.586C456.111 164.913 456.167 165.358 456.167 165.919V166.871C456.167 167.093 456.176 167.277 456.196 167.423C456.218 167.566 456.265 167.674 456.338 167.747C456.414 167.817 456.535 167.852 456.7 167.852H456.786L456.652 168.537H456.586C456.31 168.537 456.096 168.51 455.943 168.456C455.794 168.402 455.68 168.324 455.601 168.223C455.521 168.121 455.45 167.998 455.386 167.852C455.212 168.055 455.006 168.22 454.768 168.347C454.53 168.474 454.26 168.537 453.958 168.537ZM454.12 167.852C454.349 167.852 454.569 167.795 454.782 167.68C454.998 167.566 455.174 167.414 455.31 167.223V166.11C454.856 166.125 454.488 166.17 454.206 166.243C453.927 166.316 453.722 166.425 453.592 166.571C453.462 166.717 453.397 166.906 453.397 167.138C453.397 167.388 453.463 167.571 453.597 167.685C453.733 167.796 453.908 167.852 454.12 167.852Z" fill="#263238"/>
<path d="M474.397 275.585C474.109 275.585 473.856 275.527 473.641 275.409C473.425 275.292 473.257 275.132 473.136 274.929C473.019 274.725 472.96 274.494 472.96 274.234C472.96 273.97 473.017 273.745 473.131 273.558C473.249 273.367 473.404 273.21 473.598 273.087C473.794 272.96 474.013 272.86 474.255 272.787C474.496 272.71 474.745 272.657 475.002 272.625C475.262 272.59 475.511 272.571 475.749 272.568C475.749 272.123 475.662 271.833 475.487 271.697C475.313 271.56 475.061 271.492 474.731 271.492C474.556 271.492 474.369 271.519 474.169 271.573C473.972 271.627 473.75 271.739 473.503 271.911L473.379 271.216C473.566 271.073 473.799 270.957 474.078 270.868C474.358 270.776 474.651 270.73 474.959 270.73C475.353 270.73 475.67 270.8 475.911 270.94C476.152 271.076 476.328 271.308 476.439 271.635C476.55 271.962 476.606 272.406 476.606 272.968V273.919C476.606 274.142 476.615 274.326 476.634 274.472C476.657 274.614 476.704 274.722 476.777 274.795C476.853 274.865 476.974 274.9 477.139 274.9H477.225L477.091 275.585H477.025C476.749 275.585 476.535 275.558 476.382 275.505C476.233 275.451 476.119 275.373 476.04 275.271C475.96 275.17 475.889 275.046 475.825 274.9C475.651 275.103 475.445 275.268 475.207 275.395C474.969 275.522 474.699 275.585 474.397 275.585ZM474.559 274.9C474.788 274.9 475.008 274.843 475.221 274.729C475.437 274.614 475.613 274.462 475.749 274.272V273.158C475.295 273.174 474.927 273.218 474.645 273.291C474.366 273.364 474.161 273.474 474.031 273.62C473.901 273.766 473.836 273.954 473.836 274.186C473.836 274.437 473.902 274.619 474.036 274.733C474.172 274.844 474.347 274.9 474.559 274.9Z" fill="#263238"/>
<path d="M690.244 117.294H787.805" stroke="#263238" stroke-miterlimit="10"/>
<path d="M690.244 136.807H743.902" stroke="#263238" stroke-miterlimit="10"/>
<path d="M690.244 151.441H765.853" stroke="#263238" stroke-miterlimit="10"/>
<path d="M690.244 168.514H753.658" stroke="#263238" stroke-miterlimit="10"/>
<path d="M690.244 188.026H785.366" stroke="#263238" stroke-miterlimit="10"/>
<path d="M690.244 205.099H782.927" stroke="#263238" stroke-miterlimit="10"/>
<path d="M690.244 222.172H753.658" stroke="#263238" stroke-miterlimit="10"/>
<path d="M800 370.953H865.854" stroke="#263238" stroke-miterlimit="10"/>
<path d="M800 390.465H836.585" stroke="#263238" stroke-miterlimit="10"/>
<path d="M800 405.099H851.22" stroke="#263238" stroke-miterlimit="10"/>
<path d="M800 422.172H843.902" stroke="#263238" stroke-miterlimit="10"/>
<path d="M465.854 402.66H531.707" stroke="#263238" stroke-miterlimit="10"/>
<path d="M465.854 422.172H502.439" stroke="#263238" stroke-miterlimit="10"/>
<path d="M465.854 436.807H517.073" stroke="#263238" stroke-miterlimit="10"/>
<path d="M465.854 453.88H509.756" stroke="#263238" stroke-miterlimit="10"/>
<path d="M819.512 151.441H882.927" stroke="#263238" stroke-miterlimit="10"/>
<path d="M819.512 168.514H882.927" stroke="#263238" stroke-miterlimit="10"/>
<path d="M819.512 185.587H863.415" stroke="#263238" stroke-miterlimit="10"/>
<path d="M631.707 402.66H695.122" stroke="#263238" stroke-miterlimit="10"/>
<path d="M631.707 419.733H695.122" stroke="#263238" stroke-miterlimit="10"/>
<path d="M631.707 436.807H675.609" stroke="#263238" stroke-miterlimit="10"/>
<path d="M512.195 290.465H653.659" stroke="#263238" stroke-miterlimit="10"/>
<path d="M512.195 322.172H653.659" stroke="#263238" stroke-miterlimit="10"/>
<path d="M512.195 353.88H653.659" stroke="#263238" stroke-miterlimit="10"/>
<path d="M747.488 371.099C772.071 371.099 792 351.17 792 326.587C792 302.003 772.071 282.075 747.488 282.075C722.904 282.075 702.976 302.003 702.976 326.587C702.976 351.17 722.904 371.099 747.488 371.099Z" stroke="#263238" stroke-width="0.793303" stroke-miterlimit="10"/>
<path d="M747.561 281.929V327.051H792.683" stroke="#263238" stroke-miterlimit="10"/>
<path opacity="0.6" d="M924.707 79.3433H414.317V489.148H924.707V79.3433Z" fill="white"/>
<path d="M732.342 300.514L694.683 278.563C688.68 279.011 682.644 278.733 676.707 277.734C666.951 276.051 664.854 275.953 666.024 268.27C667.195 260.587 665.561 250.343 668.463 249.27C671.366 248.197 691.903 256.856 695.463 262.734L733.463 276.319L732.342 300.514Z" fill="#FFB573"/>
<path d="M843.903 263.319V307.222C843.903 307.222 834.537 310.319 822.903 313.563C809.561 317.271 793.244 321.173 784.756 320.88C768.903 320.1 715.244 292.246 715.244 292.246L725 273.661C725 273.661 783.537 293.612 790.854 292.173C798.171 290.734 843.903 263.319 843.903 263.319Z" fill="#407BFF"/>
<path opacity="0.2" d="M843.902 284.709V307.246C843.902 307.246 834.536 310.344 822.902 313.588C827.195 300.514 837.902 289.856 843.902 284.709Z" fill="black"/>
<path d="M853.659 419.587C853.659 419.587 827.22 560.465 820.171 618.319C810.951 693.783 773.269 804.173 773.269 804.173L788.342 808.075C788.342 808.075 841.464 714.27 851.756 629.856C893.951 543.587 897.342 437.343 897.342 437.343L853.659 419.587Z" fill="#FFB573"/>
<path d="M745.317 838.319C747.752 837.198 750.373 836.537 753.049 836.368C753.049 836.368 762.317 830.904 771.512 809.733H781.829C783.573 809.758 785.267 810.315 786.684 811.331C788.101 812.347 789.173 813.773 789.756 815.416C789.926 815.879 790.024 816.364 790.049 816.855C789.942 819.308 789.681 821.752 789.268 824.172C787.739 832.416 785.719 840.56 783.219 848.563L781.463 848.099L784.658 832.709C785.707 827.465 780.219 832.514 777.658 837.807C775.097 843.099 771.195 848.392 759.805 845.782C746.512 842.636 741.146 840.709 745.317 838.319Z" fill="#2E353A"/>
<path d="M881.195 417.344C881.195 417.344 884.488 560.636 889.561 618.71C896.147 694.441 882.098 810.246 882.098 810.246L897.659 810.929C897.659 810.929 930.22 708.173 922.903 623.441C946.342 530.295 927.781 425.661 927.781 425.661L881.195 417.344Z" fill="#FFB573"/>
<path d="M857.902 843.05C860.206 841.665 862.744 840.714 865.39 840.246C865.39 840.246 874.024 833.831 880.854 811.782L891.122 810.611C892.868 810.445 894.622 810.825 896.143 811.699C897.663 812.573 898.875 813.897 899.61 815.49C899.828 815.927 899.977 816.396 900.049 816.88C900.207 819.373 900.207 821.874 900.049 824.368C899.425 832.696 898.301 840.979 896.683 849.172L894.878 848.904L896.39 833.246C896.878 827.929 891.951 833.563 889.976 839.075C888 844.587 884.707 850.294 873.073 848.953C859.561 847.197 854.024 845.88 857.902 843.05Z" fill="#2E353A"/>
<path d="M933.732 173.587C933.732 173.587 941.463 174.002 947.976 186.709C954.488 199.417 946.341 213.539 944.707 220.295C943.073 227.051 934.951 233.026 948.366 243.246C961.78 253.466 969.829 264.319 958.951 275.368C948.073 286.417 960.024 294.88 944.317 303.075C928.61 311.27 870.732 299.002 863.415 283.148C856.097 267.295 864.927 255.246 865.39 250.514C865.854 245.783 856.097 240.929 853.658 225.441C851.219 209.953 863.707 206.636 865.39 199.563C867.073 192.49 859.244 183.563 865.39 168.514C871.536 153.466 932.902 150.222 933.732 173.587Z" fill="#2E353A"/>
<path d="M972.683 384.587C963.439 385.782 952.756 367.734 945.024 350.904C938.414 336.636 933.805 323.221 933.805 323.221L938.683 309.465L951.414 273.563C951.414 273.563 960.317 285.978 973.707 333.246C975.854 340.856 978.439 349.368 980.805 358.88C980.787 361.284 981.529 363.632 982.927 365.587C982.927 372.734 983.78 383.148 972.683 384.587Z" fill="#407BFF"/>
<path opacity="0.2" d="M944.854 350.904C938.269 336.636 933.732 323.221 933.732 323.221L938.61 309.465C942.025 318.978 947.025 336.221 944.854 350.904Z" fill="black"/>
<path opacity="0.2" d="M982.927 365.588C978.049 368.807 972.951 368.758 970.098 362.88C964.317 351.002 969.903 339.246 973.854 333.222C976.025 340.831 978.512 349.344 980.878 358.856C980.8 361.264 981.52 363.631 982.927 365.588Z" fill="black"/>
<path d="M837.415 379.904C837.415 379.904 886.195 397.368 932.683 394.124C932.683 394.124 928.463 336.563 904.073 326.319C879.683 316.075 837.415 330.709 837.415 379.904Z" fill="#407BFF"/>
<path opacity="0.2" d="M837.415 379.904C837.415 379.904 886.195 397.368 932.683 394.124C932.683 394.124 928.463 336.563 904.073 326.319C879.683 316.075 837.415 330.709 837.415 379.904Z" fill="black"/>
<path d="M844.317 384.002L924.805 390.953C925.588 371.001 928.458 351.186 933.366 331.831C935.293 324.124 937.707 315.514 940.805 305.563C942.463 300.246 944.293 294.539 946.341 288.49C947.878 283.831 949.537 278.88 951.366 273.661C940.436 270.171 929.269 267.473 917.951 265.588C906.007 263.466 893.928 262.195 881.805 261.783C866.146 261.783 848.146 263.417 848.146 263.417C848.146 263.417 845.585 264.027 843.976 280.636C842.537 296.124 841.098 327.295 844.317 384.002Z" fill="#407BFF"/>
<path d="M844.707 396.075L925.195 402.71C926.464 382.71 927.415 355.685 933.439 331.831C935.366 324.124 937.781 315.514 940.878 305.563C942.537 300.246 944.366 294.539 946.415 288.49C947.951 283.831 949.61 278.88 951.439 273.661C940.509 270.171 929.342 267.473 918.025 265.588C906.081 263.466 894.002 262.195 881.878 261.783C866.22 261.783 848.22 263.417 848.22 263.417C848.22 263.417 845.659 264.027 844.049 280.636C842.537 296.124 841.464 339.368 844.707 396.075Z" fill="#2E353A"/>
<path d="M888.464 279.49C908.317 277.051 914.268 268.465 914.268 268.465C901.683 256.587 912.147 236.002 912.147 236.002L888.268 240.465C888.829 243.795 889.139 247.162 889.195 250.539C889.39 265.026 882.829 265.173 882.829 265.173C878.634 273.002 888.464 279.49 888.464 279.49Z" fill="#FFB573"/>
<path opacity="0.2" d="M888.269 240.466C888.829 243.796 889.139 247.163 889.195 250.539C905.317 250.539 912.147 235.905 912.147 235.905L888.269 240.466Z" fill="black"/>
<path d="M901.463 173.661C880.707 172.539 873.415 183.295 870.732 204.587C867.366 231.222 872.244 250.539 898.512 246.246C934.146 240.466 935.951 175.563 901.463 173.661Z" fill="#FFB573"/>
<path d="M884.195 204.173C882.368 207.183 880.181 209.959 877.683 212.441C878.247 213.334 879.047 214.054 879.993 214.523C880.939 214.992 881.997 215.192 883.049 215.1L884.195 204.173Z" fill="#ED893E"/>
<path d="M897 203.173C897 204.88 897.683 206.319 898.829 206.417C899.976 206.514 900.976 205.197 901.122 203.49C901.268 201.782 900.439 200.343 899.293 200.246C898.146 200.148 897.146 201.441 897 203.173Z" fill="#2E353A"/>
<path d="M899.781 200.368L896.171 198.612C896.171 198.612 897.781 201.88 899.781 200.368Z" fill="#2E353A"/>
<path d="M875.854 201.148C875.732 202.856 876.536 204.319 877.683 204.392C878.829 204.465 879.829 203.173 879.975 201.465C880.122 199.758 879.292 198.319 878.171 198.221C877.049 198.124 876 199.441 875.854 201.148Z" fill="#2E353A"/>
<path d="M878.634 198.344L875.024 196.612C875.024 196.612 876.634 199.88 878.634 198.344Z" fill="#2E353A"/>
<path d="M898 188.831C899.652 188.72 901.307 188.99 902.838 189.62C904.369 190.251 905.734 191.224 906.829 192.466" stroke="#2E353A" stroke-width="0.72468" stroke-linecap="round" stroke-linejoin="round"/>
<path d="M882.927 187.148C881.528 186.715 880.05 186.601 878.602 186.817C877.154 187.032 875.773 187.57 874.561 188.392" stroke="#2E353A" stroke-width="0.72468" stroke-linecap="round" stroke-linejoin="round"/>
<path d="M885.61 223.392C886.463 225.778 887.14 228.224 887.634 230.71C888.089 230.734 888.545 230.734 889 230.71C895.073 230.441 897.781 228.271 898.976 226.027C899.528 224.897 899.796 223.649 899.756 222.392C899.776 221.684 899.685 220.976 899.488 220.295C895.859 222.149 891.876 223.205 887.805 223.392C886.415 223.392 885.61 223.392 885.61 223.392Z" fill="#2E353A"/>
<path d="M887.805 223.393L888.464 225.539C894.195 225.271 898.22 224.295 899.878 222.49C899.898 221.781 899.807 221.074 899.61 220.393C895.937 222.23 891.91 223.253 887.805 223.393Z" fill="white"/>
<path d="M889 230.709C895.073 230.441 897.78 228.27 898.976 226.026C896.669 226.171 894.406 226.724 892.293 227.661C890.903 228.307 889.751 229.373 889 230.709Z" fill="#DE5753"/>
<path d="M922.244 209.904C922.244 209.904 913.463 192.319 915.658 179.221C915.658 179.221 875.439 160.173 871.122 201.807C871.122 201.807 869.122 164.514 904.854 165.636C940.585 166.758 937.585 218.978 918.293 233.514C918.293 233.514 927.658 220.953 922.244 209.904Z" fill="#2E353A"/>
<path d="M918.61 214.1C918.772 212.914 919.166 211.772 919.77 210.739C920.374 209.705 921.176 208.802 922.13 208.079C923.083 207.356 924.171 206.829 925.329 206.527C926.487 206.225 927.693 206.154 928.878 206.319C935.268 207.368 937.61 220.734 921.561 223.051C919.098 223.392 917.927 220.953 918.61 214.1Z" fill="#FFB573"/>
<path d="M932.683 270.661C932.683 270.661 909.366 289.563 887.805 289.246C866.244 288.929 858.537 264.563 858.537 264.563C858.537 264.563 892.024 254.588 932.683 270.661Z" fill="#FFB573"/>
<path d="M930.683 267.1C930.683 267.1 892.439 335.587 932.683 394.124C932.683 394.124 938.146 321.905 951.39 273.563L930.683 267.1Z" fill="#407BFF"/>
<path d="M860.512 261.685C860.512 261.685 860.171 310.148 853.195 328.148C846.22 346.148 837.366 379.905 837.366 379.905C837.366 379.905 830.634 299.173 843.854 263.319L860.512 261.685Z" fill="#407BFF"/>
<path d="M915.658 179.222C915.658 179.222 900.195 173.88 886.585 179.222C872.975 184.563 876.683 198.734 869.78 201.319" stroke="#2E353A" stroke-width="0.5" stroke-linecap="round" stroke-linejoin="round"/>
<path d="M1038.41 252.953L1032.02 249.295L1008.54 255.709L976.829 247.49L969.512 271.563C969.512 271.563 968 298.392 969.512 298.709C971.025 299.026 1005.81 300.831 1005.81 300.831L1023.49 289.563L1038.41 252.953Z" fill="#E0E0E0"/>
<path d="M968.293 249.295L954.269 304.832L997.561 309.685L1027.44 301.441L1042.68 249.295L1008.54 258.149L968.293 249.295Z" fill="#407BFF"/>
<path opacity="0.4" d="M1008.54 258.149L997.561 309.685L954.269 304.832L968.293 249.295L1008.54 258.149Z" fill="white"/>
<path opacity="0.2" d="M1008.54 258.149L997.561 309.685L1027.44 301.441L1042.68 249.295L1008.54 258.149Z" fill="white"/>
<path d="M970.537 359.978L990.659 321.344C989.929 315.366 989.929 309.321 990.659 303.344C991.878 293.588 991.878 291.417 999.585 292.222C1007.29 293.027 1017.49 290.929 1018.71 293.783C1019.93 296.636 1012.2 317.539 1006.51 321.368L994.683 359.978H970.537Z" fill="#FFB573"/>
<path d="M964.024 381.197C976.829 392.1 991.463 382.734 999.585 351.441L974.39 348.197L964.024 381.197Z" fill="#407BFF"/>
<path d="M975.683 341.319L970.537 350.393L1002.44 354.685V345.344L975.683 341.319Z" fill="#2E353A"/>
<path d="M713.951 294.49L722.78 300.051L728.561 268.392L719.219 267.953L713.951 294.49Z" fill="#2E353A"/>
<path d="M844.707 396.075L793.976 694.124C793.976 694.124 916.756 708.758 958.366 700.222C958.366 700.222 968.585 486.856 925.146 402.661L844.707 396.075Z" fill="#407BFF"/>
<path opacity="0.4" d="M844.707 396.075L793.976 694.124C793.976 694.124 916.756 708.758 958.366 700.222C958.366 700.222 968.585 486.856 925.146 402.661L844.707 396.075Z" fill="white"/>
<path d="M679.976 265.051L667.342 252.002C659.805 244.124 649.561 233.807 639.39 223.441L624.342 208.319L611.195 195.124L601.903 185.807C600.781 184.685 599.878 183.807 599.293 183.197C599.038 183.057 598.756 182.972 598.467 182.947C598.177 182.922 597.885 182.957 597.61 183.051L601.049 179.587C600.955 179.863 600.92 180.155 600.945 180.444C600.97 180.734 601.056 181.015 601.195 181.27L603.829 183.88L613.195 193.124L626.415 206.222L641.634 221.197C652.049 231.319 662.415 241.514 670.317 249.026L683.439 261.587L679.976 265.051Z" fill="#2E353A"/>
<path d="M773.366 804.173C773.366 804.173 760.488 831.149 753.049 836.368C753.049 836.368 763 842.295 773.366 829.051C786.781 811.978 790.049 816.856 790.049 816.856C789.783 813.91 789.244 810.995 788.439 808.149C786.415 802.563 773.366 804.173 773.366 804.173Z" fill="#FFB573"/>
<path d="M883.683 803.88C883.683 803.88 880.024 813.88 875.146 824.856C872.912 830.542 869.599 835.744 865.39 840.173C865.39 840.173 873.878 842.929 878.439 837.612C883 832.294 890.829 813.221 899.61 815.319C899.143 813.757 898.488 812.258 897.658 810.855C896.341 808.758 883.683 803.88 883.683 803.88Z" fill="#FFB573"/>
<path d="M474.439 850.222L476.439 547.173H456.61L458.585 850.222H474.439Z" fill="#407BFF"/>
<path opacity="0.5" d="M458.585 850.222H474.464L476.049 608.1L476.439 547.783H456.61L457 608.1L458.585 850.222Z" fill="white"/>
<path opacity="0.2" d="M476.439 547.783L476.049 608.758H457L456.61 547.783H476.439Z" fill="black"/>
<path d="M628.464 850.222L610.659 547.173H590.83L612.61 850.222H628.464Z" fill="#407BFF"/>
<path opacity="0.5" d="M612.586 850.222H628.464L611.732 565.758L610.659 547.783H590.83L592.147 565.758L612.586 850.222Z" fill="white"/>
<path opacity="0.2" d="M611.732 564.856H592.147L590.83 547.783H610.659L611.732 564.856Z" fill="black"/>
<path d="M320.439 850.222L342.195 547.173H322.366L304.561 850.222H320.439Z" fill="#407BFF"/>
<path opacity="0.3" d="M320.439 850.222L340.878 565.758L342.195 547.783H322.366L321.293 565.758L304.561 850.222H320.439Z" fill="white"/>
<path opacity="0.2" d="M322.366 547.783H342.195L340.878 564.856H321.293L322.366 547.783Z" fill="black"/>
<path d="M306.659 537.832H626.366V551.271C626.366 551.962 626.23 552.647 625.965 553.287C625.7 553.926 625.312 554.507 624.823 554.996C624.334 555.485 623.753 555.873 623.114 556.138C622.475 556.403 621.789 556.539 621.098 556.539H311.927C311.235 556.539 310.55 556.403 309.911 556.138C309.272 555.873 308.691 555.485 308.202 554.996C307.713 554.507 307.324 553.926 307.06 553.287C306.795 552.647 306.659 551.962 306.659 551.271V537.832Z" fill="#407BFF"/>
<path opacity="0.4" d="M306.659 537.832H626.366V551.271C626.366 551.962 626.23 552.647 625.965 553.287C625.7 553.926 625.312 554.507 624.823 554.996C624.334 555.485 623.753 555.873 623.114 556.138C622.475 556.403 621.789 556.539 621.098 556.539H311.927C311.235 556.539 310.55 556.403 309.911 556.138C309.272 555.873 308.691 555.485 308.202 554.996C307.713 554.507 307.324 553.926 307.06 553.287C306.795 552.647 306.659 551.962 306.659 551.271V537.832Z" fill="white"/>
<path opacity="0.2" d="M626.366 537.832H306.659V547.197H626.366V537.832Z" fill="black"/>
<path d="M635.634 540.27H297.39C295.991 540.264 294.651 539.704 293.664 538.712C292.676 537.72 292.122 536.377 292.122 534.978C292.122 533.581 292.677 532.241 293.665 531.253C294.653 530.265 295.993 529.709 297.39 529.709H635.634C637.032 529.709 638.372 530.265 639.36 531.253C640.348 532.241 640.903 533.581 640.903 534.978C640.903 536.377 640.348 537.72 639.361 538.712C638.374 539.704 637.034 540.264 635.634 540.27Z" fill="#407BFF"/>
<path opacity="0.4" d="M635.634 540.27H297.39C295.991 540.264 294.651 539.704 293.664 538.712C292.676 537.72 292.122 536.377 292.122 534.978C292.122 533.581 292.677 532.241 293.665 531.253C294.653 530.265 295.993 529.709 297.39 529.709H635.634C637.032 529.709 638.372 530.265 639.36 531.253C640.348 532.241 640.903 533.581 640.903 534.978C640.903 536.377 640.348 537.72 639.361 538.712C638.374 539.704 637.034 540.264 635.634 540.27Z" fill="white"/>
<path d="M448.171 537.832V548.197C448.171 549.293 448.387 550.378 448.806 551.39C449.225 552.402 449.839 553.321 450.614 554.096C451.389 554.87 452.308 555.485 453.32 555.904C454.332 556.323 455.417 556.539 456.512 556.539H623.512C624.912 556.539 626.254 555.985 627.246 554.997C628.238 554.01 628.799 552.67 628.805 551.271V537.832H448.171Z" fill="#407BFF"/>
<path opacity="0.6" d="M448.171 537.832V548.197C448.171 549.293 448.387 550.378 448.806 551.39C449.225 552.402 449.839 553.321 450.614 554.096C451.389 554.87 452.308 555.485 453.32 555.904C454.332 556.323 455.417 556.539 456.512 556.539H623.512C624.912 556.539 626.254 555.985 627.246 554.997C628.238 554.01 628.799 552.67 628.805 551.271V537.832H448.171Z" fill="white"/>
<path opacity="0.2" d="M628.805 537.832H448.171V547.197H628.805V537.832Z" fill="black"/>
<path d="M637.756 529.709H443.683C442.284 529.709 440.941 530.264 439.949 531.251C438.958 532.238 438.397 533.578 438.391 534.978C438.391 536.381 438.948 537.728 439.941 538.72C440.933 539.713 442.28 540.27 443.683 540.27H638.049C638.789 540.271 639.52 540.116 640.196 539.816C640.872 539.515 641.477 539.075 641.971 538.526C642.466 537.976 642.839 537.328 643.067 536.624C643.295 535.92 643.372 535.177 643.293 534.441C643.108 533.112 642.443 531.896 641.423 531.025C640.403 530.153 639.098 529.685 637.756 529.709Z" fill="#407BFF"/>
<path opacity="0.6" d="M637.756 529.709H443.683C442.284 529.709 440.941 530.264 439.949 531.251C438.958 532.238 438.397 533.578 438.391 534.978C438.391 536.381 438.948 537.728 439.941 538.72C440.933 539.713 442.28 540.27 443.683 540.27H638.049C638.789 540.271 639.52 540.116 640.196 539.816C640.872 539.515 641.477 539.075 641.971 538.526C642.466 537.976 642.839 537.328 643.067 536.624C643.295 535.92 643.372 535.177 643.293 534.441C643.108 533.112 642.443 531.896 641.423 531.025C640.403 530.153 639.098 529.685 637.756 529.709Z" fill="white"/>
</svg>
