<svg width="312" height="62" viewBox="0 0 312 62" fill="none" xmlns="http://www.w3.org/2000/svg">
<rect x="0.5" y="0.5" width="311" height="61" rx="7.5" fill="#FEFEFE"/>
<rect x="0.5" y="0.5" width="311" height="61" rx="7.5" stroke="#DDDDDD"/>
<g clip-path="url(#clip0_363_2318)">
<path d="M47.4672 21.6578C45.4689 22.3511 43.7456 23.6668 42.5503 25.4119C41.3551 27.157 40.7509 29.2393 40.8267 31.3531C40.9024 33.4669 41.6539 35.5007 42.9709 37.1558C44.2879 38.8108 46.101 40 48.1438 40.5485C49.7999 40.9758 51.535 40.9946 53.2 40.6032C54.7083 40.2644 56.1028 39.5397 57.2469 38.5C58.4376 37.3849 59.302 35.9664 59.7469 34.3969C60.2305 32.6901 60.3166 30.8952 59.9985 29.15H50.6985V33.0078H56.0844C55.9768 33.6231 55.7461 34.2104 55.4062 34.7345C55.0663 35.2585 54.6242 35.7086 54.1063 36.0578C53.4486 36.4929 52.7072 36.7856 51.9297 36.9172C51.1499 37.0622 50.3501 37.0622 49.5703 36.9172C48.78 36.7538 48.0324 36.4276 47.375 35.9594C46.319 35.2119 45.5261 34.1499 45.1094 32.925C44.6857 31.6772 44.6857 30.3244 45.1094 29.0766C45.406 28.2019 45.8963 27.4056 46.5438 26.7469C47.2847 25.9793 48.2227 25.4306 49.255 25.1611C50.2872 24.8915 51.3737 24.9115 52.3953 25.2188C53.1934 25.4638 53.9232 25.8918 54.5266 26.4688C55.1339 25.8646 55.7401 25.2589 56.3453 24.6516C56.6578 24.325 56.9985 24.0141 57.3063 23.6797C56.3853 22.8226 55.3042 22.1557 54.125 21.7172C51.9777 20.9375 49.6281 20.9166 47.4672 21.6578Z" fill="white"/>
<path d="M47.4676 21.6578C49.6283 20.916 51.9779 20.9364 54.1254 21.7156C55.3048 22.1571 56.3854 22.8272 57.3051 23.6875C56.9926 24.0219 56.6629 24.3344 56.3441 24.6594C55.7379 25.2646 55.1322 25.8677 54.527 26.4687C53.9236 25.8918 53.1938 25.4637 52.3957 25.2187C51.3744 24.9104 50.2879 24.8893 49.2554 25.1577C48.2229 25.4262 47.2843 25.9738 46.5426 26.7406C45.8951 27.3993 45.4048 28.1956 45.1082 29.0703L41.8691 26.5625C43.0285 24.2634 45.0359 22.5047 47.4676 21.6578Z" fill="#E33629"/>
<path d="M41.0092 29.0469C41.1833 28.1841 41.4723 27.3485 41.8686 26.5625L45.1076 29.0766C44.6839 30.3244 44.6839 31.6772 45.1076 32.925C44.0284 33.7583 42.9488 34.5958 41.8686 35.4375C40.8766 33.463 40.5741 31.2133 41.0092 29.0469Z" fill="#F8BD00"/>
<path d="M50.698 29.1484H59.998C60.3161 30.8936 60.23 32.6885 59.7464 34.3953C59.3015 35.9648 58.4371 37.3834 57.2464 38.4984C56.2011 37.6828 55.1511 36.8734 54.1058 36.0578C54.624 35.7082 55.0663 35.2576 55.4063 34.733C55.7462 34.2084 55.9766 33.6205 56.0839 33.0047H50.698C50.6964 31.7203 50.698 30.4344 50.698 29.1484Z" fill="#587DBD"/>
<path d="M41.8672 35.4375C42.9474 34.6042 44.0271 33.7667 45.1062 32.925C45.5238 34.1503 46.3178 35.2123 47.375 35.9594C48.0344 36.4254 48.7836 36.7489 49.575 36.9094C50.3548 37.0544 51.1546 37.0544 51.9344 36.9094C52.7119 36.7778 53.4533 36.485 54.1109 36.05C55.1562 36.8656 56.2063 37.675 57.2516 38.4906C56.1076 39.5308 54.7132 40.2561 53.2047 40.5953C51.5397 40.9867 49.8046 40.9679 48.1484 40.5406C46.8386 40.1909 45.6151 39.5744 44.5547 38.7297C43.4323 37.8386 42.5156 36.7156 41.8672 35.4375Z" fill="#319F43"/>
</g>
<path d="M83.86 38.32C81.86 38.32 80.26 37.66 79.02 36.3C77.76 34.98 77.14 33.16 77.14 30.88C77.14 28.62 77.76 26.82 79 25.46C80.24 24.12 81.86 23.44 83.86 23.44C85.42 23.44 86.78 23.86 87.92 24.7C89.04 25.56 89.78 26.82 90.1 28.48H87.94C87.66 27.44 87.18 26.66 86.46 26.14C85.74 25.62 84.88 25.34 83.86 25.34C82.48 25.34 81.38 25.84 80.58 26.84C79.76 27.84 79.36 29.18 79.36 30.88C79.36 32.6 79.76 33.94 80.58 34.94C81.38 35.94 82.48 36.42 83.86 36.42C84.88 36.42 85.8 36.12 86.62 35.48C87.4 34.86 87.88 33.94 88.04 32.74H90.18C90 34.52 89.32 35.9 88.12 36.86C86.92 37.84 85.5 38.32 83.86 38.32ZM100.398 36.76C99.4383 37.76 98.2183 38.24 96.6983 38.24C95.1783 38.24 93.9383 37.76 92.9983 36.76C92.0383 35.78 91.5783 34.48 91.5783 32.84C91.5783 31.2 92.0383 29.9 92.9983 28.9C93.9183 27.94 95.1583 27.44 96.6983 27.44C98.2183 27.44 99.4583 27.94 100.398 28.9C101.318 29.88 101.798 31.2 101.798 32.84C101.798 34.48 101.318 35.8 100.398 36.76ZM96.6983 36.52C97.6183 36.52 98.3583 36.2 98.8983 35.54C99.4383 34.9 99.7183 34 99.7183 32.84C99.7183 31.7 99.4383 30.8 98.8983 30.14C98.3583 29.5 97.6183 29.16 96.6983 29.16C95.7583 29.16 95.0183 29.5 94.4783 30.14C93.9183 30.8 93.6583 31.7 93.6583 32.84C93.6583 34 93.9183 34.9 94.4783 35.54C95.0183 36.2 95.7583 36.52 96.6983 36.52ZM108.922 27.44C110.042 27.44 110.942 27.76 111.582 28.4C112.222 29.04 112.542 29.92 112.542 31.08V38H110.542V31.36C110.542 29.92 109.802 29.2 108.362 29.2C107.682 29.2 107.082 29.46 106.562 29.96C106.022 30.48 105.762 31.22 105.762 32.18V38H103.762V27.68H105.682V29.22C106.462 28.04 107.542 27.44 108.922 27.44ZM117.72 27.68H119.56V29.32H117.72V38H115.72V29.32H114.06V27.68H115.72V24.72H117.72V27.68ZM123.233 26.22H121.193V24.08H123.233V26.22ZM123.213 38H121.213V27.68H123.213V38ZM130.811 27.44C131.931 27.44 132.831 27.76 133.471 28.4C134.111 29.04 134.431 29.92 134.431 31.08V38H132.431V31.36C132.431 29.92 131.691 29.2 130.251 29.2C129.571 29.2 128.971 29.46 128.451 29.96C127.911 30.48 127.651 31.22 127.651 32.18V38H125.651V27.68H127.571V29.22C128.351 28.04 129.431 27.44 130.811 27.44ZM143.315 33.5V27.68H145.315V38H143.395V36.46C142.595 37.66 141.515 38.24 140.155 38.24C139.015 38.24 138.135 37.92 137.495 37.28C136.855 36.64 136.535 35.76 136.535 34.6V27.68H138.535V34.32C138.535 35.76 139.255 36.48 140.715 36.48C141.435 36.48 142.055 36.22 142.555 35.7C143.055 35.18 143.315 34.44 143.315 33.5ZM157.09 32.92V33.5H149.31C149.39 34.52 149.69 35.28 150.21 35.8C150.71 36.32 151.39 36.56 152.27 36.56C153.57 36.56 154.43 36 154.83 34.84H156.85C156.57 35.9 156.01 36.74 155.21 37.34C154.41 37.94 153.41 38.24 152.23 38.24C150.75 38.24 149.55 37.76 148.65 36.76C147.73 35.78 147.29 34.48 147.29 32.84C147.29 31.22 147.73 29.92 148.65 28.92C149.55 27.94 150.73 27.44 152.19 27.44C153.71 27.44 154.91 27.96 155.79 28.98C156.65 30.02 157.09 31.32 157.09 32.92ZM152.19 29.12C151.39 29.12 150.75 29.36 150.25 29.84C149.75 30.32 149.45 31.02 149.33 31.92H155.03C154.93 31.08 154.63 30.42 154.13 29.9C153.63 29.38 152.99 29.12 152.19 29.12ZM174.607 31.98L175.947 27.68H178.087L174.667 38H172.567L171.147 33.46C170.787 32.32 170.447 31.22 170.167 30.14C169.727 31.7 169.407 32.82 169.207 33.46L167.807 38H165.687L162.267 27.68H164.427L165.747 31.98C166.107 33.14 166.467 34.38 166.827 35.66C167.067 34.7 167.407 33.48 167.867 31.98L169.187 27.68H171.187L172.487 31.98C173.027 33.84 173.387 35.06 173.547 35.64C173.707 35.06 174.047 33.84 174.607 31.98ZM181.406 26.22H179.366V24.08H181.406V26.22ZM181.386 38H179.386V27.68H181.386V38ZM186.644 27.68H188.484V29.32H186.644V38H184.644V29.32H182.984V27.68H184.644V24.72H186.644V27.68ZM195.121 27.44C196.241 27.44 197.141 27.76 197.781 28.4C198.421 29.04 198.741 29.92 198.741 31.08V38H196.741V31.36C196.741 29.92 196.001 29.2 194.561 29.2C193.881 29.2 193.281 29.46 192.761 29.96C192.221 30.48 191.961 31.22 191.961 32.18V38H189.961V23.76H191.961V29.1C192.741 28 193.801 27.44 195.121 27.44ZM211.94 30.32H218.68C218.68 30.42 218.7 30.6 218.7 30.88C218.7 33.22 218.08 35.04 216.88 36.34C215.64 37.66 213.98 38.32 211.86 38.32C209.78 38.32 208.1 37.64 206.86 36.26C205.58 34.9 204.96 33.1 204.96 30.88C204.96 28.64 205.58 26.84 206.86 25.46C208.12 24.12 209.8 23.44 211.92 23.44C213.72 23.44 215.2 23.9 216.36 24.8C217.48 25.72 218.18 26.94 218.46 28.44H216.28C216.08 27.5 215.58 26.76 214.8 26.2C214.02 25.64 213.06 25.36 211.92 25.36C210.46 25.36 209.3 25.86 208.46 26.82C207.6 27.78 207.18 29.14 207.18 30.88C207.18 32.6 207.6 33.94 208.48 34.92C209.34 35.92 210.46 36.4 211.86 36.4C213.18 36.4 214.22 36.04 215.02 35.32C215.82 34.6 216.3 33.54 216.48 32.14H211.94V30.32ZM229.097 36.76C228.137 37.76 226.917 38.24 225.397 38.24C223.877 38.24 222.637 37.76 221.697 36.76C220.737 35.78 220.277 34.48 220.277 32.84C220.277 31.2 220.737 29.9 221.697 28.9C222.617 27.94 223.857 27.44 225.397 27.44C226.917 27.44 228.157 27.94 229.097 28.9C230.017 29.88 230.497 31.2 230.497 32.84C230.497 34.48 230.017 35.8 229.097 36.76ZM225.397 36.52C226.317 36.52 227.057 36.2 227.597 35.54C228.137 34.9 228.417 34 228.417 32.84C228.417 31.7 228.137 30.8 227.597 30.14C227.057 29.5 226.317 29.16 225.397 29.16C224.457 29.16 223.717 29.5 223.177 30.14C222.617 30.8 222.357 31.7 222.357 32.84C222.357 34 222.617 34.9 223.177 35.54C223.717 36.2 224.457 36.52 225.397 36.52ZM240.801 36.76C239.841 37.76 238.621 38.24 237.101 38.24C235.581 38.24 234.341 37.76 233.401 36.76C232.441 35.78 231.981 34.48 231.981 32.84C231.981 31.2 232.441 29.9 233.401 28.9C234.321 27.94 235.561 27.44 237.101 27.44C238.621 27.44 239.861 27.94 240.801 28.9C241.721 29.88 242.201 31.2 242.201 32.84C242.201 34.48 241.721 35.8 240.801 36.76ZM237.101 36.52C238.021 36.52 238.761 36.2 239.301 35.54C239.841 34.9 240.121 34 240.121 32.84C240.121 31.7 239.841 30.8 239.301 30.14C238.761 29.5 238.021 29.16 237.101 29.16C236.161 29.16 235.421 29.5 234.881 30.14C234.321 30.8 234.061 31.7 234.061 32.84C234.061 34 234.321 34.9 234.881 35.54C235.421 36.2 236.161 36.52 237.101 36.52ZM251.825 29.14V27.68H253.745V37.62C253.745 39.04 253.305 40.16 252.465 40.96C251.605 41.76 250.385 42.16 248.825 42.16C247.465 42.16 246.405 41.86 245.605 41.24C244.805 40.64 244.365 39.8 244.265 38.72H246.265C246.425 39.94 247.285 40.54 248.845 40.54C250.765 40.54 251.745 39.58 251.745 37.66V36.52C250.945 37.6 249.845 38.12 248.425 38.12C246.985 38.12 245.825 37.64 244.985 36.66C244.105 35.68 243.685 34.38 243.685 32.78C243.685 31.18 244.105 29.9 244.985 28.9C245.825 27.94 246.965 27.44 248.405 27.44C249.905 27.44 251.045 28.02 251.825 29.14ZM248.785 36.4C249.705 36.4 250.445 36.08 250.985 35.44C251.525 34.8 251.805 33.9 251.805 32.78C251.805 31.66 251.525 30.78 250.985 30.14C250.445 29.5 249.705 29.16 248.785 29.16C247.865 29.16 247.125 29.5 246.585 30.14C246.025 30.8 245.765 31.68 245.765 32.78C245.765 33.9 246.025 34.8 246.585 35.44C247.125 36.08 247.865 36.4 248.785 36.4ZM258.2 38H256.2V23.76H258.2V38ZM269.959 32.92V33.5H262.179C262.259 34.52 262.559 35.28 263.079 35.8C263.579 36.32 264.259 36.56 265.139 36.56C266.439 36.56 267.299 36 267.699 34.84H269.719C269.439 35.9 268.879 36.74 268.079 37.34C267.279 37.94 266.279 38.24 265.099 38.24C263.619 38.24 262.419 37.76 261.519 36.76C260.599 35.78 260.159 34.48 260.159 32.84C260.159 31.22 260.599 29.92 261.519 28.92C262.419 27.94 263.599 27.44 265.059 27.44C266.579 27.44 267.779 27.96 268.659 28.98C269.519 30.02 269.959 31.32 269.959 32.92ZM265.059 29.12C264.259 29.12 263.619 29.36 263.119 29.84C262.619 30.32 262.319 31.02 262.199 31.92H267.899C267.799 31.08 267.499 30.42 266.999 29.9C266.499 29.38 265.859 29.12 265.059 29.12Z" fill="#0D0D0D"/>
<defs>
<clipPath id="clip0_363_2318">
<rect width="20" height="20" fill="white" transform="translate(40.5 21)"/>
</clipPath>
</defs>
</svg>
