<svg width="897" height="668" viewBox="0 0 897 668" fill="none" xmlns="http://www.w3.org/2000/svg">
<path d="M896.431 586.983H0V587.431H896.431V586.983Z" fill="#EBEBEB"/>
<path d="M806.608 615.83H767.739V616.278H806.608V615.83Z" fill="#EBEBEB"/>
<path d="M617.946 606.543H556.791V606.991H617.946V606.543Z" fill="#EBEBEB"/>
<path d="M790.867 599.192H711.031V599.641H790.867V599.192Z" fill="#EBEBEB"/>
<path d="M310.201 608.228H290.229V608.677H310.201V608.228Z" fill="#EBEBEB"/>
<path d="M274.254 608.228H205.426V608.677H274.254V608.228Z" fill="#EBEBEB"/>
<path d="M168.547 600.663H118.885V601.111H168.547V600.663Z" fill="#EBEBEB"/>
<path d="M424.909 507.021H78.7252C76.0132 507.017 73.4139 505.936 71.4979 504.017C69.582 502.097 68.5059 499.496 68.5059 496.784V10.1476C68.5295 7.45118 69.616 4.87296 71.5294 2.97296C73.4429 1.07295 76.0287 0.00461911 78.7252 0H424.909C427.624 0 430.228 1.07856 432.148 2.99842C434.068 4.91827 435.146 7.52216 435.146 10.2372V496.784C435.146 499.499 434.068 502.103 432.148 504.023C430.228 505.943 427.624 507.021 424.909 507.021ZM78.7252 0.358574C76.1321 0.363323 73.6468 1.39676 71.8149 3.23204C69.983 5.06732 68.9541 7.55449 68.9541 10.1476V496.784C68.9541 499.377 69.983 501.864 71.8149 503.7C73.6468 505.535 76.1321 506.568 78.7252 506.573H424.909C427.504 506.568 429.991 505.536 431.826 503.701C433.66 501.866 434.693 499.379 434.698 496.784V10.1476C434.693 7.55284 433.66 5.06572 431.826 3.23095C429.991 1.39617 427.504 0.363313 424.909 0.358574H78.7252Z" fill="#EBEBEB"/>
<path d="M812.723 507.021H466.521C463.808 507.017 461.207 505.937 459.288 504.018C457.369 502.099 456.289 499.498 456.284 496.784V10.1476C456.312 7.44954 457.403 4.87134 459.319 2.97184C461.236 1.07233 463.823 0.00456873 466.521 0H812.723C815.417 0.00933094 817.998 1.07975 819.907 2.97925C821.817 4.87875 822.901 7.45428 822.924 10.1476V496.784C822.924 499.493 821.851 502.091 819.939 504.01C818.027 505.929 815.432 507.012 812.723 507.021ZM466.521 0.358574C463.927 0.363313 461.44 1.39617 459.605 3.23095C457.77 5.06572 456.737 7.55284 456.732 10.1476V496.784C456.737 499.379 457.77 501.866 459.605 503.701C461.44 505.536 463.927 506.568 466.521 506.573H812.723C815.318 506.568 817.805 505.536 819.64 503.701C821.475 501.866 822.507 499.379 822.512 496.784V10.1476C822.507 7.55284 821.475 5.06572 819.64 3.23095C817.805 1.39617 815.318 0.363313 812.723 0.358574H466.521Z" fill="#EBEBEB"/>
<path d="M206.179 214.48C216.122 214.48 225.657 210.53 232.687 203.5C239.718 196.469 243.668 186.934 243.668 176.991C243.668 167.049 239.718 157.513 232.687 150.483C225.657 143.452 216.122 139.503 206.179 139.503H201.571V214.48H206.179Z" fill="#E0E0E0"/>
<path d="M201.536 214.48C222.24 214.48 239.024 197.696 239.024 176.991C239.024 156.287 222.24 139.503 201.536 139.503C180.831 139.503 164.047 156.287 164.047 176.991C164.047 197.696 180.831 214.48 201.536 214.48Z" fill="#F5F5F5"/>
<path d="M199.815 181.689C186.501 181.689 173.733 176.4 164.319 166.985C154.904 157.571 149.615 144.802 149.615 131.488V101.53C149.615 100.279 150.112 99.0799 150.996 98.1956C151.881 97.3113 153.08 96.8145 154.33 96.8145C155.581 96.8145 156.78 97.3113 157.665 98.1956C158.549 99.0799 159.046 100.279 159.046 101.53V131.506C159.055 142.313 163.351 152.675 170.991 160.318C178.631 167.961 188.991 172.262 199.797 172.276C200.44 172.236 201.084 172.329 201.689 172.547C202.295 172.766 202.849 173.106 203.318 173.547C203.787 173.988 204.161 174.52 204.416 175.111C204.671 175.702 204.803 176.339 204.803 176.982C204.803 177.626 204.671 178.263 204.416 178.854C204.161 179.445 203.787 179.977 203.318 180.418C202.849 180.859 202.295 181.199 201.689 181.417C201.084 181.636 200.44 181.728 199.797 181.689H199.815Z" fill="#E0E0E0"/>
<path d="M112.645 127.921H196.049C197.383 127.921 198.699 127.615 199.896 127.026C201.093 126.438 202.139 125.582 202.953 124.525C203.767 123.469 204.328 122.239 204.592 120.932C204.856 119.625 204.816 118.274 204.476 116.984L197.215 89.6431C196.725 87.7857 195.634 86.1423 194.114 84.9686C192.593 83.7949 190.727 83.1565 188.806 83.1529H119.889C117.965 83.1556 116.097 83.7933 114.573 84.9669C113.049 86.1404 111.956 87.7843 111.462 89.6431L104.291 116.948C103.942 118.235 103.893 119.584 104.149 120.892C104.404 122.201 104.957 123.433 105.765 124.493C106.572 125.554 107.613 126.414 108.806 127.009C109.999 127.603 111.313 127.915 112.645 127.921Z" fill="#F5F5F5"/>
<path d="M735.575 214.48C745.518 214.48 755.054 210.53 762.084 203.5C769.115 196.469 773.064 186.934 773.064 176.991C773.064 167.049 769.115 157.513 762.084 150.483C755.054 143.452 745.518 139.503 735.575 139.503H730.968V214.48H735.575Z" fill="#E0E0E0"/>
<path d="M730.968 214.48C751.673 214.48 768.457 197.696 768.457 176.991C768.457 156.287 751.673 139.503 730.968 139.503C710.264 139.503 693.479 156.287 693.479 176.991C693.479 197.696 710.264 214.48 730.968 214.48Z" fill="#F5F5F5"/>
<path d="M729.247 181.689C715.933 181.689 703.165 176.4 693.75 166.985C684.336 157.571 679.047 144.802 679.047 131.488V101.53C679.047 100.279 679.544 99.0799 680.428 98.1956C681.312 97.3113 682.512 96.8145 683.762 96.8145C685.013 96.8145 686.212 97.3113 687.096 98.1956C687.981 99.0799 688.477 100.279 688.477 101.53V131.506C688.487 142.313 692.783 152.675 700.423 160.318C708.062 167.961 718.422 172.262 729.229 172.276C729.872 172.236 730.515 172.329 731.121 172.547C731.726 172.766 732.28 173.106 732.749 173.547C733.218 173.988 733.592 174.52 733.848 175.111C734.103 175.702 734.235 176.339 734.235 176.982C734.235 177.626 734.103 178.263 733.848 178.854C733.592 179.445 733.218 179.977 732.749 180.418C732.28 180.859 731.726 181.199 731.121 181.417C730.515 181.636 729.872 181.728 729.229 181.689H729.247Z" fill="#E0E0E0"/>
<path d="M642.077 127.921H725.481C726.815 127.921 728.131 127.615 729.328 127.026C730.525 126.438 731.571 125.582 732.385 124.525C733.199 123.469 733.76 122.239 734.024 120.932C734.288 119.625 734.248 118.274 733.908 116.984L726.736 89.6789C726.246 87.8216 725.156 86.1782 723.635 85.0045C722.115 83.8307 720.249 83.1924 718.328 83.1888H649.32C647.397 83.1915 645.529 83.8291 644.005 85.0027C642.481 86.1763 641.388 87.8201 640.894 89.6789L633.723 116.984C633.38 118.268 633.336 119.614 633.595 120.917C633.854 122.221 634.407 123.448 635.214 124.504C636.021 125.56 637.059 126.417 638.249 127.01C639.439 127.602 640.748 127.914 642.077 127.921Z" fill="#F5F5F5"/>
<path d="M240.208 467.686H267.478V362.033H240.208V467.686Z" fill="#E6E6E6"/>
<path d="M166.288 467.668H256.774L270.435 344.014H179.95L166.288 467.668Z" fill="#F0F0F0"/>
<path d="M156.48 467.668H249.96L263.622 344.014H170.16L156.48 467.668Z" fill="#F5F5F5"/>
<path d="M243.202 457.933L254.712 353.768H176.902L165.392 457.933H243.202Z" fill="white"/>
<path d="M227.138 432.671L227.694 428.494C230.58 402.354 214.265 379.065 193.074 379.065L192.59 383.314C189.703 409.436 206.018 432.725 227.228 432.725L227.138 432.671Z" fill="#F5F5F5"/>
<path d="M105.94 586.983H186.332L186.332 467.668H105.94L105.94 586.983Z" fill="#E6E6E6"/>
<path d="M114.008 586.983H105.922V563.981H122.488L114.008 586.983Z" fill="#F0F0F0"/>
<path d="M331.249 586.983H411.641V467.668H331.249V586.983Z" fill="#E6E6E6"/>
<path d="M105.922 572.873H338.295V467.686H105.922V572.873Z" fill="#F0F0F0"/>
<path d="M330.21 586.983H338.296V563.981H321.729L330.21 586.983Z" fill="#F0F0F0"/>
<path d="M112.198 516.703H332.021V474.248H112.198V516.703Z" fill="#E6E6E6"/>
<path d="M207.451 502.001H236.764C243.067 502.004 249.304 500.721 255.093 498.23C260.882 495.739 266.103 492.093 270.434 487.515H173.781C178.115 492.09 183.336 495.735 189.125 498.225C194.913 500.716 201.149 502.001 207.451 502.001Z" fill="#F0F0F0"/>
<path d="M112.198 566.007H332.021V523.552H112.198V566.007Z" fill="#E6E6E6"/>
<path d="M207.451 551.233H236.764C243.067 551.236 249.304 549.953 255.093 547.462C260.882 544.971 266.103 541.325 270.434 536.747H173.781C178.115 541.322 183.336 544.967 189.125 547.457C194.913 549.948 201.149 551.233 207.451 551.233Z" fill="#F0F0F0"/>
<path d="M323.575 462.809H325.655C325.655 458.525 325.655 447.678 325.87 422.811C326.247 377.72 326.964 374.977 326.964 374.977L322.016 395.792C318.878 418.831 322.93 441.994 323.575 462.809Z" fill="#E6E6E6"/>
<path d="M319.47 392.637C312.299 384.157 297.149 381.682 281.587 379.567C275.474 378.742 297.633 392.709 308.48 402.623C316.907 410.332 322.285 412.466 324.616 420.139C325.799 410.565 325.602 400.005 319.47 392.637Z" fill="#E6E6E6"/>
<path d="M328.918 407.84C336.09 399.36 351.239 396.904 366.801 394.788C372.915 393.964 350.665 407.93 339.908 417.844C331.482 425.554 326.103 427.687 323.773 435.361C322.589 425.787 322.715 415.155 328.918 407.84Z" fill="#E6E6E6"/>
<path d="M325.87 372.915C331.249 362.768 344.624 353.194 359.702 349.608C365.618 348.192 345.986 368.326 338.528 381.324C332.737 391.4 325.063 403.268 323.862 411.802C322.069 394.985 320.528 383.117 325.87 372.915Z" fill="#E6E6E6"/>
<path d="M325.225 467.668C318.879 467.668 313.626 464.495 313.249 460.407L312.191 453.451H338.278L337.202 460.407C336.843 464.495 331.68 467.668 325.225 467.668Z" fill="#F0F0F0"/>
<path d="M339.962 456.122H310.506L309.663 448.359H340.805L339.962 456.122Z" fill="#F0F0F0"/>
<path d="M303.961 307.87L591.195 307.87V45.8793L303.961 45.8793L303.961 307.87Z" fill="#E6E6E6"/>
<path d="M297.508 307.87L588.382 307.87V45.8793L297.508 45.8793L297.508 307.87Z" fill="#F5F5F5"/>
<path d="M576.764 296.145V57.6226L309.089 57.6226V296.145H576.764Z" fill="#FAFAFA"/>
<path d="M543.937 296.145L438.588 57.6226H402.803L508.151 296.145H543.937Z" fill="white"/>
<path d="M498.003 296.145L392.654 57.6226H368.021L473.369 296.145H498.003Z" fill="white"/>
<path d="M408.485 296.127V57.6047H394.644V296.127H408.485Z" fill="#E6E6E6"/>
<path d="M500.495 296.127V57.6047H486.654V296.127H500.495Z" fill="#E6E6E6"/>
<path d="M405.993 303.585V48.8913H388.495V303.585H405.993Z" fill="#F5F5F5"/>
<path d="M498.003 303.585V48.8914H480.505V303.585H498.003Z" fill="#F5F5F5"/>
<path d="M310.344 296.145V57.6226H309.107V296.145H310.344Z" fill="#E6E6E6"/>
<path d="M292.63 30.7834H603.799C604.197 30.7881 604.578 30.9483 604.859 31.2297C605.14 31.5111 605.301 31.8915 605.305 32.2895C605.3 32.6858 605.14 33.0642 604.858 33.3428C604.576 33.6214 604.195 33.7775 603.799 33.7775H292.63C292.234 33.7775 291.853 33.6214 291.571 33.3428C291.289 33.0642 291.129 32.6858 291.124 32.2895C291.129 31.8915 291.289 31.5111 291.57 31.2297C291.852 30.9483 292.232 30.7881 292.63 30.7834Z" fill="#E6E6E6"/>
<path d="M591.196 40.6621C591.73 40.6574 592.241 40.4418 592.617 40.0624C592.993 39.683 593.204 39.1704 593.204 38.6362V34.2974C593.206 34.0322 593.156 33.7692 593.056 33.5235C592.956 33.2778 592.809 33.0543 592.622 32.866C592.435 32.6776 592.213 32.5281 591.968 32.4261C591.724 32.324 591.461 32.2715 591.196 32.2715C590.662 32.2715 590.149 32.4825 589.77 32.8585C589.39 33.2346 589.175 33.7453 589.17 34.2795V38.6182C589.17 39.1572 589.383 39.6744 589.762 40.0572C590.142 40.44 590.657 40.6574 591.196 40.6621Z" fill="#E6E6E6"/>
<path d="M315.186 40.6621C315.722 40.6574 316.234 40.4425 316.613 40.0636C316.992 39.6846 317.207 39.172 317.212 38.6362V34.2974C317.212 33.7601 316.998 33.2448 316.618 32.8649C316.238 32.485 315.723 32.2715 315.186 32.2715C314.653 32.2715 314.143 32.4831 313.766 32.8596C313.389 33.2362 313.178 33.747 313.178 34.2795V38.6182C313.175 38.8843 313.226 39.1482 313.325 39.3949C313.425 39.6416 313.572 39.8663 313.759 40.0561C313.945 40.2459 314.167 40.3971 314.412 40.5011C314.657 40.605 314.92 40.6598 315.186 40.6621Z" fill="#E6E6E6"/>
<path opacity="0.6" d="M293.097 237.447L583.773 237.447V32.2715L293.097 32.2715V237.447Z" fill="#E0E0E0"/>
<path d="M610.093 367.483H559.965C554.638 367.483 550.319 371.801 550.319 377.129V400.328C550.319 405.655 554.638 409.974 559.965 409.974H610.093C615.42 409.974 619.739 405.655 619.739 400.328V377.129C619.739 371.801 615.42 367.483 610.093 367.483Z" fill="#FAFAFA"/>
<path d="M616.494 359.63H553.564C551.772 359.63 550.319 361.083 550.319 362.875V365.493C550.319 367.285 551.772 368.738 553.564 368.738H616.494C618.286 368.738 619.739 367.285 619.739 365.493V362.875C619.739 361.083 618.286 359.63 616.494 359.63Z" fill="#E6E6E6"/>
<path d="M551.341 457.18C551.341 457.18 552.255 487.067 587.073 487.067C621.89 487.067 622.804 457.18 622.804 457.18H551.341Z" fill="#F0F0F0"/>
<path d="M630.729 457.18C630.729 457.18 631.643 487.067 666.46 487.067C701.278 487.067 702.192 457.18 702.192 457.18H630.729Z" fill="#F0F0F0"/>
<path d="M684.944 348.246H616.098C608.771 348.246 602.831 354.185 602.831 361.513V396.724C602.831 404.052 608.771 409.992 616.098 409.992H684.944C692.271 409.992 698.211 404.052 698.211 396.724V361.513C698.211 354.185 692.271 348.246 684.944 348.246Z" fill="#F0F0F0"/>
<path d="M693.765 337.452H607.277C604.822 337.452 602.831 339.443 602.831 341.899V345.52C602.831 347.976 604.822 349.967 607.277 349.967H693.765C696.221 349.967 698.211 347.976 698.211 345.52V341.899C698.211 339.443 696.221 337.452 693.765 337.452Z" fill="#F5F5F5"/>
<path d="M525.111 586.983H534.147V438.821H525.111V586.983Z" fill="#E6E6E6"/>
<path d="M786.027 409.974H737.1V438.803H786.027V409.974Z" fill="#E6E6E6"/>
<path d="M493.827 438.821L737.082 438.821V409.992H493.827V438.821Z" fill="#F5F5F5"/>
<path d="M786.027 486.977H737.1V515.806H786.027V486.977Z" fill="#E6E6E6"/>
<path d="M493.827 515.806H737.082V486.977H493.827V515.806Z" fill="#F5F5F5"/>
<path d="M768.366 586.983H777.402V438.821H768.366V586.983Z" fill="#E6E6E6"/>
<path d="M728.064 586.983H737.1V438.821H728.064V586.983Z" fill="#F5F5F5"/>
<path d="M493.826 586.983H502.862V438.821H493.826V586.983Z" fill="#F5F5F5"/>
<path d="M448.217 667.949C640.201 667.949 795.835 658.862 795.835 647.653C795.835 636.445 640.201 627.358 448.217 627.358C256.233 627.358 100.599 636.445 100.599 647.653C100.599 658.862 256.233 667.949 448.217 667.949Z" fill="#F5F5F5"/>
<path d="M466.878 556.684H238.163C234.485 556.631 230.963 555.191 228.303 552.65C225.643 550.11 224.041 546.658 223.82 542.986L203.31 145.778C203.196 144.011 203.449 142.24 204.051 140.575C204.654 138.91 205.594 137.388 206.813 136.104C208.032 134.819 209.503 133.801 211.133 133.111C212.764 132.422 214.52 132.077 216.29 132.098H445.005C448.682 132.146 452.204 133.583 454.864 136.12C457.525 138.658 459.127 142.108 459.348 145.778L479.823 542.986C479.936 544.751 479.685 546.52 479.084 548.183C478.484 549.846 477.547 551.368 476.332 552.653C475.118 553.938 473.652 554.959 472.025 555.653C470.399 556.346 468.647 556.697 466.878 556.684Z" fill="#407BFF"/>
<path opacity="0.8" d="M466.878 556.684H238.163C234.485 556.631 230.963 555.191 228.303 552.65C225.643 550.11 224.041 546.658 223.82 542.986L203.31 145.778C203.196 144.011 203.449 142.24 204.051 140.575C204.654 138.91 205.594 137.388 206.813 136.104C208.032 134.819 209.503 133.801 211.133 133.111C212.764 132.422 214.52 132.077 216.29 132.098H445.005C448.682 132.146 452.204 133.583 454.864 136.12C457.525 138.658 459.127 142.108 459.348 145.778L479.823 542.986C479.936 544.751 479.685 546.52 479.084 548.183C478.484 549.846 477.547 551.368 476.332 552.653C475.118 553.938 473.652 554.959 472.025 555.653C470.399 556.346 468.647 556.697 466.878 556.684Z" fill="white"/>
<path d="M422.433 119.154H397.136V120.946H422.433V119.154Z" fill="#407BFF"/>
<path d="M388.37 119.154H379.101V120.946H388.37V119.154Z" fill="#407BFF"/>
<path d="M476.721 531.476H257.992C254.469 531.442 251.091 530.075 248.536 527.65C245.981 525.225 244.44 521.922 244.223 518.406L224.645 138.499C224.536 136.808 224.777 135.113 225.355 133.52C225.932 131.926 226.832 130.47 227.998 129.241C229.165 128.012 230.573 127.038 232.134 126.379C233.695 125.719 235.375 125.39 237.069 125.411H455.798C459.32 125.45 462.697 126.821 465.248 129.25C467.8 131.678 469.337 134.983 469.549 138.499L489.128 518.406C489.236 520.095 488.995 521.787 488.419 523.378C487.843 524.969 486.944 526.424 485.779 527.651C484.614 528.878 483.208 529.851 481.649 530.51C480.091 531.168 478.413 531.497 476.721 531.476Z" fill="#407BFF"/>
<path d="M476.722 522.745H257.992C256.71 522.701 255.488 522.187 254.559 521.301C253.63 520.415 253.059 519.219 252.954 517.94L233.358 138.05C233.314 137.545 233.377 137.036 233.544 136.557C233.711 136.078 233.978 135.64 234.327 135.271C234.676 134.904 235.1 134.615 235.57 134.423C236.04 134.232 236.545 134.142 237.052 134.16H455.781C457.061 134.208 458.278 134.724 459.203 135.609C460.128 136.495 460.697 137.688 460.801 138.965L480.487 518.854C480.53 519.358 480.466 519.865 480.3 520.342C480.133 520.819 479.868 521.256 479.521 521.623C479.173 521.99 478.753 522.28 478.286 522.473C477.819 522.667 477.316 522.759 476.811 522.745H476.722ZM237.052 134.608C236.606 134.594 236.162 134.672 235.749 134.839C235.335 135.006 234.961 135.257 234.649 135.576C234.35 135.907 234.121 136.296 233.976 136.718C233.831 137.14 233.774 137.587 233.807 138.032L253.385 517.922C253.485 519.085 254.006 520.172 254.851 520.978C255.697 521.784 256.807 522.253 257.974 522.297H476.704C477.147 522.314 477.589 522.237 478 522.07C478.412 521.903 478.782 521.65 479.088 521.328C479.395 521.002 479.629 520.615 479.774 520.191C479.919 519.768 479.973 519.318 479.931 518.872L460.371 138.983C460.275 137.821 459.757 136.734 458.915 135.928C458.072 135.122 456.964 134.652 455.799 134.608H237.052Z" fill="white"/>
<path opacity="0.3" d="M400.214 272.615C425.092 247.086 423.471 205.159 396.595 178.968C369.719 152.777 327.763 152.24 302.885 177.769C278.007 203.298 279.627 245.225 306.504 271.416C333.38 297.607 375.336 298.144 400.214 272.615Z" fill="white"/>
<path d="M405.185 225.201C405.687 234.012 403.915 242.803 400.04 250.732C395.845 259.236 389.333 266.381 381.254 271.345C373.175 276.31 363.857 278.89 354.376 278.79C344.55 278.702 334.914 276.071 326.406 271.154C317.898 266.237 310.807 259.201 305.825 250.732C301.181 242.987 298.51 234.22 298.044 225.201C297.602 218.285 298.592 211.352 300.953 204.836C303.313 198.32 306.993 192.361 311.763 187.332C316.532 182.304 322.288 178.314 328.67 175.612C335.052 172.91 341.924 171.555 348.854 171.631C363.277 171.781 377.108 177.391 387.561 187.331C398.013 197.272 404.311 210.803 405.185 225.201Z" fill="white"/>
<path d="M399.987 250.732C395.792 259.236 389.28 266.381 381.201 271.345C373.122 276.31 363.805 278.89 354.323 278.79C344.497 278.702 334.861 276.071 326.353 271.154C317.845 266.237 310.755 259.201 305.772 250.732C319.397 241.323 335.578 236.317 352.136 236.389C369.136 236.453 385.755 241.434 399.987 250.732Z" fill="#407BFF"/>
<path d="M368.159 223.956C377.122 214.758 376.535 199.65 366.848 190.21C357.161 180.77 342.042 180.573 333.08 189.771C324.117 198.969 324.703 214.077 334.39 223.517C344.077 232.957 359.196 233.153 368.159 223.956Z" fill="#407BFF"/>
<path d="M445.365 383.672H274.093C272.601 383.657 271.17 383.077 270.089 382.049C269.008 381.021 268.356 379.622 268.266 378.133L266.975 353.032C266.93 352.318 267.034 351.603 267.279 350.931C267.523 350.259 267.904 349.644 268.397 349.126C268.89 348.607 269.485 348.196 270.144 347.919C270.803 347.641 271.513 347.502 272.228 347.51H443.5C444.989 347.526 446.417 348.103 447.498 349.127C448.579 350.152 449.232 351.547 449.327 353.032L450.618 378.133C450.665 378.848 450.563 379.565 450.32 380.24C450.076 380.914 449.696 381.531 449.202 382.051C448.709 382.571 448.114 382.984 447.453 383.263C446.793 383.542 446.082 383.681 445.365 383.672Z" fill="white"/>
<path opacity="0.3" d="M392.923 333.652H321.388C319.89 333.64 318.452 333.06 317.367 332.028C316.281 330.996 315.629 329.589 315.543 328.094L315.274 322.715C315.227 322 315.328 321.282 315.572 320.608C315.815 319.934 316.196 319.317 316.689 318.797C317.182 318.276 317.778 317.864 318.439 317.585C319.099 317.306 319.81 317.166 320.527 317.175H392.044C393.536 317.191 394.967 317.771 396.048 318.799C397.129 319.827 397.78 321.226 397.871 322.715L398.158 328.094C398.202 328.808 398.099 329.524 397.856 330.196C397.613 330.869 397.234 331.485 396.743 332.006C396.253 332.527 395.661 332.942 395.004 333.225C394.346 333.508 393.638 333.653 392.923 333.652Z" fill="black"/>
<path opacity="0.3" d="M419.529 504.35H312.37C309.832 504.319 307.4 503.33 305.562 501.581C303.723 499.832 302.613 497.452 302.455 494.92L301.828 482.549C301.764 481.333 301.949 480.117 302.371 478.975C302.793 477.833 303.444 476.789 304.282 475.907C305.121 475.024 306.131 474.322 307.25 473.842C308.369 473.363 309.574 473.117 310.792 473.118H417.915C420.453 473.15 422.885 474.139 424.723 475.888C426.562 477.637 427.672 480.016 427.83 482.549L428.457 494.92C428.521 496.132 428.337 497.345 427.917 498.485C427.497 499.625 426.85 500.667 426.015 501.549C425.18 502.431 424.174 503.134 423.059 503.615C421.945 504.097 420.743 504.347 419.529 504.35Z" fill="black"/>
<path d="M448.502 444.379H277.212C275.721 444.359 274.293 443.778 273.213 442.751C272.132 441.724 271.48 440.326 271.385 438.839L270.094 413.739C270.05 413.024 270.153 412.308 270.398 411.635C270.642 410.961 271.023 410.346 271.515 409.826C272.008 409.306 272.603 408.894 273.262 408.614C273.921 408.334 274.631 408.193 275.347 408.199H446.619C448.111 408.214 449.541 408.794 450.623 409.822C451.704 410.85 452.355 412.25 452.446 413.739L453.755 438.839C453.796 439.553 453.691 440.268 453.446 440.94C453.2 441.612 452.82 442.227 452.327 442.746C451.835 443.265 451.242 443.678 450.584 443.959C449.926 444.239 449.217 444.382 448.502 444.379Z" fill="white"/>
<path d="M295.821 365.582C295.871 366.375 295.756 367.169 295.485 367.915C295.214 368.661 294.791 369.343 294.244 369.918C293.698 370.494 293.038 370.95 292.307 371.259C291.575 371.568 290.788 371.723 289.995 371.714C288.346 371.694 286.765 371.051 285.571 369.914C284.377 368.776 283.658 367.229 283.558 365.582C283.506 364.791 283.619 363.998 283.888 363.252C284.157 362.506 284.578 361.823 285.123 361.248C285.669 360.672 286.327 360.215 287.057 359.906C287.788 359.597 288.574 359.442 289.367 359.451C291.018 359.47 292.601 360.113 293.798 361.25C294.995 362.387 295.717 363.935 295.821 365.582Z" fill="#263238"/>
<path d="M314.7 365.582C314.752 366.374 314.64 367.167 314.37 367.913C314.101 368.659 313.681 369.342 313.135 369.917C312.59 370.493 311.931 370.95 311.201 371.259C310.471 371.568 309.684 371.723 308.891 371.714C307.241 371.699 305.658 371.057 304.463 369.918C303.268 368.78 302.55 367.23 302.455 365.582C302.403 364.791 302.515 363.998 302.784 363.252C303.054 362.506 303.474 361.823 304.02 361.248C304.565 360.672 305.224 360.215 305.954 359.906C306.684 359.597 307.471 359.442 308.264 359.451C309.914 359.466 311.497 360.108 312.692 361.247C313.887 362.385 314.605 363.935 314.7 365.582Z" fill="#263238"/>
<path d="M333.472 365.583C333.524 366.374 333.411 367.167 333.142 367.913C332.873 368.659 332.452 369.342 331.907 369.917C331.361 370.493 330.703 370.95 329.972 371.259C329.242 371.568 328.456 371.723 327.663 371.714C326.012 371.695 324.429 371.052 323.232 369.915C322.035 368.778 321.312 367.23 321.208 365.583C321.159 364.79 321.274 363.996 321.545 363.25C321.816 362.504 322.239 361.822 322.785 361.247C323.332 360.671 323.992 360.215 324.723 359.906C325.454 359.597 326.241 359.442 327.035 359.451C328.684 359.471 330.265 360.114 331.459 361.251C332.653 362.389 333.372 363.936 333.472 365.583Z" fill="#263238"/>
<path d="M352.387 365.582C352.436 366.373 352.322 367.166 352.052 367.91C351.781 368.655 351.361 369.336 350.816 369.912C350.271 370.487 349.613 370.944 348.884 371.254C348.155 371.564 347.37 371.72 346.578 371.714C344.927 371.695 343.344 371.052 342.147 369.915C340.95 368.778 340.227 367.23 340.123 365.582C340.074 364.792 340.188 363.999 340.459 363.254C340.729 362.51 341.149 361.829 341.694 361.253C342.239 360.678 342.897 360.221 343.626 359.911C344.355 359.601 345.14 359.444 345.932 359.451C347.583 359.47 349.166 360.113 350.363 361.25C351.56 362.387 352.283 363.935 352.387 365.582Z" fill="#263238"/>
<path d="M298.995 426.253C299.047 427.044 298.935 427.838 298.666 428.584C298.396 429.33 297.976 430.012 297.43 430.588C296.885 431.164 296.226 431.62 295.496 431.93C294.766 432.239 293.979 432.394 293.186 432.385C291.535 432.365 289.953 431.723 288.756 430.585C287.559 429.448 286.836 427.901 286.732 426.253C286.683 425.461 286.797 424.667 287.068 423.921C287.34 423.175 287.762 422.493 288.309 421.917C288.856 421.342 289.515 420.885 290.247 420.576C290.978 420.267 291.765 420.112 292.559 420.121C294.208 420.141 295.788 420.784 296.982 421.922C298.176 423.059 298.896 424.607 298.995 426.253Z" fill="#263238"/>
<path d="M317.837 426.253C317.886 427.044 317.772 427.836 317.502 428.581C317.232 429.326 316.811 430.007 316.266 430.582C315.721 431.157 315.064 431.614 314.335 431.924C313.606 432.234 312.82 432.391 312.028 432.385C310.377 432.365 308.795 431.723 307.598 430.585C306.401 429.448 305.678 427.901 305.574 426.253C305.522 425.462 305.634 424.668 305.903 423.922C306.173 423.176 306.593 422.494 307.139 421.918C307.684 421.342 308.343 420.886 309.073 420.576C309.803 420.267 310.59 420.112 311.383 420.121C313.034 420.141 314.616 420.783 315.813 421.921C317.01 423.058 317.733 424.605 317.837 426.253Z" fill="#263238"/>
<path d="M336.681 426.253C336.73 427.045 336.616 427.839 336.344 428.585C336.073 429.331 335.651 430.013 335.104 430.589C334.557 431.164 333.897 431.621 333.166 431.93C332.435 432.239 331.648 432.394 330.854 432.385C329.204 432.369 327.621 431.727 326.426 430.589C325.231 429.45 324.513 427.901 324.418 426.253C324.366 425.462 324.478 424.668 324.747 423.922C325.016 423.176 325.437 422.494 325.982 421.918C326.528 421.342 327.186 420.886 327.917 420.576C328.647 420.267 329.433 420.112 330.227 420.121C331.877 420.141 333.46 420.783 334.657 421.921C335.854 423.058 336.577 424.605 336.681 426.253Z" fill="#263238"/>
<path d="M355.506 426.253C355.558 427.044 355.446 427.838 355.176 428.584C354.907 429.33 354.486 430.012 353.941 430.588C353.396 431.164 352.737 431.62 352.007 431.93C351.276 432.239 350.49 432.394 349.697 432.385C348.046 432.365 346.463 431.723 345.266 430.585C344.069 429.448 343.347 427.901 343.243 426.253C343.193 425.461 343.308 424.667 343.579 423.921C343.851 423.175 344.273 422.493 344.82 421.917C345.366 421.342 346.026 420.885 346.757 420.576C347.489 420.267 348.276 420.112 349.069 420.121C350.72 420.137 352.303 420.779 353.498 421.917C354.693 423.055 355.41 424.605 355.506 426.253Z" fill="#263238"/>
<path d="M374.35 426.253C374.401 427.044 374.289 427.838 374.02 428.584C373.751 429.33 373.33 430.012 372.785 430.588C372.239 431.164 371.581 431.62 370.85 431.93C370.12 432.239 369.334 432.394 368.541 432.385C366.89 432.365 365.307 431.723 364.11 430.585C362.913 429.448 362.19 427.901 362.086 426.253C362.037 425.462 362.151 424.67 362.421 423.925C362.692 423.18 363.112 422.499 363.657 421.924C364.202 421.349 364.86 420.892 365.589 420.582C366.318 420.272 367.103 420.115 367.895 420.121C369.546 420.141 371.129 420.783 372.326 421.921C373.523 423.058 374.246 424.605 374.35 426.253Z" fill="#263238"/>
<path d="M393.192 426.253C393.241 427.045 393.126 427.839 392.855 428.585C392.584 429.331 392.161 430.013 391.615 430.589C391.068 431.164 390.408 431.621 389.677 431.93C388.946 432.239 388.159 432.394 387.365 432.385C385.716 432.365 384.135 431.722 382.941 430.584C381.747 429.447 381.028 427.899 380.928 426.253C380.876 425.462 380.989 424.668 381.258 423.922C381.527 423.176 381.948 422.494 382.493 421.918C383.039 421.342 383.697 420.886 384.428 420.576C385.158 420.267 385.944 420.112 386.737 420.121C388.388 420.141 389.971 420.783 391.168 421.921C392.365 423.058 393.088 424.605 393.192 426.253Z" fill="#263238"/>
<path d="M597.023 218.048C597.471 218.729 597.704 219.088 597.991 219.572L598.798 220.899C599.318 221.795 599.784 222.691 600.232 223.57C601.129 225.363 602.025 227.156 602.742 228.948C604.245 232.509 605.538 236.155 606.615 239.867C608.786 247.2 610.215 254.731 610.882 262.349L611.007 263.766C611.022 264.052 611.022 264.34 611.007 264.626V265.577C611.037 266.823 610.965 268.071 610.792 269.306C610.448 271.595 609.847 273.839 608.999 275.993C607.424 279.841 605.338 283.46 602.796 286.75C598.055 292.822 592.428 298.146 586.105 302.545L581.156 296.755C585.659 291.669 589.647 286.15 593.061 280.278C594.597 277.614 595.801 274.772 596.647 271.816C596.989 270.564 597.187 269.276 597.238 267.979C597.293 267.425 597.293 266.866 597.238 266.312V265.935C597.256 265.768 597.256 265.6 597.238 265.433L597.023 264.178C595.87 257.496 594.24 250.906 592.147 244.457C591.107 241.248 589.834 238.146 588.561 235.116C587.933 233.592 587.216 232.104 586.499 230.67L585.387 228.554L584.832 227.568L584.365 226.779L597.023 218.048Z" fill="#803E3C"/>
<path d="M580.349 302.581L586.839 316.297L591.984 304.697C591.984 304.697 587.412 294.657 581.227 295.589L580.349 302.581Z" fill="#7F3E3B"/>
<path d="M591.482 316.978L596.646 308.516L591.984 304.697L586.839 316.297L591.482 316.978Z" fill="#7F3E3B"/>
<path d="M562.294 633.275C563.637 633.241 564.971 633.061 566.275 632.737C566.341 632.717 566.4 632.68 566.447 632.629C566.494 632.579 566.528 632.517 566.543 632.45C566.554 632.381 566.545 632.31 566.516 632.247C566.488 632.183 566.441 632.129 566.382 632.091C565.862 631.751 561.308 628.811 559.551 629.599C559.357 629.69 559.189 629.831 559.067 630.007C558.944 630.184 558.87 630.389 558.852 630.603C558.798 630.928 558.823 631.261 558.926 631.573C559.029 631.885 559.207 632.168 559.444 632.396C560.257 633.024 561.269 633.336 562.294 633.275ZM565.253 632.217C562.653 632.755 560.681 632.665 559.874 631.966C559.709 631.802 559.589 631.6 559.523 631.378C559.457 631.155 559.448 630.92 559.498 630.693C559.498 630.388 559.677 630.299 559.802 630.245C560.77 629.815 563.406 631.087 565.253 632.217Z" fill="#407BFF"/>
<path d="M566.184 632.737H566.364C566.418 632.702 566.462 632.654 566.493 632.598C566.525 632.542 566.542 632.478 566.543 632.414C566.543 632.235 566.543 627.914 564.894 626.462C564.691 626.28 564.452 626.144 564.192 626.064C563.932 625.983 563.657 625.96 563.388 625.996C563.105 625.998 562.831 626.097 562.613 626.277C562.394 626.456 562.244 626.705 562.186 626.982C561.846 628.685 564.571 631.912 566.005 632.737H566.184ZM563.621 626.659C563.766 626.655 563.91 626.68 564.046 626.732C564.181 626.784 564.305 626.863 564.41 626.964C565.355 628.358 565.844 630.012 565.808 631.697C564.374 630.55 562.67 628.111 562.886 627.089C562.886 626.928 563.011 626.713 563.459 626.659H563.621Z" fill="#407BFF"/>
<path d="M545.369 625.96C545.411 625.907 545.439 625.844 545.448 625.778C545.458 625.711 545.449 625.643 545.424 625.581C545.398 625.519 545.356 625.464 545.302 625.424C545.249 625.383 545.185 625.358 545.118 625.35C544.383 625.35 537.947 625.045 536.477 626.623V626.731C536.355 626.886 536.276 627.07 536.248 627.265C536.22 627.46 536.243 627.659 536.315 627.842C536.411 628.15 536.58 628.43 536.808 628.658C537.036 628.886 537.316 629.055 537.624 629.151C539.704 629.797 543.379 627.448 545.387 625.996L545.369 625.96ZM537.015 627.089C537.821 626.229 541.371 625.996 544.025 626.031C541.246 627.932 538.933 628.828 537.768 628.47C537.564 628.408 537.38 628.297 537.229 628.147C537.079 627.997 536.969 627.812 536.907 627.609C536.871 627.54 536.852 627.463 536.852 627.385C536.852 627.307 536.871 627.23 536.907 627.161L537.015 627.089Z" fill="#407BFF"/>
<path d="M545.37 625.96C545.397 625.904 545.411 625.843 545.411 625.781C545.411 625.719 545.397 625.657 545.37 625.601C545.281 625.458 543.273 622.016 540.906 621.299C540.566 621.199 540.21 621.17 539.858 621.213C539.507 621.256 539.168 621.371 538.862 621.549C538.002 622.051 537.948 622.643 538.055 623.02C538.522 624.687 543.093 626.157 545.066 626.139C545.127 626.138 545.188 626.121 545.242 626.09C545.295 626.058 545.339 626.014 545.37 625.96ZM538.934 622.374C539.035 622.275 539.15 622.19 539.275 622.123C539.496 621.982 539.745 621.891 540.006 621.857C540.266 621.823 540.53 621.847 540.781 621.926C542.34 622.338 543.793 624.346 544.456 625.332C542.322 625.099 539.077 623.791 538.808 622.787C538.786 622.71 538.785 622.629 538.808 622.553C538.83 622.477 538.874 622.408 538.934 622.356V622.374Z" fill="#407BFF"/>
<path d="M565.11 165.535C563.317 174.499 559.444 193.88 565.665 199.832C565.665 199.832 563.227 208.797 546.679 208.797C528.464 208.797 537.984 199.832 537.984 199.832C547.916 197.466 547.665 190.079 545.926 183.159L565.11 165.535Z" fill="#7F3E3B"/>
<path d="M534.774 144.523C534.875 144.539 534.978 144.539 535.079 144.523C535.164 144.481 535.24 144.422 535.303 144.351C535.365 144.279 535.413 144.196 535.443 144.106C535.473 144.016 535.485 143.921 535.478 143.826C535.471 143.731 535.445 143.639 535.402 143.554C534.92 142.532 534.199 141.64 533.3 140.953C532.402 140.267 531.352 139.806 530.238 139.61C530.052 139.595 529.866 139.651 529.719 139.767C529.573 139.884 529.476 140.052 529.449 140.238C529.429 140.425 529.484 140.613 529.601 140.761C529.719 140.909 529.89 141.004 530.077 141.027C530.956 141.195 531.782 141.571 532.487 142.123C533.191 142.675 533.754 143.387 534.129 144.2C534.198 144.306 534.295 144.392 534.408 144.448C534.521 144.505 534.648 144.531 534.774 144.523Z" fill="#263238"/>
<path d="M529.343 152.393C527.931 155.01 526.17 157.423 524.107 159.565C524.666 160.076 525.329 160.459 526.05 160.688C526.771 160.917 527.534 160.987 528.285 160.891L529.343 152.393Z" fill="#630F0F"/>
<path d="M530.686 150.367C530.543 151.569 529.772 152.465 529.001 152.375C528.23 152.286 527.692 151.228 527.836 150.027C527.979 148.825 528.75 147.929 529.629 148.019C530.507 148.108 530.812 149.166 530.686 150.367Z" fill="#263238"/>
<path d="M529.862 148.126L527.101 147.015C527.101 147.015 528.266 149.381 529.862 148.126Z" fill="#263238"/>
<path d="M561.201 622.553L546.571 625.96L537.679 592.326L552.308 588.919L561.201 622.553Z" fill="#7F3E3B"/>
<path d="M583.648 632.378H568.642L569.807 597.615H584.831L583.648 632.378Z" fill="#7F3E3B"/>
<path d="M567.44 630.639H584.311C584.603 630.637 584.887 630.741 585.108 630.932C585.329 631.124 585.473 631.389 585.512 631.679L587.43 645.018C587.468 645.355 587.434 645.697 587.331 646.02C587.227 646.343 587.056 646.641 586.829 646.893C586.602 647.146 586.324 647.347 586.014 647.484C585.703 647.622 585.367 647.691 585.028 647.689C579.147 647.6 576.314 647.241 568.892 647.241C564.32 647.241 557.651 647.725 551.358 647.725C545.065 647.725 544.706 641.486 547.342 640.93C559.103 638.384 560.968 634.906 564.93 631.571C565.63 630.974 566.519 630.643 567.44 630.639Z" fill="#263238"/>
<path d="M545.281 623.719L560.61 616.673C560.87 616.549 561.167 616.524 561.444 616.603C561.722 616.682 561.96 616.86 562.116 617.103L569.449 628.434C569.62 628.726 569.728 629.05 569.766 629.386C569.805 629.722 569.772 630.062 569.671 630.385C569.569 630.707 569.401 631.005 569.178 631.259C568.954 631.513 568.68 631.717 568.373 631.858C562.994 634.225 560.269 635.103 553.528 638.205C549.387 640.106 540.978 644.48 535.277 647.169C529.575 649.859 526.635 644.283 528.787 642.669C538.414 635.498 541.175 630.352 543.38 625.673C543.753 624.811 544.43 624.116 545.281 623.719Z" fill="#263238"/>
<path opacity="0.2" d="M537.679 592.326L542.448 610.362L556.898 606.256L552.326 588.919L537.679 592.326Z" fill="black"/>
<path opacity="0.2" d="M584.831 597.615H569.807L569.215 615.543H584.239L584.831 597.615Z" fill="black"/>
<path d="M591.644 203.239C597.883 204.619 604.553 227.048 604.553 227.048L586.911 245.819C586.911 245.819 572.263 224.735 575.257 216.99C578.287 208.904 584.203 201.625 591.644 203.239Z" fill="#263238"/>
<path opacity="0.4" d="M581.676 217.528C578.521 214.641 576.387 215.502 574.935 217.797C573.501 224.466 581.999 238.433 585.423 243.722C587.001 237.411 588.812 224.108 581.676 217.528Z" fill="black"/>
<path d="M512.597 203.687C512.597 203.687 505.425 206.197 519.768 294.316H580.725C579.703 269.503 579.668 254.192 591.483 203.239C582.941 201.476 574.282 200.338 565.576 199.832C556.36 199.168 547.109 199.168 537.894 199.832C526.079 200.926 512.597 203.687 512.597 203.687Z" fill="#263238"/>
<path opacity="0.4" d="M512.041 237.5C512.435 241.785 512.955 246.608 513.637 252.058C518.639 247.558 522.726 234.757 521.22 227.299C517.647 230.2 514.55 233.642 512.041 237.5Z" fill="black"/>
<path d="M518.566 224.108C515.277 232.387 511.573 240.495 507.469 248.401C503.411 256.593 498.61 264.395 493.126 271.708L491.978 273.125L491.405 273.824C491.207 274.057 491.046 274.272 490.741 274.595C489.662 275.772 488.46 276.83 487.156 277.75C484.849 279.346 482.325 280.602 479.661 281.479C475.015 282.963 470.192 283.819 465.318 284.025C456.192 284.388 447.057 283.575 438.139 281.605L439.125 274.075C443.248 274.075 447.569 274.075 451.675 273.734C455.798 273.531 459.906 273.076 463.974 272.372C467.752 271.782 471.447 270.747 474.982 269.288C476.41 268.678 477.744 267.869 478.944 266.885C479.402 266.502 479.817 266.069 480.181 265.595C480.181 265.595 480.396 265.308 480.54 265.11L480.952 264.519L481.795 263.336C486.294 256.386 490.302 249.132 493.789 241.624C497.375 234.004 500.961 226.098 504.241 218.317L518.566 224.108Z" fill="#803E3C"/>
<path d="M512.596 203.687C505.12 205.48 495.94 225.99 495.94 225.99L511.431 248.76C511.431 248.76 532.067 222.781 529.61 214.857C527.1 206.591 521.722 201.464 512.596 203.687Z" fill="#263238"/>
<path d="M443.427 275.222L430.501 269.252L429.21 282.107C429.21 282.107 439.967 285.28 445.346 282.107L443.427 275.222Z" fill="#7F3E3B"/>
<path d="M422.774 267.961L421.537 277.75L429.211 282.107L430.501 269.252L422.774 267.961Z" fill="#7F3E3B"/>
<path d="M571.6 151.246C568.857 165.894 568.014 172.169 559.623 178.82C547.073 188.824 529.593 182.262 527.908 167.095C526.366 153.433 531.099 131.775 546.285 127.652C549.63 126.729 553.155 126.678 556.525 127.505C559.896 128.331 562.998 130.008 565.536 132.374C568.075 134.739 569.965 137.716 571.026 141.02C572.088 144.324 572.285 147.844 571.6 151.246Z" fill="#7F3E3B"/>
<path d="M539.418 154.33C538.575 161.806 538.252 181.222 554.675 181.832C574.773 182.567 580.797 165.392 579.004 158.525C589.475 150.009 590.981 135.361 579.219 124.156C567.458 112.95 541.569 119.207 534.398 130.126C525.308 143.662 539.418 154.33 539.418 154.33Z" fill="#263238"/>
<path d="M559.552 128.512C558.584 120.624 559.337 115.191 566.723 115.191C574.11 115.191 584.186 117.863 587.879 125.411C591.572 132.959 591.877 144.774 581.568 143.572C571.259 142.371 560.717 137.943 559.552 128.512Z" fill="#407BFF"/>
<path d="M570.99 126.612C569.197 117.217 577.606 90.7547 598.026 88.9618C607.493 88.155 611.867 98.3385 606.991 100.024C615.955 99.9162 621.692 111.767 613.337 113.542C619.935 117.773 618.304 126.451 608.891 130.718C601.881 133.945 573.41 139.628 570.99 126.612Z" fill="#263238"/>
<path d="M592.809 136.706C586.229 136.706 579.363 135.738 575.095 132.887C573.902 132.168 572.898 131.175 572.165 129.99C571.433 128.805 570.993 127.463 570.882 126.074C570.877 125.956 570.917 125.841 570.993 125.751C571.07 125.661 571.177 125.603 571.295 125.59C571.354 125.582 571.414 125.587 571.472 125.605C571.529 125.622 571.582 125.65 571.628 125.689C571.673 125.728 571.71 125.776 571.736 125.83C571.762 125.884 571.777 125.943 571.779 126.002C571.887 127.255 572.289 128.465 572.952 129.534C573.616 130.602 574.522 131.499 575.597 132.152C583.719 137.53 602.49 135.738 608.335 133.945C613.391 132.295 616.815 129.086 617.497 125.393C617.709 124.037 617.542 122.65 617.013 121.384C616.485 120.118 615.616 119.023 614.503 118.221C614.46 118.181 614.426 118.132 614.402 118.079C614.379 118.025 614.367 117.966 614.367 117.908C614.367 117.849 614.379 117.791 614.402 117.737C614.426 117.683 614.46 117.634 614.503 117.594C614.586 117.512 614.699 117.466 614.816 117.466C614.934 117.466 615.046 117.512 615.13 117.594C616.382 118.507 617.355 119.75 617.94 121.184C618.526 122.618 618.701 124.187 618.447 125.715C617.712 129.749 614.072 133.192 608.694 134.949C603.504 136.257 598.159 136.848 592.809 136.706Z" fill="#263238"/>
<path d="M534.846 152.393C533.176 154.735 532.488 157.637 532.927 160.479C533.519 164.244 537.177 164.495 539.83 162.093C542.483 159.69 544.796 155.352 542.842 152.232C542.408 151.558 541.808 151.007 541.1 150.63C540.393 150.253 539.6 150.064 538.799 150.08C537.997 150.096 537.213 150.317 536.521 150.722C535.829 151.127 535.253 151.702 534.846 152.393Z" fill="#7F3E3B"/>
<path d="M535.868 294.316C535.868 294.316 544.581 397.388 553.635 455.477C560.932 502.396 566.705 612.065 566.705 612.065H587.18C587.18 612.065 594.459 505.677 590.766 459.278C581.389 341.845 602.312 332.271 580.779 294.334L535.868 294.316Z" fill="#407BFF"/>
<path opacity="0.4" d="M561.65 333.275C553.535 341.791 546.987 351.672 542.305 362.463C544.689 385.627 547.522 411.336 550.534 433.855C562.893 401.858 566.724 367.198 561.65 333.275Z" fill="black"/>
<path d="M521.543 293.671C521.543 293.671 502.628 406.245 499.652 456.983C507.075 503.902 537.446 603.083 537.446 603.083L556.074 596.324C556.074 596.324 545.765 488.178 534.559 458.578C559.785 373.65 578.323 352.172 572.927 294.316C560 294.316 521.543 293.671 521.543 293.671Z" fill="#407BFF"/>
<path d="M534.953 608.031L560.125 601.2L558.691 591.16L531.744 598.457L534.953 608.031Z" fill="#263238"/>
<path d="M563.889 612.478H589.976L591.338 603.334L563.746 602.402L563.889 612.478Z" fill="#263238"/>
<path d="M581.676 290.731L584.419 296.199C584.634 296.629 584.132 297.059 583.433 297.059H519.464C518.926 297.059 518.46 296.79 518.424 296.432L517.868 291.053C517.868 290.677 518.316 290.354 518.908 290.354H580.672C580.858 290.329 581.046 290.35 581.222 290.416C581.397 290.481 581.553 290.59 581.676 290.731Z" fill="#407BFF"/>
<path opacity="0.5" d="M581.676 290.731L584.419 296.199C584.634 296.629 584.132 297.059 583.433 297.059H519.464C518.926 297.059 518.46 296.79 518.424 296.432L517.868 291.053C517.868 290.677 518.316 290.354 518.908 290.354H580.672C580.858 290.329 581.046 290.35 581.222 290.416C581.397 290.481 581.553 290.59 581.676 290.731Z" fill="black"/>
<path d="M573.374 297.615H575.024C575.364 297.615 575.615 297.436 575.597 297.239L574.809 290.067C574.809 289.852 574.504 289.691 574.181 289.691H572.514C572.191 289.691 571.94 289.852 571.958 290.067L572.729 297.239C572.765 297.472 573.052 297.615 573.374 297.615Z" fill="#407BFF"/>
<path d="M551.179 245.407C550.981 245.404 550.789 245.338 550.631 245.219C550.473 245.1 550.358 244.933 550.3 244.744C544.456 223.122 532.372 205.301 526.509 202.611C526.054 202.332 525.507 202.241 524.985 202.36C524.877 202.417 524.758 202.452 524.636 202.461C524.514 202.47 524.392 202.455 524.276 202.415C524.16 202.375 524.054 202.312 523.963 202.23C523.873 202.147 523.8 202.047 523.75 201.936C523.7 201.824 523.673 201.703 523.671 201.581C523.669 201.459 523.692 201.337 523.739 201.224C523.786 201.111 523.856 201.009 523.943 200.924C524.031 200.838 524.136 200.772 524.25 200.729C524.74 200.549 525.264 200.478 525.784 200.521C526.304 200.565 526.809 200.721 527.262 200.98C533.466 203.92 545.729 221.49 551.86 243.596C556.253 243.596 563.03 243.005 564.679 242.861C566.723 240.423 581.747 221.634 576.136 201.069C576.103 200.956 576.094 200.838 576.108 200.721C576.122 200.605 576.16 200.492 576.218 200.39C576.277 200.288 576.355 200.199 576.449 200.128C576.542 200.056 576.649 200.005 576.763 199.976C576.991 199.915 577.234 199.947 577.439 200.065C577.644 200.182 577.794 200.376 577.857 200.603C584.114 223.48 565.97 244.116 565.773 244.313C565.703 244.4 565.616 244.472 565.517 244.525C565.419 244.577 565.31 244.609 565.199 244.618C565.11 244.618 556.163 245.407 551.179 245.407Z" fill="#407BFF"/>
<path d="M580.887 258.065C571.116 239.759 567.118 238.469 565.379 232.588C566.696 229.3 568.577 226.266 570.936 223.624C569.753 223.283 567.207 222.781 565.558 222.476C565.737 221.669 565.934 220.881 566.114 220.11C564.319 219.909 562.503 219.994 560.735 220.361V218.568C558.458 218.072 556.119 217.921 553.797 218.12C554 218.968 554.197 219.829 554.388 220.701C552.595 221.042 549.87 221.598 548.561 221.974C551.105 224.855 552.973 228.266 554.03 231.96C548.759 241.014 528.284 299.211 561.596 303.675C594.907 308.139 590.64 276.388 580.887 258.065Z" fill="#407BFF"/>
<path opacity="0.4" d="M580.887 258.065C571.116 239.759 567.118 238.469 565.379 232.588C566.696 229.3 568.577 226.266 570.936 223.624C569.753 223.283 567.207 222.781 565.558 222.476C565.737 221.669 565.934 220.881 566.114 220.11C564.319 219.909 562.503 219.994 560.735 220.361V218.568C558.458 218.072 556.119 217.921 553.797 218.12C554 218.968 554.197 219.829 554.388 220.701C552.595 221.042 549.87 221.598 548.561 221.974C551.105 224.855 552.973 228.266 554.03 231.96C548.759 241.014 528.284 299.211 561.596 303.675C594.907 308.139 590.64 276.388 580.887 258.065Z" fill="white"/>
<path d="M552.667 230.221C552.459 231.145 552.369 232.09 552.398 233.036C552.398 233.7 554.191 234.148 556.181 234.345C558.171 234.542 566.526 234.865 566.257 233.933C565.988 233 566.669 231.727 566.705 230.939C566.741 230.15 563.388 230.114 560.573 230.221C557.759 230.329 553.223 229.217 552.667 230.221Z" fill="#407BFF"/>
<path d="M533.285 297.615H534.935C535.257 297.615 535.508 297.436 535.491 297.239L534.72 290.067C534.72 289.852 534.415 289.691 534.074 289.691H532.479C532.156 289.691 531.905 289.852 531.923 290.067L532.694 297.239C532.658 297.472 532.945 297.615 533.285 297.615Z" fill="#407BFF"/>
</svg>
