<svg width="1220" height="869" viewBox="0 0 1220 869" fill="none" xmlns="http://www.w3.org/2000/svg">
<path d="M1219.51 758.537H0V759.146H1219.51V758.537Z" fill="#EBEBEB"/>
<path d="M1086 786.464H961.854V787.074H1086V786.464Z" fill="#EBEBEB"/>
<path d="M243.098 779.244H127.951V779.854H243.098V779.244Z" fill="#EBEBEB"/>
<path d="M970.732 775.146H923.927V775.756H970.732V775.146Z" fill="#EBEBEB"/>
<path d="M807.854 791.317H773.512V791.927H807.854V791.317Z" fill="#EBEBEB"/>
<path d="M751.78 791.317H665.341V791.927H751.78V791.317Z" fill="#EBEBEB"/>
<path d="M615.146 781.024H476.146V781.634H615.146V781.024Z" fill="#EBEBEB"/>
<path d="M952.122 34.8052H703.829V758.537H952.122V34.8052Z" fill="#EBEBEB"/>
<path d="M935.366 743.903V49.4395L720.585 49.4395V743.903H935.366Z" fill="#FAFAFA"/>
<path d="M696.39 34.8052H448.098V758.537H696.39V34.8052Z" fill="#EBEBEB"/>
<path d="M696.39 755.708H703.829L703.829 37.6587H696.39L696.39 755.708Z" fill="#E0E0E0"/>
<path d="M679.634 743.878V49.415L464.854 49.415V743.878H679.634Z" fill="#FAFAFA"/>
<path d="M1065.54 29.3662H334.683C333.825 29.3598 333.003 29.016 332.396 28.4091C331.789 27.8021 331.445 26.9807 331.439 26.1223C331.445 25.264 331.789 24.4426 332.396 23.8356C333.003 23.2286 333.825 22.8848 334.683 22.8784H1065.54C1066.39 22.8848 1067.22 23.2286 1067.82 23.8356C1068.43 24.4426 1068.77 25.264 1068.78 26.1223C1068.77 26.9807 1068.43 27.8021 1067.82 28.4091C1067.22 29.016 1066.39 29.3598 1065.54 29.3662Z" fill="#E0E0E0"/>
<path d="M935.366 63.2687V49.4395L720.585 49.4395V63.2687L935.366 63.2687Z" fill="#E0E0E0"/>
<path d="M935.366 72.7321V49.415L720.585 49.415V72.7321L935.366 72.7321Z" fill="#E0E0E0"/>
<path d="M679.634 100.366V49.415L464.854 49.415V100.366L679.634 100.366Z" fill="#E0E0E0"/>
<g opacity="0.8">
<path d="M984 7.70752H915.22V749.634H984V7.70752Z" fill="#F5F5F5"/>
<path d="M965.854 7.70752H933.391V749.634H965.854V7.70752Z" fill="#F0F0F0"/>
<path d="M1020.9 7.70752H952.122V749.634H1020.9V7.70752Z" fill="#F5F5F5"/>
<path d="M1002.76 7.70752H970.293V749.634H1002.76V7.70752Z" fill="#F0F0F0"/>
<path d="M1055.29 7.70752H986.513V749.634H1055.29V7.70752Z" fill="#F5F5F5"/>
</g>
<g opacity="0.8">
<path d="M442.585 7.70752H342.756V749.634H442.585V7.70752Z" fill="#F5F5F5"/>
<path d="M416.219 7.70752H369.097V749.634H416.219V7.70752Z" fill="#F0F0F0"/>
<path d="M496.122 7.70752H396.292V749.634H496.122V7.70752Z" fill="#F5F5F5"/>
<path d="M469.756 7.70752H422.634V749.634H469.756V7.70752Z" fill="#F0F0F0"/>
<path d="M546.024 7.70752H446.195V749.634H546.024V7.70752Z" fill="#F5F5F5"/>
</g>
<path d="M295.366 83.7319H134.317V446.342H295.366V83.7319Z" fill="#F0F0F0"/>
<path d="M295.366 446.366H300.439L300.439 83.7565H295.366L295.366 446.366Z" fill="#E6E6E6"/>
<path d="M280.732 431.708V98.3662L148.951 98.3662L148.951 431.708H280.732Z" fill="#FAFAFA"/>
<path d="M305.512 626.025H140.195C136.559 626.018 133.074 624.573 130.501 622.004C127.928 619.436 126.476 615.953 126.463 612.317C126.476 608.682 127.928 605.199 130.501 602.63C133.074 600.062 136.559 598.616 140.195 598.61H305.512C309.144 598.623 312.623 600.071 315.191 602.639C317.758 605.207 319.207 608.686 319.219 612.317C319.207 615.949 317.758 619.428 315.191 621.996C312.623 624.563 309.144 626.012 305.512 626.025Z" fill="#F5F5F5"/>
<path d="M179.951 626.024H152.805L121.951 758.537H149.073L179.951 626.024Z" fill="#E6E6E6"/>
<path d="M234.097 626.024H206.975L191.78 758.537H218.902L234.097 626.024Z" fill="#E6E6E6"/>
<path d="M265.756 626.024H292.878L323.756 758.537H296.61L265.756 626.024Z" fill="#E6E6E6"/>
<path d="M609.756 868.683C870.933 868.683 1082.66 856.322 1082.66 841.074C1082.66 825.825 870.933 813.464 609.756 813.464C348.579 813.464 136.854 825.825 136.854 841.074C136.854 856.322 348.579 868.683 609.756 868.683Z" fill="#F5F5F5"/>
<path d="M767.244 553.561H559.122C555.175 553.561 551.976 556.761 551.976 560.707V568.903C551.976 572.849 555.175 576.049 559.122 576.049H767.244C771.191 576.049 774.39 572.849 774.39 568.903V560.707C774.39 556.761 771.191 553.561 767.244 553.561Z" fill="#263238"/>
<path d="M765.269 826.439H774.391L763.903 576.049H751.269L765.269 826.439Z" fill="#407BFF"/>
<path opacity="0.6" d="M765.269 826.439H774.391L763.903 576.049H751.269L765.269 826.439Z" fill="white"/>
<path d="M681.293 826.439H672.171L682.659 576.049H695.293L681.293 826.439Z" fill="#407BFF"/>
<path opacity="0.6" d="M681.293 826.439H672.171L682.659 576.049H695.293L681.293 826.439Z" fill="white"/>
<path d="M645.098 826.439H654.22L643.707 576.049H631.098L645.098 826.439Z" fill="#407BFF"/>
<path opacity="0.6" d="M645.098 826.439H654.22L643.707 576.049H631.098L645.098 826.439Z" fill="white"/>
<path d="M561.098 826.439H551.976L562.488 576.049H575.098L561.098 826.439Z" fill="#407BFF"/>
<path opacity="0.6" d="M561.098 826.439H551.976L562.488 576.049H575.098L561.098 826.439Z" fill="white"/>
<g opacity="0.3">
<path d="M763.903 576.024H751.269L751.854 586.683H764.342L763.903 576.024Z" fill="#407BFF"/>
<path d="M682.22 586.683H694.683L695.293 576.024H682.659L682.22 586.683Z" fill="#407BFF"/>
<path d="M631.098 576.024L631.683 586.683H644.171L643.707 576.024H631.098Z" fill="#407BFF"/>
<path d="M562.024 586.683H574.537L575.122 576.024H562.488L562.024 586.683Z" fill="#407BFF"/>
</g>
<path d="M639.22 789.634L618.585 800.61L586.049 756.683L606.707 745.708L639.22 789.634Z" fill="#FFB573"/>
<path d="M611.122 793.829L632.683 778.854C632.859 778.703 633.065 778.591 633.287 778.526C633.51 778.46 633.743 778.441 633.973 778.471C634.203 778.501 634.424 778.578 634.622 778.699C634.82 778.82 634.99 778.98 635.122 779.171L648.024 795.488C648.645 796.387 648.888 797.494 648.701 798.57C648.514 799.646 647.912 800.606 647.024 801.244C639.439 806.317 636.025 808.097 626.098 814C619.976 817.61 605.342 826.195 596.342 830.122C587.342 834.049 583.732 825.024 587.195 822.561C595.415 816.756 606.293 805.341 608.756 797.317C609.136 795.924 609.969 794.697 611.122 793.829Z" fill="#263238"/>
<path opacity="0.2" d="M606.732 745.732L586.049 756.683L601.732 777.854L621.927 766.244L606.732 745.732Z" fill="black"/>
<path d="M656.561 485.536C656.561 485.536 496.22 480.537 495.586 547.537C494.805 643.829 586.195 770.293 586.195 770.293L621.951 746.512C621.951 746.512 559.317 654.585 558.781 579.415C606.025 566.073 717.317 574.536 731.732 535.268C743.537 503.219 737.366 485.536 737.366 485.536H656.561Z" fill="#407BFF"/>
<path opacity="0.2" d="M656.561 485.536C656.561 485.536 496.22 480.537 495.586 547.537C494.805 643.829 586.195 770.293 586.195 770.293L621.951 746.512C621.951 746.512 559.317 654.585 558.781 579.415C606.025 566.073 717.317 574.536 731.732 535.268C743.537 503.219 737.366 485.536 737.366 485.536H656.561Z" fill="black"/>
<path d="M631.659 752.634L589.122 778.683L575.781 765.146L622.512 735.708L631.659 752.634Z" fill="#263238"/>
<path d="M606.659 801.903C608.362 800.671 609.917 799.247 611.293 797.659C611.366 797.581 611.414 797.483 611.431 797.378C611.448 797.273 611.433 797.165 611.388 797.068C611.344 796.972 611.272 796.89 611.181 796.835C611.09 796.779 610.985 796.752 610.878 796.756C609.976 796.756 601.976 796.756 600.269 799.366C600.073 799.658 599.955 799.994 599.925 800.344C599.895 800.694 599.955 801.046 600.098 801.366C600.259 801.872 600.552 802.326 600.946 802.681C601.34 803.037 601.822 803.282 602.342 803.39C603.915 803.443 605.452 802.913 606.659 801.903ZM609.61 797.878C606.659 800.951 604.049 802.586 602.537 802.317C602.198 802.243 601.886 802.075 601.636 801.834C601.387 801.593 601.209 801.288 601.122 800.951C601.032 800.805 600.983 800.636 600.983 800.464C600.983 800.291 601.032 800.122 601.122 799.976C602.098 798.61 606.415 798 609.61 797.878Z" fill="#407BFF"/>
<path d="M611.195 797.756C611.265 797.703 611.323 797.637 611.366 797.561C611.413 797.48 611.438 797.387 611.438 797.293C611.438 797.199 611.413 797.106 611.366 797.025C611.22 796.781 607.805 790.976 604.586 790.439C604.152 790.355 603.705 790.375 603.281 790.498C602.856 790.621 602.468 790.843 602.147 791.147C601.779 791.42 601.513 791.808 601.389 792.25C601.266 792.691 601.292 793.161 601.464 793.586C602.488 796.025 608.122 798 610.829 797.83L611.195 797.756ZM603.171 791.708C603.347 791.576 603.549 791.483 603.763 791.433C603.977 791.382 604.198 791.376 604.415 791.415C606.342 791.732 608.683 794.781 609.903 796.634C607.244 796.39 603.244 794.683 602.586 793.098C602.464 792.805 602.39 792.39 603 791.854C603.049 791.903 603.098 791.83 603.171 791.708Z" fill="#407BFF"/>
<path d="M601.049 816.561L577.878 815.464L574.073 760.756L597.244 761.854L601.049 816.561Z" fill="#FFB573"/>
<path d="M577.342 811.512L603.561 810.683C604.004 810.649 604.442 810.792 604.78 811.08C605.118 811.368 605.329 811.777 605.366 812.22L607.293 832.927C607.333 834.023 606.937 835.09 606.192 835.894C605.446 836.699 604.413 837.175 603.317 837.22C594.195 837.22 589.805 836.951 578.269 837.22C571.171 837.439 557.22 838.488 547.488 837.22C537.756 835.951 539.244 826.415 543.464 826.049C553.488 825.244 566.927 818.317 573.366 812.927C574.499 812.031 575.897 811.533 577.342 811.512Z" fill="#263238"/>
<path d="M569.195 815.83C571.292 815.717 573.369 815.373 575.39 814.805C575.492 814.779 575.584 814.723 575.654 814.645C575.724 814.567 575.77 814.469 575.785 814.366C575.801 814.262 575.786 814.156 575.741 814.06C575.697 813.965 575.626 813.885 575.537 813.83C574.781 813.342 568.025 808.951 565.22 810.22C564.899 810.36 564.619 810.578 564.406 810.856C564.193 811.133 564.053 811.459 564 811.805C563.856 812.316 563.85 812.857 563.983 813.371C564.115 813.885 564.382 814.355 564.756 814.732C566.044 815.646 567.63 816.038 569.195 815.83ZM573.854 814.073C569.707 815.025 566.537 815 565.512 813.951C565.274 813.698 565.106 813.387 565.025 813.049C564.944 812.712 564.952 812.358 565.049 812.025C565.069 811.855 565.134 811.693 565.237 811.556C565.34 811.419 565.477 811.311 565.634 811.244C567.146 810.586 571.098 812.415 573.854 814.073Z" fill="#407BFF"/>
<path d="M575.268 814.829C575.348 814.851 575.432 814.851 575.512 814.829C575.592 814.786 575.658 814.723 575.706 814.646C575.753 814.569 575.779 814.48 575.781 814.39C575.781 814.097 576.122 807.366 573.683 805.171C573.364 804.865 572.975 804.642 572.549 804.523C572.124 804.404 571.675 804.392 571.244 804.488C570.777 804.513 570.333 804.696 569.983 805.006C569.634 805.316 569.399 805.735 569.317 806.195C568.854 808.634 572.488 813.512 574.854 814.829C574.988 814.874 575.134 814.874 575.268 814.829ZM571.781 805.463C571.996 805.45 572.211 805.483 572.413 805.558C572.614 805.634 572.798 805.751 572.951 805.902C574.415 807.219 574.707 811.049 574.732 813.219C572.634 811.561 570.195 807.951 570.512 806.268C570.512 805.951 570.732 805.561 571.512 805.439L571.781 805.463Z" fill="#407BFF"/>
<path opacity="0.2" d="M597.268 761.854L574.073 760.756L576.244 792.049L599.366 792.025L597.268 761.854Z" fill="black"/>
<path d="M713.586 485.537C713.586 485.537 545.829 501.39 551.927 551.902C560.756 624.732 565.098 781.707 565.098 781.707L607.854 783.39C607.854 783.39 625.976 641.927 616.61 567.22C660.025 567.22 766.317 570.341 776 544.195C784.561 521.073 781.512 485.659 781.512 485.659L713.586 485.537Z" fill="#407BFF"/>
<path d="M612.586 786.025L561.269 783.488L559.415 761.146L615.708 765.025L612.586 786.025Z" fill="#263238"/>
<path d="M676.366 337.585C676.049 341.683 675.732 345.244 675.269 349C674.805 352.756 674.317 356.317 673.732 360.122C672.586 367.439 671.122 374.756 669.415 382.244C666.091 397.715 660.684 412.665 653.342 426.683C651.15 430.621 648.629 434.366 645.805 437.878C642.648 441.842 638.916 445.311 634.732 448.171C626.683 453.516 617.374 456.661 607.732 457.293C599.289 457.846 590.813 457.022 582.634 454.854C578.775 453.866 574.979 452.645 571.269 451.195C569.415 450.488 567.61 449.707 565.83 448.756C564.049 447.805 562.391 447.024 560.342 445.927L566.756 429.61L571.415 430.195L576.293 430.683C579.561 430.951 582.781 431.122 586.049 431.122C591.974 431.222 597.887 430.542 603.634 429.098C608.24 427.993 612.503 425.773 616.049 422.634C617.57 421.212 618.927 419.625 620.098 417.903C621.539 415.684 622.826 413.37 623.952 410.976C626.531 405.379 628.644 399.579 630.269 393.634C632.122 387.464 633.61 381 634.952 374.415C636.293 367.829 637.391 361.171 638.488 354.464L639.927 344.366C640.366 341.049 640.854 337.488 641.171 334.61L676.366 337.585Z" fill="#FFB573"/>
<path d="M676.512 317.707C659.439 301.146 638.219 310.927 629.78 342.098C625.004 358.737 621.739 375.774 620.024 393L674.341 404.22C684.22 374.488 694.073 334.683 676.512 317.707Z" fill="#263238"/>
<path opacity="0.3" d="M659.025 351.61C662.903 348.122 673.927 363.805 680.659 383.146C678.756 390.464 676.586 397.512 674.366 404.122L641.683 397.366C644.293 378.049 650.317 359.464 659.025 351.61Z" fill="black"/>
<path d="M563.074 422.293L550.878 417.634L550.342 443.512C550.342 443.512 570.83 452.366 575 442.195L573.537 435.732C572.831 432.884 571.535 430.216 569.732 427.901C567.93 425.586 565.661 423.675 563.074 422.293Z" fill="#FFB573"/>
<path d="M536.488 418.317L529.293 440.025L550.439 443.512L550.976 417.634L536.488 418.317Z" fill="#FFB573"/>
<path d="M554.927 435.61C554.67 435.614 554.416 435.545 554.196 435.412C553.976 435.278 553.798 435.084 553.683 434.854L531.903 392.927C531.73 392.597 531.695 392.212 531.804 391.856C531.914 391.499 532.16 391.201 532.488 391.025C532.823 390.86 533.208 390.832 533.562 390.946C533.917 391.059 534.214 391.306 534.391 391.634L556.098 433.488C556.271 433.818 556.306 434.203 556.196 434.56C556.087 434.916 555.841 435.214 555.513 435.391C555.334 435.501 555.135 435.576 554.927 435.61Z" fill="#263238"/>
<path d="M674.488 301.098L700.537 293.78L734 292.22C739.083 291.976 744.104 293.41 748.291 296.301C752.478 299.192 755.598 303.38 757.171 308.22C763.537 327.732 769.366 355.829 773.683 380.146C778.561 407.439 781 448.439 781.512 485.658H656.561C653.708 407.976 643.83 362.049 639.488 336.634C638.622 331.653 639.413 326.526 641.739 322.037C644.065 317.548 647.798 313.946 652.366 311.78L674.488 301.098Z" fill="#263238"/>
<path opacity="0.3" d="M773.683 380.049C770.317 360.903 765.976 339.342 761.147 321.512C738.878 317.756 728.098 366.586 734.708 390.805C741.317 415.025 776.561 400.342 776.561 400.342C775.732 393.049 774.756 386.195 773.683 380.049Z" fill="black"/>
<path d="M696.098 242.927C701.463 256.098 698.244 280.244 687.659 273.415C677.073 266.585 692.829 234.927 696.098 242.927Z" fill="#263238"/>
<path d="M690.244 251.366L680.122 266.829L666.366 287.878C668.143 289.679 669.581 291.786 670.61 294.097C673.049 299.171 675.22 302.951 664.561 310.219C663.416 310.954 662.506 312.002 661.94 313.238C661.373 314.475 661.174 315.848 661.366 317.195C662 320.488 665.268 323.683 676.756 321.658C687.827 319.539 697.93 313.932 705.585 305.658C709.415 301.829 708.537 298.951 704.854 294.975C694.317 283.756 691.195 265.829 690.244 251.366Z" fill="#FFB573"/>
<path opacity="0.2" d="M669.659 282.683L678.098 267.683C678.277 268.073 678.472 268.488 678.683 268.927C679.433 270.779 680.036 272.688 680.488 274.634C682.025 281.293 676.854 290.805 671.171 295.342L670.512 294.049C669.489 291.889 668.176 289.879 666.61 288.073C666.51 287.974 666.395 287.892 666.269 287.829L669.659 282.683Z" fill="black"/>
<path d="M619 233.171C615.854 240.268 627 260.366 639.756 252.244C652.512 244.122 624.561 220.61 619 233.171Z" fill="#263238"/>
<path d="M680.488 325.976C680.32 325.978 680.156 325.921 680.027 325.813C679.897 325.706 679.81 325.556 679.781 325.39C678.854 319.366 674.903 315.634 670.439 311.098C664.781 305.561 658.366 299.269 656.269 286.951C656.236 286.77 656.277 286.584 656.382 286.433C656.488 286.282 656.648 286.179 656.83 286.147C657.011 286.114 657.197 286.155 657.348 286.26C657.499 286.366 657.602 286.526 657.634 286.708C659.683 298.586 665.927 304.708 671.415 310.098C675.927 314.512 680.171 318.683 681.171 325.171C681.188 325.263 681.187 325.357 681.166 325.448C681.146 325.539 681.107 325.625 681.052 325.7C680.998 325.775 680.928 325.839 680.848 325.886C680.767 325.934 680.678 325.964 680.586 325.976H680.488Z" fill="white"/>
<path d="M685.683 226.024C690.561 248.122 694.366 260.829 686.488 274.805C674.586 295.951 644.83 293.073 633.513 272.732C623.317 254.439 617.244 221.366 636.196 207.097C640.436 203.945 645.403 201.914 650.637 201.192C655.871 200.47 661.203 201.082 666.138 202.969C671.073 204.856 675.451 207.959 678.868 211.989C682.285 216.019 684.629 220.847 685.683 226.024Z" fill="#FFB573"/>
<path d="M692.244 241.195C684.634 252 664.683 232.171 666.317 218.854C646.512 230.122 625 245.171 611.951 232.488C596.878 217.854 601 196.878 618.659 195C615.537 201.098 633.293 203.805 642.732 194.39C658.707 178.585 683.951 181.878 683.488 194.683C695.659 189.854 708.951 217.463 692.244 241.195Z" fill="#263238"/>
<path d="M681.147 198.268C685.854 194.756 682.732 182.244 671.805 178.585C682.195 179.927 692.951 187.659 681.147 198.268Z" fill="#263238"/>
<path d="M699.293 240.22C699.503 245.272 697.854 250.227 694.659 254.147C690.464 259.147 684 255.171 682.464 248.927C681.122 243.342 682.854 234.683 688.366 232C693.878 229.317 699 233.927 699.293 240.22Z" fill="#FFB573"/>
<path d="M653.976 243.951C654.561 245.732 654.122 247.537 652.951 247.951C651.781 248.366 650.512 247.268 649.805 245.512C649.098 243.756 649.659 241.927 650.829 241.488C652 241.049 653.39 242.146 653.976 243.951Z" fill="#263238"/>
<path d="M633.976 251.268C634.585 253.073 634.122 254.878 632.951 255.293C631.781 255.707 630.39 254.61 629.805 252.854C629.22 251.097 629.683 249.268 630.829 248.853C631.976 248.439 633.39 249.488 633.976 251.268Z" fill="#263238"/>
<path d="M640.829 250.244C640.909 255.579 640.286 260.901 638.976 266.073C642.561 267.39 646.512 264.293 646.512 264.293L640.829 250.244Z" fill="#ED893E"/>
<path d="M651.537 274.219C653.614 273.537 655.531 272.439 657.17 270.992C658.81 269.546 660.138 267.781 661.074 265.805C661.131 265.669 661.132 265.516 661.077 265.379C661.023 265.242 660.916 265.132 660.781 265.073C660.642 265.024 660.489 265.029 660.353 265.088C660.217 265.147 660.109 265.255 660.049 265.39C659.002 267.52 657.478 269.381 655.596 270.827C653.713 272.274 651.524 273.268 649.196 273.732C649.119 273.742 649.046 273.767 648.98 273.806C648.914 273.846 648.857 273.898 648.812 273.961C648.767 274.023 648.735 274.095 648.719 274.17C648.703 274.245 648.702 274.323 648.717 274.398C648.733 274.473 648.763 274.545 648.807 274.608C648.851 274.671 648.907 274.725 648.973 274.765C649.038 274.806 649.111 274.832 649.187 274.843C649.263 274.854 649.341 274.849 649.415 274.829C650.135 274.673 650.844 274.469 651.537 274.219Z" fill="#263238"/>
<path d="M655.805 236.195C655.975 236.115 656.119 235.988 656.22 235.829C656.376 235.58 656.428 235.279 656.364 234.991C656.3 234.704 656.126 234.453 655.878 234.293C654.436 233.319 652.775 232.716 651.043 232.537C649.312 232.359 647.563 232.61 645.952 233.268C645.817 233.329 645.696 233.415 645.595 233.524C645.495 233.632 645.417 233.759 645.367 233.898C645.317 234.037 645.295 234.185 645.303 234.332C645.312 234.48 645.35 234.624 645.415 234.756C645.546 235.02 645.776 235.221 646.054 235.317C646.332 235.413 646.637 235.395 646.903 235.268C648.175 234.777 649.546 234.601 650.901 234.754C652.255 234.906 653.553 235.384 654.683 236.146C654.847 236.26 655.039 236.325 655.237 236.334C655.436 236.342 655.633 236.294 655.805 236.195Z" fill="#263238"/>
<path d="M630.025 239.707C630.071 239.523 630.071 239.33 630.025 239.146C629.907 238.876 629.687 238.663 629.413 238.553C629.139 238.444 628.833 238.447 628.561 238.561C626.937 239.191 625.494 240.213 624.362 241.537C623.23 242.86 622.444 244.444 622.073 246.146C622.025 246.434 622.093 246.73 622.262 246.967C622.431 247.205 622.688 247.366 622.976 247.415C623.264 247.463 623.559 247.395 623.797 247.226C624.035 247.057 624.196 246.8 624.244 246.512C624.562 245.182 625.198 243.95 626.099 242.921C627 241.893 628.138 241.099 629.415 240.61C629.585 240.523 629.73 240.395 629.837 240.237C629.943 240.08 630.008 239.897 630.025 239.707Z" fill="#263238"/>
<path d="M752.854 308.781C755.293 312.732 757.244 316.293 759.269 320.098C761.293 323.903 763.244 327.61 765.147 331.415C769 339 772.464 346.805 775.83 354.756C779.195 362.708 782.147 370.903 784.683 379.439C787.458 388.399 789.322 397.617 790.244 406.951C790.737 412.401 790.548 417.89 789.683 423.293C789.126 426.857 788.041 430.318 786.464 433.561C784.636 437.227 782.099 440.493 779 443.171C776.21 445.596 773.026 447.526 769.586 448.878C766.699 450.013 763.698 450.83 760.634 451.317C755.462 452.126 750.208 452.265 745 451.732C740.35 451.337 735.735 450.595 731.195 449.512C726.861 448.526 722.579 447.321 718.366 445.903C710.087 443.161 702.044 439.752 694.317 435.708L700.488 419.293C715.659 422.171 731.951 424.83 745.634 424C748.627 423.844 751.59 423.336 754.464 422.488C756.903 421.756 758.147 420.659 758.049 420.317C757.951 419.976 757.903 420.317 757.854 420.073C757.805 419.83 757.854 419.805 757.854 418.561C758.005 415.82 757.842 413.07 757.366 410.366C756.199 403.405 754.378 396.57 751.927 389.951C749.488 382.878 746.537 375.732 743.342 368.659C740.147 361.586 736.708 354.488 733.22 347.415C731.464 343.87 729.651 340.366 727.781 336.903L722.269 326.683L752.854 308.781Z" fill="#FFB573"/>
<path d="M741.463 292.463C717.902 288.878 706.317 309.098 717.415 339.293C723.145 355.626 730.345 371.406 738.927 386.439L789.732 364.171C780.488 334.293 765.561 296.146 741.463 292.463Z" fill="#263238"/>
<path d="M687.415 417.049L676.537 420.317L691.976 442.268C691.976 442.268 714.854 434.073 710.171 424.122L704.415 420.854C699.488 418 693.244 415.049 687.415 417.049Z" fill="#FFB573"/>
<path d="M666.903 435.439L677.805 446.317L691.976 442.244L676.537 420.317L666.903 435.439Z" fill="#FFB573"/>
<path d="M690.683 247.195C692.623 247.195 694.195 245.295 694.195 242.951C694.195 240.608 692.623 238.708 690.683 238.708C688.743 238.708 687.171 240.608 687.171 242.951C687.171 245.295 688.743 247.195 690.683 247.195Z" fill="white"/>
<path d="M693.586 254.171L691.561 254.098L690.317 244.317L694.171 243.463L693.586 254.171Z" fill="white"/>
<path d="M707.586 438.537C700.268 438.537 693.781 437.439 689.854 433.878C688.389 432.467 687.249 430.755 686.512 428.86C685.775 426.965 685.459 424.932 685.586 422.902C685.809 412.845 687.375 402.862 690.244 393.219C693.634 379.927 696.317 369.439 688.171 356.488C675.195 335.927 679.073 307.171 688.171 289.146C695.122 275.366 692.683 260 691.805 254.341C691.683 253.61 691.586 253.024 691.537 252.634C691.527 252.542 691.535 252.45 691.562 252.361C691.589 252.273 691.633 252.191 691.692 252.121C691.752 252.05 691.825 251.992 691.907 251.95C691.989 251.909 692.079 251.884 692.171 251.878C692.355 251.857 692.54 251.909 692.686 252.023C692.832 252.137 692.927 252.304 692.951 252.488C692.951 252.854 693.073 253.415 693.171 254.122C694.098 260 696.512 275.585 689.342 289.78C680.439 307.463 676.634 335.634 689.342 355.634C697.805 369.073 694.927 380.366 691.586 393.439C688.776 402.95 687.242 412.792 687.025 422.707C686.893 424.541 687.163 426.382 687.816 428.1C688.469 429.819 689.489 431.375 690.805 432.658C697.39 438.585 711.927 437.073 725.976 435.61C732.268 434.976 738.781 434.293 744.512 434.293C744.7 434.293 744.88 434.367 745.013 434.5C745.145 434.632 745.22 434.812 745.22 435C745.22 435.188 745.145 435.367 745.013 435.5C744.88 435.633 744.7 435.707 744.512 435.707C738.854 435.707 732.317 436.366 726.122 437.024C719.973 437.84 713.786 438.344 707.586 438.537Z" fill="white"/>
<path d="M773.707 433.317H745.951C745.143 433.317 744.488 433.973 744.488 434.781V436.732C744.488 437.54 745.143 438.195 745.951 438.195H773.707C774.516 438.195 775.171 437.54 775.171 436.732V434.781C775.171 433.973 774.516 433.317 773.707 433.317Z" fill="white"/>
<path d="M947.902 454.439H271.61C269.458 454.433 267.396 453.575 265.874 452.053C264.352 450.532 263.494 448.469 263.488 446.317C263.494 444.165 264.352 442.103 265.874 440.581C267.396 439.06 269.458 438.202 271.61 438.195H947.902C950.055 438.202 952.117 439.06 953.638 440.581C955.16 442.103 956.018 444.165 956.024 446.317C956.018 448.469 955.16 450.532 953.638 452.053C952.117 453.575 950.055 454.433 947.902 454.439Z" fill="#407BFF"/>
<path opacity="0.3" d="M947.902 454.439H789.585C787.433 454.433 785.371 453.575 783.849 452.053C782.328 450.532 781.47 448.469 781.463 446.317C781.47 444.165 782.328 442.103 783.849 440.581C785.371 439.06 787.433 438.202 789.585 438.195H947.902C950.055 438.202 952.117 439.06 953.638 440.581C955.16 442.103 956.018 444.165 956.024 446.317C956.018 448.469 955.16 450.532 953.638 452.053C952.117 453.575 950.055 454.433 947.902 454.439Z" fill="#263238"/>
<path d="M940.439 837.122H956.024L938.098 454.439H916.537L940.439 837.122Z" fill="#263238"/>
<path opacity="0.1" d="M940.439 837.122H956.024L938.098 454.439H916.537L940.439 837.122Z" fill="white"/>
<path d="M797.049 837.122H781.463L799.39 454.439H820.951L797.049 837.122Z" fill="#263238"/>
<path opacity="0.2" d="M797.049 837.122H781.463L799.39 454.439H820.951L797.049 837.122Z" fill="white"/>
<path d="M422.488 837.122H438.049L420.122 454.439H398.561L422.488 837.122Z" fill="#263238"/>
<path opacity="0.1" d="M422.488 837.122H438.049L420.122 454.439H398.561L422.488 837.122Z" fill="white"/>
<path d="M279.073 837.122H263.488L281.415 454.439H302.976L279.073 837.122Z" fill="#263238"/>
<path opacity="0.2" d="M279.073 837.122H263.488L281.415 454.439H302.976L279.073 837.122Z" fill="white"/>
<path d="M806.073 474.805H285.951V506.878H806.073V474.805Z" fill="#263238"/>
<path opacity="0.2" d="M806.073 474.805H285.951V506.878H806.073V474.805Z" fill="white"/>
<path d="M371.537 416.634C370.635 416.634 369.77 416.991 369.131 417.626C368.491 418.261 368.129 419.123 368.122 420.024V434.659C368.122 435.564 368.482 436.433 369.122 437.073C369.763 437.713 370.631 438.073 371.537 438.073H482.146C482.44 438.073 482.722 437.958 482.931 437.753C483.141 437.548 483.262 437.269 483.268 436.976V417.61C483.262 417.316 483.141 417.037 482.931 416.832C482.722 416.627 482.44 416.512 482.146 416.512L371.537 416.634Z" fill="#407BFF"/>
<path opacity="0.9" d="M437 418.683H483.341V436.147H437C436.476 436.147 435.974 435.938 435.603 435.568C435.233 435.197 435.024 434.695 435.024 434.171V420.634C435.031 420.115 435.242 419.618 435.612 419.253C435.981 418.888 436.48 418.683 437 418.683Z" fill="white"/>
<path d="M429.391 416.634H317.659C315.773 416.634 314.244 418.163 314.244 420.049V434.805C314.244 436.691 315.773 438.22 317.659 438.22H429.391C431.276 438.22 432.805 436.691 432.805 434.805V420.049C432.805 418.163 431.276 416.634 429.391 416.634Z" fill="#407BFF"/>
<path opacity="0.2" d="M429.391 416.634H317.659C315.773 416.634 314.244 418.163 314.244 420.049V434.805C314.244 436.691 315.773 438.22 317.659 438.22H429.391C431.276 438.22 432.805 436.691 432.805 434.805V420.049C432.805 418.163 431.276 416.634 429.391 416.634Z" fill="black"/>
<path opacity="0.5" d="M374.439 416.634H357.488C356.72 416.634 356.098 417.257 356.098 418.025V436.829C356.098 437.597 356.72 438.22 357.488 438.22H374.439C375.207 438.22 375.829 437.597 375.829 436.829V418.025C375.829 417.257 375.207 416.634 374.439 416.634Z" fill="#407BFF"/>
<path opacity="0.5" d="M398.903 416.634H381.976C381.208 416.634 380.585 417.257 380.585 418.025V436.829C380.585 437.597 381.208 438.22 381.976 438.22H398.903C399.67 438.22 400.293 437.597 400.293 436.829V418.025C400.293 417.257 399.67 416.634 398.903 416.634Z" fill="#407BFF"/>
<path d="M351.537 390.049C351.088 390.049 350.644 390.137 350.23 390.309C349.816 390.48 349.439 390.732 349.122 391.049C348.805 391.366 348.554 391.742 348.382 392.157C348.21 392.571 348.122 393.015 348.122 393.463V413.22C348.122 413.668 348.21 414.112 348.382 414.526C348.554 414.941 348.805 415.317 349.122 415.634C349.439 415.951 349.816 416.203 350.23 416.374C350.644 416.546 351.088 416.634 351.537 416.634H471.366C471.659 416.628 471.938 416.507 472.144 416.297C472.349 416.087 472.464 415.806 472.464 415.512V391.122C472.464 390.829 472.349 390.547 472.144 390.337C471.938 390.127 471.659 390.006 471.366 390L351.537 390.049Z" fill="#407BFF"/>
<path opacity="0.9" d="M417.073 392.122H472.537V414.585H417.073C416.549 414.585 416.047 414.377 415.676 414.007C415.306 413.636 415.098 413.134 415.098 412.61V394.146C415.091 393.883 415.138 393.621 415.234 393.375C415.33 393.13 415.475 392.907 415.659 392.718C415.843 392.529 416.063 392.379 416.306 392.277C416.549 392.175 416.81 392.122 417.073 392.122Z" fill="white"/>
<path d="M409.366 390.049H315.415C313.529 390.049 312 391.578 312 393.463V413.195C312 415.081 313.529 416.61 315.415 416.61H409.366C411.252 416.61 412.781 415.081 412.781 413.195V393.463C412.781 391.578 411.252 390.049 409.366 390.049Z" fill="#407BFF"/>
<path opacity="0.2" d="M409.366 390.049H315.415C313.529 390.049 312 391.578 312 393.463V413.195C312 415.081 313.529 416.61 315.415 416.61H409.366C411.252 416.61 412.781 415.081 412.781 413.195V393.463C412.781 391.578 411.252 390.049 409.366 390.049Z" fill="white"/>
<path opacity="0.6" d="M400.561 395.317H331.756C330.611 395.317 329.683 396.245 329.683 397.39V409.268C329.683 410.413 330.611 411.341 331.756 411.341H400.561C401.706 411.341 402.634 410.413 402.634 409.268V397.39C402.634 396.245 401.706 395.317 400.561 395.317Z" fill="#407BFF"/>
<path d="M386.683 377.341C384.805 377.341 383.268 378.244 383.268 379.341V388.049C383.268 389.146 384.805 390.049 386.683 390.049H497.317C497.927 390.049 498.414 389.756 498.414 389.414V378C498.414 377.634 497.927 377.341 497.317 377.341H386.683Z" fill="#407BFF"/>
<path opacity="0.9" d="M451.707 378.537H498.415V388.829H451.707C451.306 388.829 450.922 388.67 450.638 388.386C450.355 388.103 450.195 387.718 450.195 387.317V380C450.208 379.607 450.373 379.235 450.655 378.962C450.937 378.689 451.315 378.536 451.707 378.537Z" fill="white"/>
<path d="M445.341 377.341H332C330.559 377.341 329.39 378.51 329.39 379.951V387.463C329.39 388.905 330.559 390.073 332 390.073H445.341C446.783 390.073 447.951 388.905 447.951 387.463V379.951C447.951 378.51 446.783 377.341 445.341 377.341Z" fill="#407BFF"/>
<path opacity="0.2" d="M445.341 377.341H332C330.559 377.341 329.39 378.51 329.39 379.951V387.463C329.39 388.905 330.559 390.073 332 390.073H445.341C446.783 390.073 447.951 388.905 447.951 387.463V379.951C447.951 378.51 446.783 377.341 445.341 377.341Z" fill="black"/>
<path opacity="0.5" d="M346.244 377.341H342.707C342.425 377.341 342.195 377.571 342.195 377.854V389.561C342.195 389.844 342.425 390.073 342.707 390.073H346.244C346.527 390.073 346.756 389.844 346.756 389.561V377.854C346.756 377.571 346.527 377.341 346.244 377.341Z" fill="#407BFF"/>
<path opacity="0.5" d="M438.244 377.341H434.781C434.498 377.341 434.269 377.571 434.269 377.854V389.561C434.269 389.844 434.498 390.073 434.781 390.073H438.244C438.527 390.073 438.756 389.844 438.756 389.561V377.854C438.756 377.571 438.527 377.341 438.244 377.341Z" fill="#407BFF"/>
<path d="M366.683 358.951C364.805 358.951 363.268 359.854 363.268 360.951V375.317C363.268 376.439 364.805 377.341 366.683 377.341H486.512C487.122 377.341 487.634 377.049 487.634 376.683V359.61C487.634 359.244 487.122 358.951 486.512 358.951H366.683Z" fill="#407BFF"/>
<path opacity="0.9" d="M431.707 360.146H487.634V376.122H431.707C431.306 376.122 430.922 375.963 430.638 375.679C430.355 375.396 430.195 375.011 430.195 374.61V361.659C430.195 361.258 430.355 360.873 430.638 360.589C430.922 360.306 431.306 360.146 431.707 360.146Z" fill="white"/>
<path d="M425.317 358.951H329.756C328.315 358.951 327.146 360.12 327.146 361.561V374.732C327.146 376.173 328.315 377.341 329.756 377.341H425.317C426.759 377.341 427.927 376.173 427.927 374.732V361.561C427.927 360.12 426.759 358.951 425.317 358.951Z" fill="#407BFF"/>
<path opacity="0.1" d="M425.317 358.951H329.756C328.315 358.951 327.146 360.12 327.146 361.561V374.732C327.146 376.173 328.315 377.341 329.756 377.341H425.317C426.759 377.341 427.927 376.173 427.927 374.732V361.561C427.927 360.12 426.759 358.951 425.317 358.951Z" fill="black"/>
<path d="M633.951 434.146H533.293C532.754 434.146 532.236 434.359 531.853 434.738C531.469 435.117 531.251 435.632 531.244 436.171C531.251 436.71 531.469 437.225 531.853 437.604C532.236 437.983 532.754 438.195 533.293 438.195H633.951C634.488 438.195 635.003 437.982 635.383 437.602C635.763 437.223 635.976 436.708 635.976 436.171C635.976 435.634 635.763 435.119 635.383 434.739C635.003 434.36 634.488 434.146 633.951 434.146Z" fill="white"/>
<path d="M830.878 429.317H897.024L903 437.975H824.902L830.878 429.317Z" fill="#263238"/>
<path d="M933.025 281.537C933.025 283.298 932.503 285.019 931.524 286.483C930.546 287.947 929.156 289.088 927.529 289.762C925.902 290.435 924.112 290.612 922.385 290.268C920.658 289.925 919.072 289.077 917.827 287.832C916.582 286.587 915.734 285 915.391 283.274C915.047 281.547 915.224 279.757 915.897 278.13C916.571 276.503 917.712 275.113 919.176 274.135C920.64 273.156 922.361 272.634 924.122 272.634C925.292 272.631 926.451 272.859 927.533 273.305C928.614 273.752 929.597 274.407 930.424 275.235C931.252 276.062 931.907 277.045 932.354 278.126C932.8 279.208 933.028 280.367 933.025 281.537Z" fill="black"/>
<path d="M866.146 435.171C865.683 435.169 865.226 435.054 864.818 434.835C864.409 434.616 864.06 434.3 863.803 433.914C863.545 433.529 863.386 433.086 863.339 432.624C863.293 432.163 863.361 431.697 863.537 431.268L927.268 280.439C927.597 279.809 928.151 279.326 928.82 279.086C929.488 278.845 930.223 278.865 930.878 279.142C931.532 279.419 932.059 279.931 932.353 280.578C932.646 281.225 932.686 281.959 932.463 282.634L868.732 433.439C868.517 433.949 868.158 434.384 867.699 434.692C867.239 435 866.699 435.166 866.146 435.171Z" fill="#263238"/>
<path d="M929.853 284.39C929.248 284.383 928.659 284.187 928.171 283.829L812.439 197.024C811.844 196.578 811.45 195.914 811.345 195.177C811.24 194.441 811.432 193.693 811.878 193.098C812.324 192.502 812.989 192.109 813.725 192.004C814.462 191.899 815.21 192.09 815.805 192.537L931.561 279.293C932.029 279.652 932.372 280.148 932.544 280.712C932.716 281.276 932.707 281.88 932.519 282.439C932.331 282.998 931.973 283.484 931.495 283.83C931.017 284.175 930.443 284.363 929.853 284.366V284.39Z" fill="#263238"/>
<path d="M938.756 281.537C938.756 283.298 938.234 285.019 937.256 286.483C936.278 287.947 934.887 289.088 933.26 289.762C931.634 290.435 929.844 290.612 928.117 290.268C926.39 289.925 924.804 289.077 923.559 287.832C922.314 286.587 921.466 285 921.122 283.274C920.779 281.547 920.955 279.757 921.629 278.13C922.303 276.503 923.444 275.113 924.908 274.135C926.372 273.156 928.093 272.634 929.854 272.634C931.024 272.631 932.183 272.859 933.264 273.305C934.346 273.752 935.328 274.407 936.156 275.235C936.983 276.062 937.639 277.045 938.085 278.126C938.531 279.208 938.759 280.367 938.756 281.537Z" fill="#263238"/>
<path d="M814.122 203.658C819.025 203.658 823 199.684 823 194.78C823 189.877 819.025 185.902 814.122 185.902C809.219 185.902 805.244 189.877 805.244 194.78C805.244 199.684 809.219 203.658 814.122 203.658Z" fill="#263238"/>
<path d="M801.683 235.366C798.9 238.149 795.353 240.045 791.493 240.813C787.632 241.581 783.63 241.186 779.994 239.68C776.357 238.174 773.249 235.623 771.062 232.35C768.875 229.077 767.708 225.229 767.708 221.293C767.708 217.356 768.875 213.508 771.062 210.235C773.249 206.962 776.357 204.412 779.994 202.905C783.63 201.399 787.632 201.005 791.493 201.773C795.353 202.54 798.9 204.436 801.683 207.219C805.41 210.955 807.502 216.016 807.502 221.293C807.502 226.569 805.41 231.63 801.683 235.366Z" fill="#407BFF"/>
<path opacity="0.7" d="M801.683 235.366C798.9 238.149 795.353 240.045 791.493 240.813C787.632 241.581 783.63 241.186 779.994 239.68C776.357 238.174 773.249 235.623 771.062 232.35C768.875 229.077 767.708 225.229 767.708 221.293C767.708 217.356 768.875 213.508 771.062 210.235C773.249 206.962 776.357 204.412 779.994 202.905C783.63 201.399 787.632 201.005 791.493 201.773C795.353 202.54 798.9 204.436 801.683 207.219C805.41 210.955 807.502 216.016 807.502 221.293C807.502 226.569 805.41 231.63 801.683 235.366Z" fill="white"/>
<path d="M814.122 194.78C810.164 190.819 805.465 187.676 800.292 185.532C795.12 183.387 789.575 182.284 783.975 182.284C778.376 182.284 772.831 183.387 767.658 185.532C762.486 187.676 757.786 190.819 753.829 194.78L814.122 255.122C818.088 251.162 821.234 246.459 823.381 241.282C825.528 236.105 826.633 230.556 826.633 224.951C826.633 219.347 825.528 213.797 823.381 208.62C821.234 203.443 818.088 198.74 814.122 194.78Z" fill="#263238"/>
<g opacity="0.2">
<path d="M753.805 194.78L500.585 438.195H760.366L814.122 255.097L753.805 194.78Z" fill="#407BFF"/>
<path opacity="0.7" d="M753.805 194.78L500.585 438.195H760.366L814.122 255.097L753.805 194.78Z" fill="white"/>
</g>
</svg>
